SplineFontDB: 3.2
FontName: AgaveB-Semibold
FullName: AgaveB Semibold
FamilyName: AgaveB-Semibold
Weight: Semibold
Copyright: (c) 2013-2021 type agaric <agaric@protonmail.com>
Version: 37 ; ttfautohint (v1.8.3)
ItalicAngle: 0
UnderlinePosition: -384
UnderlineWidth: 128
Ascent: 1536
Descent: 512
InvalidEm: 0
sfntRevision: 0x00250000
LayerCount: 2
Layer: 0 1 "+gMxmbwAA" 1
Layer: 1 1 "+Uk1mbwAA" 0
XUID: [1021 327 1617118019 1636218]
StyleMap: 0x0040
FSType: 0
OS2Version: 4
OS2_WeightWidthSlopeOnly: 1
OS2_UseTypoMetrics: 1
CreationTime: 1368797729
ModificationTime: 1648210965
PfmFamily: 17
TTFWeight: 600
TTFWidth: 5
LineGap: 0
VLineGap: 0
Panose: 2 11 7 9 3 6 4 2 2 3
OS2TypoAscent: 1536
OS2TypoAOffset: 0
OS2TypoDescent: -512
OS2TypoDOffset: 0
OS2TypoLinegap: 0
OS2WinAscent: 1536
OS2WinAOffset: 0
OS2WinDescent: 512
OS2WinDOffset: 0
HheadAscent: 1536
HheadAOffset: 0
HheadDescent: -512
HheadDOffset: 0
OS2SubXSize: 1403
OS2SubYSize: 1224
OS2SubXOff: 0
OS2SubYOff: 120
OS2SupXSize: 1403
OS2SupYSize: 1224
OS2SupXOff: 0
OS2SupYOff: 648
OS2StrikeYSize: 128
OS2StrikeYPos: 512
OS2CapHeight: 1280
OS2XHeight: 1024
OS2FamilyClass: 2057
OS2Vendor: 'agrc'
OS2CodePages: 6000019f.dfd70000
OS2UnicodeRanges: e00002ff.1000f8fb.00040000.00000000
MarkAttachClasses: 1
DEI: 91125
TtTable: prep
SVTCA[y-axis]
MPPEM
PUSHW_1
 200
GT
IF
PUSHB_2
 1
 1
INSTCTRL
EIF
PUSHB_1
 1
PUSHW_2
 2048
 2048
MUL
WCVTF
PUSHB_2
 0
 7
WS
PUSHB_7
 0
 78
 65
 49
 33
 5
 0
LOOPCALL
PUSHB_2
 0
 7
WS
NPUSHB
 12
 84
 5
 70
 6
 54
 8
 38
 8
 24
 7
 5
 10
LOOPCALL
PUSHB_2
 0
 7
WS
NPUSHB
 12
 89
 3
 76
 4
 62
 6
 46
 6
 31
 5
 5
 10
LOOPCALL
PUSHB_2
 0
 12
WS
PUSHW_7
 5440
 4544
 3520
 2496
 1600
 5
 11
LOOPCALL
PUSHB_2
 0
 17
WS
PUSHW_7
 64
 64
 64
 64
 64
 5
 11
LOOPCALL
PUSHW_2
 3
 0
WCVTP
PUSHB_2
 36
 1
GETINFO
LTEQ
IF
PUSHB_1
 64
GETINFO
IF
PUSHW_2
 3
 100
WCVTP
PUSHB_2
 40
 1
GETINFO
LTEQ
IF
PUSHW_1
 2048
GETINFO
IF
PUSHW_2
 3
 0
WCVTP
EIF
ELSE
PUSHB_2
 39
 1
GETINFO
LTEQ
IF
PUSHW_3
 2176
 1
 1088
GETINFO
MUL
EQ
IF

StartChar: .notdef
Encoding: 65536 -1 0
Width: 1024
Flags: W
LayerCount: 2
Fore
SplineSet
320 1280 m 2,0,-1
 433 1280 l 1,1,-1
 433 1152 l 1,2,-1
 320 1152 l 2,3,4
 267 1152 267 1152 229.5 1114.5 c 128,-1,5
 192 1077 192 1077 192 1024 c 2,6,-1
 192 768 l 1,7,-1
 64 768 l 1,8,-1
 64 1024 l 2,9,10
 64 1130 64 1130 139 1205 c 128,-1,11
 214 1280 214 1280 320 1280 c 2,0,-1
591 1280 m 1,12,-1
 704 1280 l 2,13,14
 810 1280 810 1280 885 1205 c 128,-1,15
 960 1130 960 1130 960 1024 c 2,16,-1
 960 768 l 1,17,-1
 832 768 l 1,18,-1
 832 1024 l 2,19,20
 832 1077 832 1077 794.5 1114.5 c 128,-1,21
 757 1152 757 1152 704 1152 c 2,22,-1
 591 1152 l 1,23,-1
 591 1280 l 1,12,-1
64 512 m 1,24,-1
 192 512 l 1,25,-1
 192 256 l 2,26,27
 192 203 192 203 229.5 165.5 c 128,-1,28
 267 128 267 128 320 128 c 2,29,-1
 433 128 l 1,30,-1
 433 0 l 1,31,-1
 320 0 l 2,32,33
 214 0 214 0 139 75 c 128,-1,34
 64 150 64 150 64 256 c 2,35,-1
 64 512 l 1,24,-1
832 512 m 1,36,-1
 960 512 l 1,37,-1
 960 256 l 2,38,39
 960 150 960 150 885 75 c 128,-1,40
 810 0 810 0 704 0 c 2,41,-1
 591 0 l 1,42,-1
 591 128 l 1,43,-1
 704 128 l 2,44,45
 757 128 757 128 794.5 165.5 c 128,-1,46
 832 203 832 203 832 256 c 2,47,-1
 832 512 l 1,36,-1
EndSplineSet
EndChar

StartChar: exclam
Encoding: 33 33 4
Width: 1024
GlyphClass: 2
Flags: W
LayerCount: 2
Fore
SplineSet
419 1310 m 1,0,-1
 605 1310 l 1,1,-1
 635.31412756 1310 l 1,2,-1
 634.998372528 1279.68751695 l 1,3,-1
 626.998372528 511.687516953 l 1,4,-1
 626.68912756 482 l 1,5,-1
 597 482 l 1,6,-1
 427 482 l 1,7,-1
 397.31087244 482 l 1,8,-1
 397.001627472 511.687516953 l 1,9,-1
 389.001627472 1279.68751695 l 1,10,-1
 388.68587244 1310 l 1,11,-1
 419 1310 l 1,0,-1
384 286 m 1,12,-1
 640 286 l 1,13,-1
 670 286 l 1,14,-1
 670 256 l 1,15,-1
 670 0 l 1,16,-1
 670 -30 l 1,17,-1
 640 -30 l 1,18,-1
 384 -30 l 1,19,-1
 354 -30 l 1,20,-1
 354 0 l 1,21,-1
 354 256 l 1,22,-1
 354 286 l 1,23,-1
 384 286 l 1,12,-1
EndSplineSet
EndChar

StartChar: quotedbl
Encoding: 34 34 5
Width: 1024
GlyphClass: 2
Flags: W
LayerCount: 2
Fore
SplineSet
264 1310 m 1,0,-1
 434 1310 l 1,1,-1
 464.711363615 1310 l 1,2,-1
 463.991763647 1279.29706804 l 1,3,-1
 451.991763647 767.29706804 l 1,4,-1
 451.305113615 738 l 1,5,-1
 422 738 l 1,6,-1
 275 738 l 1,7,-1
 245.637608373 738 l 1,8,-1
 245.00692128 767.355617449 l 1,9,-1
 234.00692128 1279.35561745 l 1,10,-1
 233.348545873 1310 l 1,11,-1
 264 1310 l 1,0,-1
590 1310 m 1,12,-1
 760 1310 l 1,13,-1
 790.651454127 1310 l 1,14,-1
 789.99307872 1279.35561745 l 1,15,-1
 778.99307872 767.355617449 l 1,16,-1
 778.362391627 738 l 1,17,-1
 749 738 l 1,18,-1
 602 738 l 1,19,-1
 572.694886385 738 l 1,20,-1
 572.008236353 767.29706804 l 1,21,-1
 560.008236353 1279.29706804 l 1,22,-1
 559.288636385 1310 l 1,23,-1
 590 1310 l 1,12,-1
EndSplineSet
EndChar

StartChar: numbersign
Encoding: 35 35 6
Width: 1024
GlyphClass: 2
Flags: W
LayerCount: 2
Fore
SplineSet
244 1310 m 1,0,-1
 390 1310 l 1,1,-1
 420 1310 l 1,2,-1
 420 1280 l 1,3,-1
 420 981 l 1,4,-1
 604 981 l 1,5,-1
 604 1280 l 1,6,-1
 604 1310 l 1,7,-1
 634 1310 l 1,8,-1
 780 1310 l 1,9,-1
 810 1310 l 1,10,-1
 810 1280 l 1,11,-1
 810 981 l 1,12,-1
 960 981 l 1,13,-1
 990 981 l 1,14,-1
 990 951 l 1,15,-1
 990 805 l 1,16,-1
 990 775 l 1,17,-1
 960 775 l 1,18,-1
 810 775 l 1,19,-1
 810 505 l 1,20,-1
 960 505 l 1,21,-1
 990 505 l 1,22,-1
 990 475 l 1,23,-1
 990 329 l 1,24,-1
 990 299 l 1,25,-1
 960 299 l 1,26,-1
 810 299 l 1,27,-1
 810 0 l 1,28,-1
 810 -30 l 1,29,-1
 780 -30 l 1,30,-1
 634 -30 l 1,31,-1
 604 -30 l 1,32,-1
 604 0 l 1,33,-1
 604 299 l 1,34,-1
 420 299 l 1,35,-1
 420 0 l 1,36,-1
 420 -30 l 1,37,-1
 390 -30 l 1,38,-1
 244 -30 l 1,39,-1
 214 -30 l 1,40,-1
 214 0 l 1,41,-1
 214 299 l 1,42,-1
 64 299 l 1,43,-1
 34 299 l 1,44,-1
 34 329 l 1,45,-1
 34 475 l 1,46,-1
 34 505 l 1,47,-1
 64 505 l 1,48,-1
 214 505 l 1,49,-1
 214 775 l 1,50,-1
 64 775 l 1,51,-1
 34 775 l 1,52,-1
 34 805 l 1,53,-1
 34 951 l 1,54,-1
 34 981 l 1,55,-1
 64 981 l 1,56,-1
 214 981 l 1,57,-1
 214 1280 l 1,58,-1
 214 1310 l 1,59,-1
 244 1310 l 1,0,-1
604 775 m 1,60,-1
 420 775 l 1,61,-1
 420 505 l 1,62,-1
 604 505 l 1,63,-1
 604 775 l 1,60,-1
EndSplineSet
EndChar

StartChar: dollar
Encoding: 36 36 7
Width: 1024
GlyphClass: 2
Flags: W
LayerCount: 2
Fore
SplineSet
438.274424663 1437 m 1,0,-1
 473.15935736 1437 l 1,1,-1
 670.84064264 1437 l 1,2,-1
 705.725575337 1437 l 1,3,-1
 705.725575337 1407 l 1,4,-1
 705.725575337 1218.91699219 l 1,5,6
 714.606924901 1219 714.606924901 1219 723.168041685 1219 c 0,7,8
 794.080078125 1219 794.080078125 1219 850.65625 1214.92285156 c 0,9,10
 907.455078125 1210.82910156 907.455078125 1210.82910156 933.739257812 1206.62304688 c 2,11,-1
 958.739257812 1202.62304688 l 1,12,-1
 984 1198.58203125 l 1,13,-1
 984 1173 l 1,14,-1
 984 1024 l 1,15,-1
 984 994 l 1,16,-1
 954 994 l 1,17,-1
 681.306122449 994 l 1,18,-1
 681.306122449 724.174804688 l 1,19,20
 735.15519499 711.740234375 735.15519499 711.740234375 772.573600501 701.293945312 c 0,21,22
 815.451171875 687.995117188 815.451171875 687.995117188 866.807617188 663.23828125 c 0,23,24
 893.421875 650.409179688 893.421875 650.409179688 914.875976562 636.436523438 c 128,-1,25
 936.331054688 622.462890625 936.331054688 622.462890625 952.837890625 606.940429688 c 0,26,27
 964.020507812 596.424804688 964.020507812 596.424804688 974.028320312 583.934570312 c 128,-1,28
 984.036132812 571.444335938 984.036132812 571.444335938 992.637695312 557.427734375 c 128,-1,29
 1001.23828125 543.411132812 1001.23828125 543.411132812 1008.74804688 527.536132812 c 0,30,31
 1032 478.376953125 1032 478.376953125 1032 418.404296875 c 0,32,33
 1032 281.580078125 1032 281.580078125 941.913085938 203.711914062 c 0,34,35
 862.240234375 134.844726562 862.240234375 134.844726562 705.725575337 106.735351562 c 1,36,-1
 705.725575337 -127 l 1,37,-1
 705.725575337 -157 l 1,38,-1
 670.84064264 -157 l 1,39,-1
 473.15935736 -157 l 1,40,-1
 438.274424663 -157 l 1,41,-1
 438.274424663 -127 l 1,42,-1
 438.274424663 61.216796875 l 1,43,44
 420.056359063 61 420.056359063 61 398.738167607 61 c 0,45,46
 383.631583634 61 383.631583634 61 368.758928571 61.162109375 c 0,47,48
 354.428710938 61.3251953125 354.428710938 61.3251953125 341.826171875 61.650390625 c 128,-1,49
 329.223632812 61.9755859375 329.223632812 61.9755859375 316.8203125 62.462890625 c 128,-1,50
 304.41796875 62.951171875 304.41796875 62.951171875 292.202148438 63.6025390625 c 128,-1,51
 279.987304688 64.25390625 279.987304688 64.25390625 267.970703125 65.068359375 c 0,52,53
 237.666992188 67.123046875 237.666992188 67.123046875 215.912109375 69.1455078125 c 128,-1,54
 194.157226562 71.16796875 194.157226562 71.16796875 179.520507812 73.3359375 c 2,55,-1
 153.438476562 77.3486328125 l 1,56,-1
 128 81.2626953125 l 1,57,-1
 128 107 l 1,58,-1
 128 256 l 1,59,-1
 128 286 l 1,60,-1
 158 286 l 1,61,-1
 462.693877551 286 l 1,62,-1
 462.693877551 555.825195312 l 1,63,64
 408.84480501 568.259765625 408.84480501 568.259765625 371.426399499 578.706054688 c 0,65,66
 328.548828125 592.004882812 328.548828125 592.004882812 277.192382812 616.76171875 c 0,67,68
 263.97265625 623.133789062 263.97265625 623.133789062 252.112304688 629.733398438 c 128,-1,69
 240.252929688 636.333007812 240.252929688 636.333007812 229.462890625 643.34375 c 128,-1,70
 218.672851562 650.354492188 218.672851562 650.354492188 209.076171875 657.795898438 c 128,-1,71
 199.479492188 665.23828125 199.479492188 665.23828125 191.162109375 673.059570312 c 0,72,73
 174.44921875 688.775390625 174.44921875 688.775390625 160.50390625 708.668945312 c 128,-1,74
 146.55859375 728.561523438 146.55859375 728.561523438 135.251953125 752.463867188 c 0,75,76
 123.587890625 777.125 123.587890625 777.125 117.793945312 804.512695312 c 128,-1,77
 112 831.899414062 112 831.899414062 112 861.595703125 c 0,78,79
 112 1000.30664062 112 1000.30664062 202.008789062 1078.65527344 c 0,80,81
 281.7734375 1148.08691406 281.7734375 1148.08691406 438.274424663 1175.359375 c 1,82,-1
 438.274424663 1407 l 1,83,-1
 438.274424663 1437 l 1,0,-1
462.693877551 771.055664062 m 1,84,-1
 462.693877551 972.6875 l 1,85,86
 428.235921895 964.774414062 428.235921895 964.774414062 404.040177723 954.659179688 c 128,-1,87
 379.844433551 944.544921875 379.844433551 944.544921875 365.840495074 932.309570312 c 0,88,89
 352.665039062 920.07421875 352.665039062 920.07421875 347.333007812 906.6640625 c 128,-1,90
 342 893.25390625 342 893.25390625 342 877 c 0,91,92
 342 835.551757812 342 835.551757812 375.564442948 811.060546875 c 0,93,94
 407.276572847 789.564453125 407.276572847 789.564453125 462.693877551 771.055664062 c 1,84,-1
768.435557052 468.939453125 m 0,95,96
 736.723427153 490.435546875 736.723427153 490.435546875 681.306122449 508.944335938 c 1,97,-1
 681.306122449 309.49609375 l 1,98,99
 748.703766995 325.241210938 748.703766995 325.241210938 776.634424697 348.284179688 c 0,100,101
 802 371.326171875 802 371.326171875 802 403 c 0,102,103
 802 444.448242188 802 444.448242188 768.435557052 468.939453125 c 0,95,96
EndSplineSet
EndChar

StartChar: percent
Encoding: 37 37 8
Width: 1024
GlyphClass: 2
Flags: W
LayerCount: 2
Fore
SplineSet
148.668945312 1280 m 1,0,-1
 178.668945312 1280 l 1,1,-1
 399.147744035 1280 l 1,2,-1
 432.706343896 1280 l 1,3,-1
 432.706343896 1250 l 1,4,-1
 432.706343896 930 l 1,5,-1
 432.706343896 900 l 1,6,-1
 399.147744035 900 l 1,7,-1
 178.668945312 900 l 1,8,-1
 148.668945312 900 l 1,9,-1
 148.668945312 930 l 1,10,-1
 148.668945312 1250 l 1,11,-1
 148.668945312 1280 l 1,0,-1
856.928775906 1280 m 1,12,-1
 876.668945312 1280 l 1,13,-1
 1070.66894531 1280 l 1,14,-1
 1121.33691406 1280 l 1,15,-1
 1096.97265625 1237.58691406 l 1,16,-1
 337.963381417 15.57421875 l 1,17,-1
 328.408138156 0 l 1,18,-1
 308.668945312 0 l 1,19,-1
 114.668945312 0 l 1,20,-1
 64 0 l 1,21,-1
 88.365234375 42.4130859375 l 1,22,-1
 847.374625047 1264.42578125 l 1,23,-1
 856.928775906 1280 l 1,12,-1
752.631662569 380 m 1,24,-1
 786.19026243 380 l 1,25,-1
 1006.66894531 380 l 1,26,-1
 1036.66894531 380 l 1,27,-1
 1036.66894531 350 l 1,28,-1
 1036.66894531 30 l 1,29,-1
 1036.66894531 0 l 1,30,-1
 1006.66894531 0 l 1,31,-1
 786.19026243 0 l 1,32,-1
 752.631662569 0 l 1,33,-1
 752.631662569 30 l 1,34,-1
 752.631662569 350 l 1,35,-1
 752.631662569 380 l 1,24,-1
EndSplineSet
EndChar

StartChar: ampersand
Encoding: 38 38 9
Width: 1024
GlyphClass: 2
Flags: W
LayerCount: 2
Fore
SplineSet
503 1318 m 0,0,1
 515.259860274 1318 515.259860274 1318 527.126526448 1317.53286333 c 128,-1,2
 538.993192622 1317.06572666 538.993192622 1317.06572666 550.551279796 1316.1225635 c 128,-1,3
 562.10936697 1315.17940034 562.10936697 1315.17940034 573.279176111 1313.76101188 c 0,4,5
 590.422566253 1311.58407345 590.422566253 1311.58407345 602.46406849 1309.51546866 c 128,-1,6
 614.505570727 1307.44686387 614.505570727 1307.44686387 623.986381981 1304.91864753 c 2,7,-1
 638.241633837 1300.84571843 l 1,8,-1
 660 1294.62904238 l 1,9,-1
 660 1272 l 1,10,-1
 660 1123 l 1,11,-1
 660 1093 l 1,12,-1
 630 1093 l 1,13,-1
 503 1093 l 2,14,15
 456.617793567 1093 456.617793567 1093 423.040276067 1084.10494211 c 128,-1,16
 389.462758568 1075.20988423 389.462758568 1075.20988423 368.433969859 1058.83169302 c 0,17,18
 348.95538185 1043.66086967 348.95538185 1043.66086967 338.477690925 1016.1729038 c 128,-1,19
 328 988.684937926 328 988.684937926 328 946 c 0,20,21
 328 873.662766509 328 873.662766509 356.86046114 833.509081445 c 0,22,23
 382.382613429 798 382.382613429 798 425 798 c 2,24,-1
 600 798 l 1,25,-1
 600 987 l 1,26,-1
 600 1017 l 1,27,-1
 630 1017 l 1,28,-1
 800 1017 l 1,29,-1
 830 1017 l 1,30,-1
 830 987 l 1,31,-1
 830 798 l 1,32,-1
 960 798 l 1,33,-1
 990 798 l 1,34,-1
 990 768 l 1,35,-1
 990 611 l 1,36,-1
 990 581 l 1,37,-1
 960 581 l 1,38,-1
 830 581 l 1,39,-1
 830 321 l 2,40,41
 830 236.32003474 830 236.32003474 862.341376364 203.584251348 c 128,-1,42
 894.53304637 171 894.53304637 171 960 171 c 2,43,-1
 990 171 l 1,44,-1
 990 141 l 1,45,-1
 990 -8 l 1,46,-1
 990 -38 l 1,47,-1
 960 -38 l 2,48,49
 740.687837731 -38 740.687837731 -38 654.99741402 92.5710071488 c 1,50,-1
 533.213203436 -29.2132034356 l 1,51,-1
 524.426406871 -38 l 1,52,-1
 512 -38 l 2,53,54
 281.630615506 -38 281.630615506 -38 159.474496298 57.9032690276 c 0,55,56
 34 156.411755156 34 156.411755156 34 380 c 0,57,58
 34 453.355377681 34 453.355377681 52.7385167454 516.530948423 c 0,59,60
 58.9665071376 537.528173174 58.9665071376 537.528173174 66.0515487939 555.652753641 c 128,-1,61
 73.1365904503 573.777334109 73.1365904503 573.777334109 81.5673147679 589.894270215 c 128,-1,62
 89.9980390856 606.011206322 89.9980390856 606.011206322 99.5879958638 619.437145812 c 0,63,64
 125.944262114 656.335918562 125.944262114 656.335918562 152.577814826 683.502142328 c 0,65,66
 160.431281399 691.512678232 160.431281399 691.512678232 168.342413218 698.773078879 c 128,-1,67
 176.253545038 706.033479525 176.253545038 706.033479525 182.708786988 711.210455743 c 1,68,69
 178.493450603 715.717419173 178.493450603 715.717419173 174.701175613 719.931058051 c 0,70,71
 154.548925809 742.322446722 154.548925809 742.322446722 138.952705736 769.615831849 c 0,72,73
 134.740191146 776.987732383 134.740191146 776.987732383 130.873591163 785.40077721 c 128,-1,74
 127.00699118 793.813822038 127.00699118 793.813822038 123.487238325 803.248917333 c 128,-1,75
 119.96748547 812.684012627 119.96748547 812.684012627 116.77048484 822.938533001 c 128,-1,76
 113.57348421 833.193053376 113.57348421 833.193053376 110.49641909 844.832386656 c 0,77,78
 98 892.10145017 98 892.10145017 98 946 c 0,79,80
 98 1145.17457873 98 1145.17457873 204.450055742 1232.67540989 c 0,81,82
 308.252582559 1318 308.252582559 1318 503 1318 c 0,0,1
385 581 m 2,83,84
 331.236639805 581 331.236639805 581 299.61622253 532.593435283 c 0,85,86
 264 478.06983536 264 478.06983536 264 380 c 0,87,88
 264 332.323089802 264 332.323089802 279.755167195 296.581527756 c 128,-1,89
 295.51033439 260.83996571 295.51033439 260.83996571 327.690305454 234.05931865 c 0,90,91
 393.850293186 179 393.850293186 179 512 179 c 2,92,-1
 617.015916844 179 l 1,93,94
 600 240.707893223 600 240.707893223 600 321 c 2,95,-1
 600 581 l 1,96,-1
 385 581 l 2,83,84
EndSplineSet
EndChar

StartChar: quotesingle
Encoding: 39 39 10
Width: 1024
GlyphClass: 2
Flags: W
LayerCount: 2
Fore
SplineSet
427 1310 m 1,0,-1
 597 1310 l 1,1,-1
 627.711363615 1310 l 1,2,-1
 626.991763647 1279.29706804 l 1,3,-1
 614.991763647 767.29706804 l 1,4,-1
 614.305113615 738 l 1,5,-1
 585 738 l 1,6,-1
 439 738 l 1,7,-1
 409.694886385 738 l 1,8,-1
 409.008236353 767.29706804 l 1,9,-1
 397.008236353 1279.29706804 l 1,10,-1
 396.288636385 1310 l 1,11,-1
 427 1310 l 1,0,-1
EndSplineSet
EndChar

StartChar: parenleft
Encoding: 40 40 11
Width: 1024
GlyphClass: 2
Flags: W
LayerCount: 2
Fore
SplineSet
662 1467 m 1,0,-1
 854 1467 l 1,1,-1
 947.613951602 1467 l 1,2,-1
 871.437145812 1412.58799586 l 2,3,4
 865.159516346 1408.10397482 865.159516346 1408.10397482 852.850113213 1398.16176459 c 0,5,6
 841.088016125 1388.66160925 841.088016125 1388.66160925 804.713203436 1352.28679656 c 0,7,8
 768.643692275 1316.2172854 768.643692275 1316.2172854 736.369176673 1273.82687685 c 128,-1,9
 704.113533971 1231.46125659 704.113533971 1231.46125659 663.623502139 1159.74999539 c 0,10,11
 623.341188068 1088.40661987 623.341188068 1088.40661987 594.688718821 1009.73373821 c 128,-1,12
 566.062437361 931.132761995 566.062437361 931.132761995 546.018184848 820.644931067 c 128,-1,13
 526 710.300790197 526 710.300790197 526 591 c 128,-1,14
 526 471.580759083 526 471.580759083 545.059240612 361.623601706 c 0,15,16
 564.049343005 252.065318668 564.049343005 252.065318668 594.969673013 172.348842866 c 0,17,18
 610.661430841 131.893529717 610.661430841 131.893529717 627.794771919 94.2001876446 c 128,-1,19
 644.928112998 56.5068455719 644.928112998 56.5068455719 663.491072655 21.579171481 c 0,20,21
 700.139535623 -47.3778048924 700.139535623 -47.3778048924 736.328900808 -92.1383355167 c 0,22,23
 773.619409862 -138.260807241 773.619409862 -138.260807241 804.845999781 -171.43905903 c 0,24,25
 834.864198786 -203.166502397 834.864198786 -203.166502397 852.307019543 -217.230264657 c 2,26,-1
 872 -232 l 1,27,-1
 944 -286 l 1,28,-1
 854 -286 l 1,29,-1
 662 -286 l 1,30,-1
 652.386048398 -286 l 1,31,-1
 644.562854188 -280.412004136 l 2,32,33
 636.840483654 -274.896025183 636.840483654 -274.896025183 623.149886787 -263.838235406 c 0,34,35
 608.753799972 -252.210626824 608.753799972 -252.210626824 571.002094484 -213.424628036 c 128,-1,36
 533.157048968 -174.542731958 533.157048968 -174.542731958 499 -129 c 128,-1,37
 464.786121292 -83.381495056 464.786121292 -83.381495056 422.800541898 -8.1146637032 c 0,38,39
 380.577578924 67.5777211394 380.577578924 67.5777211394 350.73599272 151.442868575 c 128,-1,40
 320.895882753 235.303867276 320.895882753 235.303867276 300.459128781 350.771527218 c 128,-1,41
 280 466.365604832 280 466.365604832 280 591 c 0,42,43
 280 632.484811891 280 632.484811891 282.21108894 672.916311074 c 128,-1,44
 284.42217788 713.347810257 284.42217788 713.347810257 288.85509505 752.795089154 c 128,-1,45
 293.288012221 792.242368052 293.288012221 792.242368052 299.940759388 830.623601706 c 0,46,47
 319.923301688 945.90749959 319.923301688 945.90749959 351.917125355 1031.0523529 c 0,48,49
 383.570097976 1115.29010261 383.570097976 1115.29010261 421.932330405 1188.43409245 c 0,50,51
 460.762923601 1262.47109014 460.762923601 1262.47109014 500.049616725 1311.71041219 c 0,52,53
 538.234870115 1359.5692631 538.234870115 1359.5692631 569.981112806 1393.87568666 c 0,54,55
 602.572100016 1429.09497929 602.572100016 1429.09497929 623.702525047 1445.77689379 c 2,56,-1
 644 1461 l 1,57,-1
 652 1467 l 1,58,-1
 662 1467 l 1,0,-1
EndSplineSet
EndChar

StartChar: parenright
Encoding: 41 41 12
Width: 1024
GlyphClass: 2
Flags: W
LayerCount: 2
Fore
SplineSet
379.437145812 1461.41200414 m 2,0,1
 381.505488719 1459.93461634 381.505488719 1459.93461634 383.861465055 1458.1701523 c 128,-1,2
 386.217441391 1456.40568825 386.217441391 1456.40568825 388.896300898 1454.32770272 c 128,-1,3
 391.575160405 1452.24971719 391.575160405 1452.24971719 394.50837832 1449.92049277 c 128,-1,4
 397.441596235 1447.59126835 397.441596235 1447.59126835 400.850113213 1444.83823541 c 0,5,6
 408.88629387 1438.34747411 408.88629387 1438.34747411 421.205942648 1426.38895214 c 128,-1,7
 433.525591426 1414.43043018 433.525591426 1414.43043018 452.997905516 1394.42462804 c 0,8,9
 490.842951032 1355.54273196 490.842951032 1355.54273196 525 1310 c 128,-1,10
 559.213878708 1264.38149506 559.213878708 1264.38149506 601.199458102 1189.1146637 c 0,11,12
 643.408085911 1113.44797727 643.408085911 1113.44797727 673.244359667 1030.11217815 c 128,-1,13
 703.098988056 946.725112654 703.098988056 946.725112654 723.540871219 831.228472782 c 0,14,15
 733.776401849 773.397724719 733.776401849 773.397724719 738.888200925 713.334106011 c 128,-1,16
 744 653.270487303 744 653.270487303 744 591 c 0,17,18
 744 466.419240917 744 466.419240917 724.059240612 351.376398294 c 0,19,20
 704.076698312 236.09250041 704.076698312 236.09250041 672.082874645 150.947647103 c 0,21,22
 640.429902024 66.7098973856 640.429902024 66.7098973856 602.067669595 -6.43409244514 c 0,23,24
 563.237076399 -80.4710901394 563.237076399 -80.4710901394 523.950383275 -129.710412188 c 0,25,26
 504.915774612 -153.567121712 504.915774612 -153.567121712 487.488770497 -174.174302654 c 128,-1,27
 470.061766381 -194.781483596 470.061766381 -194.781483596 454.168675317 -212.212615731 c 0,28,29
 421.515351534 -248.02593859 421.515351534 -248.02593859 400.297474953 -264.776893785 c 2,30,-1
 380 -280 l 1,31,-1
 372 -286 l 1,32,-1
 362 -286 l 1,33,-1
 170 -286 l 1,34,-1
 76.3860483977 -286 l 1,35,-1
 152.562854188 -231.587995864 l 2,36,37
 153.993846084 -230.565858795 153.993846084 -230.565858795 155.887429639 -229.143230093 c 128,-1,38
 157.781013193 -227.720601391 157.781013193 -227.720601391 160.104804408 -225.921414888 c 128,-1,39
 162.428595622 -224.122228385 162.428595622 -224.122228385 165.240516374 -221.892889622 c 128,-1,40
 168.052437126 -219.663550859 168.052437126 -219.663550859 171.149886787 -217.161764594 c 0,41,42
 176.275327874 -213.021985255 176.275327874 -213.021985255 188.950834998 -200.98461813 c 128,-1,43
 201.626342123 -188.947251006 201.626342123 -188.947251006 219.286796564 -171.286796564 c 0,44,45
 255.356307725 -135.217285404 255.356307725 -135.217285404 287.630823327 -92.8268768515 c 128,-1,46
 319.886466029 -50.4612565872 319.886466029 -50.4612565872 360.376497861 21.2500046093 c 0,47,48
 380.505960318 56.9009802876 380.505960318 56.9009802876 397.732613515 94.5084665931 c 128,-1,49
 414.959266712 132.115952899 414.959266712 132.115952899 429.291069492 171.710594478 c 0,50,51
 457.932239079 250.837893507 457.932239079 250.837893507 477.981815152 361.355068933 c 128,-1,52
 498 471.699209803 498 471.699209803 498 591 c 128,-1,53
 498 710.419240917 498 710.419240917 478.940759388 820.376398294 c 0,54,55
 459.950656995 929.934681332 459.950656995 929.934681332 429.030326987 1009.65115713 c 0,56,57
 413.338569159 1050.10647028 413.338569159 1050.10647028 396.205228081 1087.79981236 c 128,-1,58
 379.071887002 1125.49315443 379.071887002 1125.49315443 360.508927345 1160.42082852 c 0,59,60
 323.860464377 1229.37780489 323.860464377 1229.37780489 287.671099192 1274.13833552 c 0,61,62
 275.233008518 1289.52228977 275.233008518 1289.52228977 263.443899277 1303.43847254 c 128,-1,63
 251.654790037 1317.3546553 251.654790037 1317.3546553 240.639191684 1329.66608542 c 128,-1,64
 229.62359333 1341.97751554 229.62359333 1341.97751554 219.306685742 1352.77802817 c 0,65,66
 189.177580946 1384.31943475 189.177580946 1384.31943475 171.693814125 1398.22963941 c 2,67,-1
 152 1413 l 1,68,-1
 80 1467 l 1,69,-1
 170 1467 l 1,70,-1
 362 1467 l 1,71,-1
 371.613951602 1467 l 1,72,-1
 379.437145812 1461.41200414 l 2,0,1
EndSplineSet
EndChar

StartChar: asterisk
Encoding: 42 42 13
Width: 1024
GlyphClass: 2
Flags: W
LayerCount: 2
Fore
SplineSet
439 1310 m 1,0,-1
 585 1310 l 1,1,-1
 615.343828315 1310 l 1,2,-1
 614.998052154 1279.65814186 l 1,3,-1
 611.479010879 970.862270032 l 1,4,-1
 905.462086342 1069.44342109 l 1,5,-1
 934.204394869 1079.08156047 l 1,6,-1
 943.54156629 1050.24007542 l 1,7,-1
 988.54156629 911.240075418 l 1,8,-1
 997.868520035 882.430151626 l 1,9,-1
 968.972574847 873.373213582 l 1,10,-1
 674.307760728 781.015585276 l 1,11,-1
 859.06129331 532.91798438 l 1,12,-1
 877.164515086 508.60794371 l 1,13,-1
 852.669575085 490.755699302 l 1,14,-1
 734.669575085 404.755699302 l 1,15,-1
 710.152254143 386.887143362 l 1,16,-1
 692.559358815 411.603015823 l 1,17,-1
 512 665.266895524 l 1,18,-1
 331.440641185 411.603015823 l 1,19,-1
 313.847745857 386.887143362 l 1,20,-1
 289.330424915 404.755699302 l 1,21,-1
 171.330424915 490.755699302 l 1,22,-1
 146.835484914 508.60794371 l 1,23,-1
 164.93870669 532.91798438 l 1,24,-1
 349.692239272 781.015585276 l 1,25,-1
 55.0274251526 873.373213582 l 1,26,-1
 26.1314799647 882.430151626 l 1,27,-1
 35.4584337102 911.240075418 l 1,28,-1
 80.4584337102 1050.24007542 l 1,29,-1
 89.7956051307 1079.08156047 l 1,30,-1
 118.537913658 1069.44342109 l 1,31,-1
 412.520989121 970.862270032 l 1,32,-1
 409.001947846 1279.65814186 l 1,33,-1
 408.656171685 1310 l 1,34,-1
 439 1310 l 1,0,-1
EndSplineSet
EndChar

StartChar: plus
Encoding: 43 43 14
Width: 1024
GlyphClass: 2
Flags: W
LayerCount: 2
Fore
SplineSet
427 1118 m 1,0,-1
 597 1118 l 1,1,-1
 627 1118 l 1,2,-1
 627 1088 l 1,3,-1
 627 749 l 1,4,-1
 960 749 l 1,5,-1
 990 749 l 1,6,-1
 990 719 l 1,7,-1
 990 561 l 1,8,-1
 990 531 l 1,9,-1
 960 531 l 1,10,-1
 627 531 l 1,11,-1
 627 192 l 1,12,-1
 627 162 l 1,13,-1
 597 162 l 1,14,-1
 427 162 l 1,15,-1
 397 162 l 1,16,-1
 397 192 l 1,17,-1
 397 531 l 1,18,-1
 64 531 l 1,19,-1
 34 531 l 1,20,-1
 34 561 l 1,21,-1
 34 719 l 1,22,-1
 34 749 l 1,23,-1
 64 749 l 1,24,-1
 397 749 l 1,25,-1
 397 1088 l 1,26,-1
 397 1118 l 1,27,-1
 427 1118 l 1,0,-1
EndSplineSet
EndChar

StartChar: comma
Encoding: 44 44 15
Width: 1024
GlyphClass: 2
Flags: W
LayerCount: 2
Fore
SplineSet
384 446 m 1,0,-1
 640 446 l 1,1,-1
 670 446 l 1,2,-1
 670 416 l 1,3,-1
 670 160 l 2,4,5
 670 155.586496081 670 155.586496081 669.721021006 150.434043905 c 128,-1,6
 669.442042013 145.281591729 669.442042013 145.281591729 668.887217646 138.901111509 c 0,7,8
 668.247580801 131.545287792 668.247580801 131.545287792 666.368703873 120.056463027 c 128,-1,9
 664.489826945 108.567638263 664.489826945 108.567638263 660.981317356 89.945548904 c 0,10,11
 654.028887834 53.0441922139 654.028887834 53.0441922139 641.193802705 17.7477081074 c 0,12,13
 636.742015001 5.50529192227 636.742015001 5.50529192227 630.628385645 -7.75140757626 c 128,-1,14
 624.514756288 -21.0081070748 624.514756288 -21.0081070748 616.955931825 -34.9439189934 c 128,-1,15
 609.397107362 -48.8797309119 609.397107362 -48.8797309119 600.120268342 -64.1077496798 c 0,16,17
 585.948964278 -87.3700789935 585.948964278 -87.3700789935 569.207486251 -108.66523882 c 128,-1,18
 552.466008225 -129.960398646 552.466008225 -129.960398646 533.213203436 -149.213203436 c 2,19,-1
 405.213203436 -277.213203436 l 1,20,-1
 385.017633557 -297.408773314 l 1,21,-1
 363.854417258 -278.229608543 l 1,22,-1
 235.854417258 -162.229608543 l 1,23,-1
 212.504682086 -141.068911043 l 1,24,-1
 234.786796564 -118.786796564 l 1,25,-1
 362.786796564 9.2132034356 l 2,26,27
 418.239438717 64.6658455882 418.239438717 64.6658455882 448.933003362 105.91032308 c 0,28,29
 450.913783541 108.571996445 450.913783541 108.571996445 452.923169494 111.330328302 c 128,-1,30
 454.932555447 114.088660159 454.932555447 114.088660159 456.738476626 116.618318766 c 128,-1,31
 458.544397805 119.147977373 458.544397805 119.147977373 460.244870378 121.575557403 c 128,-1,32
 461.945342951 124.003137433 461.945342951 124.003137433 463.38326675 126.102363504 c 128,-1,33
 464.821190548 128.201589575 464.821190548 128.201589575 466.01961136 130 c 2,34,-1
 384 130 l 1,35,-1
 354 130 l 1,36,-1
 354 160 l 1,37,-1
 354 416 l 1,38,-1
 354 446 l 1,39,-1
 384 446 l 1,0,-1
EndSplineSet
EndChar

StartChar: hyphen
Encoding: 45 45 16
Width: 1024
GlyphClass: 2
Flags: W
LayerCount: 2
Fore
SplineSet
192 749 m 1,0,-1
 832 749 l 1,1,-1
 862 749 l 1,2,-1
 862 719 l 1,3,-1
 862 561 l 1,4,-1
 862 531 l 1,5,-1
 832 531 l 1,6,-1
 192 531 l 1,7,-1
 162 531 l 1,8,-1
 162 561 l 1,9,-1
 162 719 l 1,10,-1
 162 749 l 1,11,-1
 192 749 l 1,0,-1
EndSplineSet
EndChar

StartChar: period
Encoding: 46 46 17
Width: 1024
GlyphClass: 2
Flags: W
LayerCount: 2
Fore
SplineSet
640 -30 m 1,0,-1
 384 -30 l 1,1,-1
 354 -30 l 1,2,-1
 354 0 l 1,3,-1
 354 320 l 1,4,-1
 354 350 l 1,5,-1
 384 350 l 1,6,-1
 640 350 l 1,7,-1
 670 350 l 1,8,-1
 670 320 l 1,9,-1
 670 0 l 1,10,-1
 670 -30 l 1,11,-1
 640 -30 l 1,0,-1
EndSplineSet
EndChar

StartChar: slash
Encoding: 47 47 18
Width: 1024
GlyphClass: 2
Flags: W
LayerCount: 2
Fore
SplineSet
148.191818773 -247.628100908 m 1,0,-1
 640.191818773 1445.37189909 l 1,1,-1
 646.477126302 1467 l 1,2,-1
 669 1467 l 1,3,-1
 847 1467 l 1,4,-1
 886.982046612 1467 l 1,5,-1
 875.803617768 1428.61241373 l 1,6,-1
 382.803617768 -264.387586273 l 1,7,-1
 376.510103316 -286 l 1,8,-1
 354 -286 l 1,9,-1
 177 -286 l 1,10,-1
 137.040623054 -286 l 1,11,-1
 148.191818773 -247.628100908 l 1,0,-1
EndSplineSet
EndChar

StartChar: zero
Encoding: 48 48 19
Width: 1024
GlyphClass: 2
Flags: W
LayerCount: 2
Fore
SplineSet
200.951171875 1114.79589844 m 0,0,1
 325.854256989 1296 325.854256989 1296 572 1296 c 0,2,3
 612.68307783 1296 612.68307783 1296 650.876285464 1290.609375 c 128,-1,4
 689.068381052 1285.21972656 689.068381052 1285.21972656 724.376942286 1274.546875 c 0,5,6
 759.686615566 1264.34863281 759.686615566 1264.34863281 792.260656562 1249.1328125 c 0,7,8
 824.03125 1233.91601562 824.03125 1233.91601562 849.969726562 1213.80761719 c 128,-1,9
 875.907226562 1193.69921875 875.907226562 1193.69921875 899.223632812 1168.70410156 c 128,-1,10
 922.540039062 1143.70800781 922.540039062 1143.70800781 943.048828125 1113.97460938 c 0,11,12
 1064 938.615234375 1064 938.615234375 1064 639.5234375 c 128,-1,13
 1064 340.431640625 1064 340.431640625 943.048828125 165.072265625 c 0,14,15
 818.145743011 -16 818.145743011 -16 572 -16 c 128,-1,16
 325.854256989 -16 325.854256989 -16 200.951171875 165.204101562 c 0,17,18
 80 340.690429688 80 340.690429688 80 640 c 128,-1,19
 80 939.309570312 80 939.309570312 200.951171875 1114.79589844 c 0,0,1
673.406330206 1108.98730469 m 128,-1,21
 628.814411938 1139 628.814411938 1139 572 1139 c 0,22,23
 458.602481618 1139 458.602481618 1139 390.659828923 1013.90332031 c 0,24,25
 318 878.140625 318 878.140625 318 640 c 0,26,27
 318 520.393554688 318 520.393554688 335.605785239 426.728515625 c 0,28,29
 354.288152053 333.063476562 354.288152053 333.063476562 390.659828923 266.096679688 c 0,30,31
 458.602481618 141 458.602481618 141 572 141 c 0,32,33
 609.728372555 141 609.728372555 141 641.457258862 153.755859375 c 128,-1,34
 673.186145169 166.51171875 673.186145169 166.51171875 701.384286557 194.432617188 c 128,-1,35
 729.58353999 222.354492188 729.58353999 222.354492188 753.340171077 266.096679688 c 0,36,37
 789.711847947 333.063476562 789.711847947 333.063476562 808.394214761 426.728515625 c 0,38,39
 826 520.393554688 826 520.393554688 826 640 c 0,40,41
 826 878.140625 826 878.140625 753.340171077 1013.90332031 c 0,42,20
 717.99936052 1078.97460938 717.99936052 1078.97460938 673.406330206 1108.98730469 c 128,-1,21
441.045504994 798 m 1,43,-1
 475.20754717 798 l 1,44,-1
 668.79245283 798 l 1,45,-1
 702.954495006 798 l 1,46,-1
 702.954495006 768 l 1,47,-1
 702.954495006 512 l 1,48,-1
 702.954495006 482 l 1,49,-1
 668.79245283 482 l 1,50,-1
 475.20754717 482 l 1,51,-1
 441.045504994 482 l 1,52,-1
 441.045504994 512 l 1,53,-1
 441.045504994 768 l 1,54,-1
 441.045504994 798 l 1,43,-1
EndSplineSet
EndChar

StartChar: one
Encoding: 49 49 20
Width: 1024
GlyphClass: 2
Flags: W
LayerCount: 2
Fore
SplineSet
542 1280 m 1,0,-1
 554.426757812 1280 l 1,1,-1
 724.426757812 1280 l 1,2,-1
 754.426757812 1280 l 1,3,-1
 754.426757812 1250 l 1,4,-1
 754.426757812 30 l 1,5,-1
 754.426757812 0 l 1,6,-1
 724.426757812 0 l 1,7,-1
 554.426757812 0 l 1,8,-1
 524.426757812 0 l 1,9,-1
 524.426757812 30 l 1,10,-1
 524.426757812 952.958007812 l 1,11,-1
 343.639648438 780.5078125 l 1,12,-1
 322.426757812 760.272460938 l 1,13,-1
 301.212890625 780.5078125 l 1,14,-1
 181.212890625 894.973632812 l 1,15,-1
 160 915.208984375 l 1,16,-1
 181.212890625 935.444335938 l 1,17,-1
 533.212890625 1271.21289062 l 1,18,-1
 542 1280 l 1,0,-1
EndSplineSet
EndChar

StartChar: two
Encoding: 50 50 21
Width: 1024
GlyphClass: 2
Flags: W
LayerCount: 2
Fore
SplineSet
254.234375 1215.80761719 m 0,0,1
 364.530273438 1296 364.530273438 1296 572 1296 c 0,2,3
 640.703687812 1296 640.703687812 1296 701.467546362 1283.77539062 c 128,-1,4
 762.231404913 1271.55078125 762.231404913 1271.55078125 808.233398438 1246.81738281 c 0,5,6
 853.024414062 1222.08300781 853.024414062 1222.08300781 889.765625 1185.16113281 c 0,7,8
 944.438476562 1130.21875 944.438476562 1130.21875 972.219726562 1062.88769531 c 128,-1,9
 1000 995.557617188 1000 995.557617188 1000 918 c 0,10,11
 1000 903.786132812 1000 903.786132812 998.5 889.444335938 c 128,-1,12
 997 875.1015625 997 875.1015625 994.04296875 860.809570312 c 128,-1,13
 991.0859375 846.518554688 991.0859375 846.518554688 986.673828125 832.177734375 c 0,14,15
 982.477539062 818.541992188 982.477539062 818.541992188 977.928710938 805.764648438 c 128,-1,16
 973.37890625 792.987304688 973.37890625 792.987304688 968.408203125 780.913085938 c 128,-1,17
 963.436523438 768.838867188 963.436523438 768.838867188 958.0859375 757.6015625 c 0,18,19
 941.936523438 723.688476562 941.936523438 723.688476562 904.87890625 672.016601562 c 0,20,21
 897.70703125 662.016601562 897.70703125 662.016601562 890.950195312 652.737304688 c 128,-1,22
 884.192382812 643.458007812 884.192382812 643.458007812 877.803710938 634.837890625 c 128,-1,23
 871.415039062 626.216796875 871.415039062 626.216796875 865.426757812 618.30078125 c 128,-1,24
 859.438476562 610.383789062 859.438476562 610.383789062 853.817382812 603.127929688 c 128,-1,25
 848.196289062 595.873046875 848.196289062 595.873046875 842.961914062 589.303710938 c 0,26,27
 817.0859375 556.833007812 817.0859375 556.833007812 760.623877162 490.833007812 c 2,28,-1
 435.048301534 157 l 1,29,-1
 986 157 l 1,30,-1
 1016 157 l 1,31,-1
 1016 136.625976562 l 1,32,-1
 1016 30 l 1,33,-1
 1016 0 l 1,34,-1
 986 0 l 1,35,-1
 158 0 l 1,36,-1
 128 0 l 1,37,-1
 128 30 l 1,38,-1
 128 187 l 1,39,-1
 128 197.809570312 l 1,40,-1
 134.89453125 206.134765625 l 1,41,-1
 563.596438681 689.103515625 l 2,42,43
 645.695423948 773.708007812 645.695423948 773.708007812 681.294626538 812.834960938 c 0,44,45
 692.509347695 825.161132812 692.509347695 825.161132812 703.147568206 838.728515625 c 128,-1,46
 713.786939417 852.294921875 713.786939417 852.294921875 723.940715273 867.25390625 c 128,-1,47
 734.094491129 882.211914062 734.094491129 882.211914062 743.641848141 898.416015625 c 0,48,49
 769.957203994 943.08203125 769.957203994 943.08203125 769.957203994 978 c 0,50,51
 769.957203994 1037.25292969 769.957203994 1037.25292969 713.959544401 1088.62890625 c 0,52,53
 659.058501805 1139 659.058501805 1139 572 1139 c 128,-1,54
 484.941498195 1139 484.941498195 1139 430.040455599 1088.62890625 c 0,55,56
 374.042796006 1037.25292969 374.042796006 1037.25292969 374.042796006 978 c 2,57,-1
 374.042796006 948 l 1,58,-1
 344 948 l 1,59,-1
 174 948 l 1,60,-1
 144 948 l 1,61,-1
 144 978 l 2,62,63
 144 1117.20117188 144 1117.20117188 254.234375 1215.80761719 c 0,0,1
EndSplineSet
EndChar

StartChar: three
Encoding: 51 51 22
Width: 1024
GlyphClass: 2
Flags: W
LayerCount: 2
Fore
SplineSet
184.116210938 1271.41699219 m 2,0,1
 267.029296875 1288 267.029296875 1288 404.466636405 1288 c 0,2,3
 706.852567876 1288 706.852567876 1288 855.580078125 1208.3828125 c 0,4,5
 1000 1124.5625 1000 1124.5625 1000 932.713867188 c 0,6,7
 1000 914.200195312 1000 914.200195312 997.8515625 896.603515625 c 128,-1,8
 995.704101562 879.006835938 995.704101562 879.006835938 991.328125 862.141601562 c 128,-1,9
 986.953125 845.276367188 986.953125 845.276367188 980.375976562 829.483398438 c 0,10,11
 970.626953125 806.073242188 970.626953125 806.073242188 958.44140625 787.17578125 c 128,-1,12
 946.255859375 768.279296875 946.255859375 768.279296875 931.212890625 753.912109375 c 0,13,14
 904.35546875 728.26171875 904.35546875 728.26171875 877.204101562 710.109375 c 0,15,16
 872.6875 707.08984375 872.6875 707.08984375 867.46875 703.807617188 c 1,17,18
 876.685546875 697.854492188 876.685546875 697.854492188 887.4375 690.51953125 c 0,19,20
 925.801757812 664.34765625 925.801757812 664.34765625 954.891601562 629.750976562 c 0,21,22
 961.052734375 622.422851562 961.052734375 622.422851562 966.889648438 614.076171875 c 128,-1,23
 972.7265625 605.729492188 972.7265625 605.729492188 978.13671875 596.576171875 c 128,-1,24
 983.546875 587.421875 983.546875 587.421875 988.719726562 577.18359375 c 128,-1,25
 993.892578125 566.9453125 993.892578125 566.9453125 998.701171875 555.96484375 c 128,-1,26
 1003.50878906 544.984375 1003.50878906 544.984375 1008.16601562 532.852539062 c 0,27,28
 1032 470.772460938 1032 470.772460938 1032 395.96484375 c 0,29,30
 1032 286.2109375 1032 286.2109375 991.471679688 206.731445312 c 0,31,32
 981.208007812 186.604492188 981.208007812 186.604492188 968.390625 168.428710938 c 128,-1,33
 955.573242188 150.252929688 955.573242188 150.252929688 940.32421875 134.173828125 c 128,-1,34
 925.075195312 118.094726562 925.075195312 118.094726562 907.395507812 104.111328125 c 128,-1,35
 889.715820312 90.1279296875 889.715820312 90.1279296875 869.7421875 78.3681640625 c 0,36,37
 792.19921875 32.7158203125 792.19921875 32.7158203125 671.827033626 12.599609375 c 0,38,39
 553.102026179 -8 553.102026179 -8 396.275079437 -8 c 0,40,41
 360.510742188 -8 360.510742188 -8 329.254882812 -6.9833984375 c 128,-1,42
 297.999023438 -5.966796875 297.999023438 -5.966796875 267.970703125 -3.931640625 c 0,43,44
 207.782226562 0.1494140625 207.782226562 0.1494140625 179.520507812 4.3359375 c 2,45,-1
 153.438476562 8.3486328125 l 1,46,-1
 128 12.2626953125 l 1,47,-1
 128 38 l 1,48,-1
 128 187 l 1,49,-1
 128 217 l 1,50,-1
 158 217 l 1,51,-1
 396.275079437 217 l 2,52,53
 603.875280158 217 603.875280158 217 709.567849594 262.161132812 c 0,54,55
 741.907814805 275.98046875 741.907814805 275.98046875 762.785542797 294.944335938 c 128,-1,56
 783.664413584 313.909179688 783.664413584 313.909179688 793.01953125 339.720703125 c 0,57,58
 802 365.532226562 802 365.532226562 802 399 c 0,59,60
 802 482.766601562 802 482.766601562 729.374778356 530.801757812 c 0,61,62
 690.558591977 555.560546875 690.558591977 555.560546875 636.284955884 568.280273438 c 128,-1,63
 582.012462587 581 582.012462587 581 510.956876986 581 c 2,64,-1
 318 581 l 1,65,-1
 288 581 l 1,66,-1
 288 611 l 1,67,-1
 288 768 l 1,68,-1
 288 798 l 1,69,-1
 318 798 l 1,70,-1
 496.914207898 798 l 2,71,72
 627.630566805 798 627.630566805 798 700.572907505 836.395507812 c 0,73,74
 767.235587835 871.485351562 767.235587835 871.485351562 767.235587835 930.94921875 c 0,75,76
 767.235587835 966.551757812 767.235587835 966.551757812 747.849207756 989.948242188 c 128,-1,77
 728.463970474 1013.34570312 728.463970474 1013.34570312 686.081119851 1028.76660156 c 0,78,79
 640.447016497 1045.37109375 640.447016497 1045.37109375 569.533137518 1054.18554688 c 128,-1,80
 498.619258539 1063 498.619258539 1063 404.466636405 1063 c 2,81,-1
 190 1063 l 1,82,-1
 160 1063 l 1,83,-1
 160 1093 l 1,84,-1
 160 1242 l 1,85,-1
 160 1266.59375 l 1,86,-1
 184.116210938 1271.41699219 l 2,0,1
EndSplineSet
EndChar

StartChar: four
Encoding: 52 52 23
Width: 1024
GlyphClass: 2
Flags: W
LayerCount: 2
Fore
SplineSet
650.188871157 1280 m 1,0,-1
 669.109197382 1280 l 1,1,-1
 890 1280 l 1,2,-1
 920 1280 l 1,3,-1
 920 1250 l 1,4,-1
 920 443 l 1,5,-1
 1050 443 l 1,6,-1
 1080 443 l 1,7,-1
 1080 413 l 1,8,-1
 1080 256 l 1,9,-1
 1080 226 l 1,10,-1
 1050 226 l 1,11,-1
 920 226 l 1,12,-1
 920 30 l 1,13,-1
 920 0 l 1,14,-1
 890 0 l 1,15,-1
 705.242852222 0 l 1,16,-1
 671.36755081 0 l 1,17,-1
 671.36755081 30 l 1,18,-1
 671.36755081 226 l 1,19,-1
 94 226 l 1,20,-1
 64 226 l 1,21,-1
 64 255.158203125 l 1,22,-1
 64 407.755859375 l 1,23,-1
 64 416.014648438 l 1,24,-1
 68.4560546875 423.046875 l 1,25,-1
 640.265569158 1265.73242188 l 1,26,-1
 650.188871157 1280 l 1,0,-1
352.572514559 443 m 1,27,-1
 671.36755081 443 l 1,28,-1
 671.36755081 901.970703125 l 1,29,-1
 352.572514559 443 l 1,27,-1
EndSplineSet
EndChar

StartChar: five
Encoding: 53 53 24
Width: 1024
GlyphClass: 2
Flags: W
LayerCount: 2
Fore
SplineSet
954 1123 m 1,0,-1
 392.764412165 1123 l 1,1,-1
 392.764412165 827 l 1,2,-1
 570.638220608 827 l 2,3,4
 684.08694199 827 684.08694199 827 775.757412655 803.370117188 c 0,5,6
 855.618164062 779.741210938 855.618164062 779.741210938 913.9453125 731.868164062 c 0,7,8
 972.703125 683.640625 972.703125 683.640625 1002.3515625 617.288085938 c 128,-1,9
 1032 550.934570312 1032 550.934570312 1032 469.248046875 c 0,10,11
 1032 340.091796875 1032 340.091796875 992.237304688 247.045898438 c 0,12,13
 951.5 151.720703125 951.5 151.720703125 871.625 95.7998046875 c 0,14,15
 793.84375 41.3447265625 793.84375 41.3447265625 673.15153342 16.8525390625 c 0,16,17
 553.789988971 -8 553.789988971 -8 396.275079437 -8 c 0,18,19
 360.510742188 -8 360.510742188 -8 329.254882812 -6.9833984375 c 128,-1,20
 297.999023438 -5.966796875 297.999023438 -5.966796875 267.970703125 -3.931640625 c 0,21,22
 207.782226562 0.1494140625 207.782226562 0.1494140625 179.520507812 4.3359375 c 2,23,-1
 153.438476562 8.3486328125 l 1,24,-1
 128 12.2626953125 l 1,25,-1
 128 38 l 1,26,-1
 128 187 l 1,27,-1
 128 217 l 1,28,-1
 158 217 l 1,29,-1
 396.275079437 217 l 2,30,31
 601.553120035 217 601.553120035 217 705.928046449 275.946289062 c 0,32,33
 802 331.71875 802 331.71875 802 466.921875 c 0,34,35
 802 532.548828125 802 532.548828125 745.808175287 570.169921875 c 0,36,37
 683.478974871 610 683.478974871 610 570.638220608 610 c 2,38,-1
 190 610 l 1,39,-1
 160 610 l 1,40,-1
 160 638.65625 l 1,41,-1
 160 1250 l 1,42,-1
 160 1280 l 1,43,-1
 190 1280 l 1,44,-1
 954 1280 l 1,45,-1
 984 1280 l 1,46,-1
 984 1250 l 1,47,-1
 984 1143.37402344 l 1,48,-1
 984 1123 l 1,49,-1
 954 1123 l 1,0,-1
EndSplineSet
EndChar

StartChar: six
Encoding: 54 54 25
Width: 1024
GlyphClass: 2
Flags: W
LayerCount: 2
Fore
SplineSet
551.419933748 1280 m 1,0,-1
 572 1280 l 1,1,-1
 796 1280 l 1,2,-1
 846.875976562 1280 l 1,3,-1
 822.251953125 1238.17285156 l 1,4,-1
 537.50684145 813.640625 l 1,5,6
 554.497348058 814 554.497348058 814 572 814 c 0,7,8
 799.426757812 814 799.426757812 814 915.712890625 701.76953125 c 128,-1,9
 1032 589.5390625 1032 589.5390625 1032 399 c 128,-1,10
 1032 208.4609375 1032 208.4609375 915.712890625 96.23046875 c 128,-1,11
 799.426757812 -16 799.426757812 -16 572 -16 c 128,-1,12
 344.573242188 -16 344.573242188 -16 228.287109375 95.08203125 c 128,-1,13
 112 206.1640625 112 206.1640625 112 394.75390625 c 0,14,15
 112 565.407226562 112 565.407226562 163.702148438 655.952148438 c 2,16,-1
 541.466599273 1264.50976562 l 1,17,-1
 551.419933748 1280 l 1,0,-1
742.112876717 537.37109375 m 0,18,19
 680.324983717 597 680.324983717 597 572 597 c 0,20,21
 435.88062785 597 435.88062785 597 388.066012742 550.34375 c 0,22,23
 342 502.890625 342 502.890625 342 369 c 0,24,25
 342 260.901367188 342 260.901367188 401.887123283 200.62890625 c 0,26,27
 463.675016283 141 463.675016283 141 572 141 c 128,-1,28
 680.324983717 141 680.324983717 141 742.112876717 200.62890625 c 0,29,30
 802 260.901367188 802 260.901367188 802 369 c 128,-1,31
 802 477.098632812 802 477.098632812 742.112876717 537.37109375 c 0,18,19
EndSplineSet
EndChar

StartChar: seven
Encoding: 55 55 26
Width: 1024
GlyphClass: 2
Flags: W
LayerCount: 2
Fore
SplineSet
1048 1280 m 1,0,-1
 1048 1250 l 1,1,-1
 1048 1100.29980469 l 1,2,-1
 1048 1095.171875 l 1,3,-1
 1046.13183594 1090.36328125 l 1,4,-1
 604.346553667 19.5791015625 l 1,5,-1
 596.006988489 -0 l 1,6,-1
 572 0 l 1,7,-1
 363.882540951 0 l 1,8,-1
 317.89453125 0 l 1,9,-1
 332.868164062 40.4208984375 l 1,10,-1
 792.644211321 1123 l 1,11,-1
 126 1123 l 1,12,-1
 96 1123 l 1,13,-1
 96 1143.37402344 l 1,14,-1
 96 1250 l 1,15,-1
 96 1280 l 1,16,-1
 126 1280 l 1,17,-1
 1018 1280 l 1,18,-1
 1048 1280 l 1,0,-1
EndSplineSet
EndChar

StartChar: eight
Encoding: 56 56 27
Width: 1024
GlyphClass: 2
Flags: W
LayerCount: 2
Fore
SplineSet
119.428710938 903.551757812 m 128,-1,1
 112 929.3203125 112 929.3203125 112 955.568359375 c 0,2,3
 112 1113.60449219 112 1113.60449219 230.561523438 1205.88769531 c 0,4,5
 349.188310731 1296 349.188310731 1296 572 1296 c 0,6,7
 603.282956004 1296 603.282956004 1296 632.80887989 1294.13476562 c 128,-1,8
 662.334803777 1292.26953125 662.334803777 1292.26953125 690.358353999 1288.48828125 c 128,-1,9
 718.383016267 1284.70800781 718.383016267 1284.70800781 744.585035724 1279.02441406 c 0,10,11
 770.788167227 1273.59375 770.788167227 1273.59375 795.397737323 1266.25878906 c 0,12,13
 819.791992188 1258.92480469 819.791992188 1258.92480469 839.75 1249.74023438 c 128,-1,14
 859.708007812 1240.55566406 859.708007812 1240.55566406 878.1875 1229.39453125 c 128,-1,15
 896.66796875 1218.23339844 896.66796875 1218.23339844 913.438476562 1205.1875 c 0,16,17
 972.318359375 1159.38378906 972.318359375 1159.38378906 1002.15917969 1096.11230469 c 128,-1,18
 1032 1032.83984375 1032 1032.83984375 1032 955.01171875 c 0,19,20
 1032 902.793945312 1032 902.793945312 1003.84765625 853.375976562 c 0,21,22
 990.40234375 829.7734375 990.40234375 829.7734375 973.850585938 809.700195312 c 128,-1,23
 957.298828125 789.627929688 957.298828125 789.627929688 937.708984375 773.3125 c 0,24,25
 901.508789062 743.163085938 901.508789062 743.163085938 865.204101562 718.875 c 0,26,27
 845.411132812 705.633789062 845.411132812 705.633789062 827.734375 695.794921875 c 1,28,29
 846.139648438 684.216796875 846.139648438 684.216796875 875.036132812 664.321289062 c 0,30,31
 891.169921875 653.212890625 891.169921875 653.212890625 906.109375 641.758789062 c 128,-1,32
 921.047851562 630.303710938 921.047851562 630.303710938 934.885742188 618.419921875 c 128,-1,33
 948.72265625 606.53515625 948.72265625 606.53515625 961.359375 594.291015625 c 0,34,35
 1000.62792969 556.240234375 1000.62792969 556.240234375 1031.73828125 497.798828125 c 0,36,37
 1064 437.1953125 1064 437.1953125 1064 374.889648438 c 0,38,39
 1064 193.672851562 1064 193.672851562 937.754882812 88.099609375 c 0,40,41
 812.583290701 -16 812.583290701 -16 572 -16 c 128,-1,42
 331.416709299 -16 331.416709299 -16 206.245117188 88.1591796875 c 0,43,44
 80 193.79296875 80 193.79296875 80 375.11328125 c 0,45,46
 80 437.295898438 80 437.295898438 111.120117188 497.344726562 c 0,47,48
 126.1640625 526.375 126.1640625 526.375 144.520507812 551.081054688 c 128,-1,49
 162.876953125 575.786132812 162.876953125 575.786132812 184.560546875 595.99609375 c 0,50,51
 225.383789062 634.045898438 225.383789062 634.045898438 266.35546875 663.801757812 c 0,52,53
 279.538085938 673.376953125 279.538085938 673.376953125 292.245117188 681.88671875 c 128,-1,54
 304.951171875 690.396484375 304.951171875 690.396484375 315.630859375 696.84375 c 1,55,56
 300.758789062 705.603515625 300.758789062 705.603515625 280.5 718.361328125 c 0,57,58
 237.469726562 745.458984375 237.469726562 745.458984375 204.180664062 774.765625 c 0,59,60
 186.494140625 790.336914062 186.494140625 790.336914062 170.815429688 809.93359375 c 128,-1,61
 155.13671875 829.530273438 155.13671875 829.530273438 141.330078125 853.087890625 c 0,62,0
 126.856445312 877.783203125 126.856445312 877.783203125 119.428710938 903.551757812 c 128,-1,1
400.903993393 1099.31445312 m 0,63,64
 344.253052164 1062.8046875 344.253052164 1062.8046875 344.253052164 1000 c 0,65,66
 344.253052164 987.356445312 344.253052164 987.356445312 349.179414366 974.747070312 c 128,-1,67
 354.105776568 962.138671875 354.105776568 962.138671875 364.818112254 948.728515625 c 0,68,69
 387.965342328 919.751953125 387.965342328 919.751953125 421.470165528 899.848632812 c 0,70,71
 440.16587689 888.7421875 440.16587689 888.7421875 458.821554609 878.744140625 c 128,-1,72
 477.477232329 868.745117188 477.477232329 868.745117188 496.090652313 859.8515625 c 0,73,74
 514.065758099 851.262695312 514.065758099 851.262695312 529.33859297 844.78515625 c 128,-1,75
 544.611427841 838.30859375 544.611427841 838.30859375 556.312372104 834.21484375 c 2,76,-1
 571.135940535 829.875976562 l 1,77,-1
 571.510699917 830 l 2,78,79
 573.490141163 830.65625 573.490141163 830.65625 574.152920366 830.874023438 c 0,80,81
 583.060405973 833.807617188 583.060405973 833.807617188 609.550445252 843.984375 c 0,82,83
 635.795834489 854.068359375 635.795834489 854.068359375 659.799339709 865.086914062 c 0,84,85
 671.306788031 870.369140625 671.306788031 870.369140625 684.31327388 877.31640625 c 128,-1,86
 697.319759729 884.263671875 697.319759729 884.263671875 711.658476259 892.81640625 c 0,87,88
 725.507892706 901.077148438 725.507892706 901.077148438 737.228853791 909.448242188 c 128,-1,89
 748.949814876 917.818359375 748.949814876 917.818359375 758.510071275 926.212890625 c 0,90,91
 764.468411834 931.4453125 764.468411834 931.4453125 769.783990011 937.208007812 c 128,-1,92
 775.100680234 942.969726562 775.100680234 942.969726562 779.863571726 949.384765625 c 128,-1,93
 784.627575264 955.80078125 784.627575264 955.80078125 788.796634382 962.840820312 c 0,94,95
 794.434705796 972.36328125 794.434705796 972.36328125 797.091382839 981.512695312 c 128,-1,96
 799.746947836 990.661132812 799.746947836 990.661132812 799.746947836 1000 c 0,97,98
 799.746947836 1062.8046875 799.746947836 1062.8046875 743.096006607 1099.31445312 c 0,99,100
 681.51536704 1139 681.51536704 1139 572 1139 c 128,-1,101
 462.48463296 1139 462.48463296 1139 400.903993393 1099.31445312 c 0,63,64
589.360144544 622.39453125 m 2,102,-1
 571.497355369 629.366210938 l 2,103,104
 570.166236733 628.876953125 570.166236733 628.876953125 568.745042401 628.350585938 c 0,105,106
 564.554854415 626.801757812 564.554854415 626.801757812 554.043798991 622.314453125 c 128,-1,107
 543.531631521 617.827148438 543.531631521 617.827148438 528.853741069 611.264648438 c 0,108,109
 513.884494659 604.573242188 513.884494659 604.573242188 499.77263544 597.541992188 c 128,-1,110
 485.660776221 590.51171875 485.660776221 590.51171875 472.405192148 583.147460938 c 0,111,112
 446.13422586 568.551757812 446.13422586 568.551757812 412.904077934 545.111328125 c 0,113,114
 396.678219947 533.665039062 396.678219947 533.665039062 382.995610346 522.2265625 c 128,-1,115
 369.3118887 510.788085938 369.3118887 510.788085938 358.196992491 499.438476562 c 0,116,117
 347.647015469 488.666015625 347.647015469 488.666015625 338.574947107 475.896484375 c 128,-1,118
 329.5017667 463.126953125 329.5017667 463.126953125 322.380859375 448.240234375 c 0,119,120
 316.094726562 434.202148438 316.094726562 434.202148438 313.047851562 420.489257812 c 128,-1,121
 310 406.775390625 310 406.775390625 310 393 c 0,122,123
 310 365.306640625 310 365.306640625 316.489257812 342.380859375 c 128,-1,124
 322.977539062 319.456054688 322.977539062 319.456054688 337.406187136 300.66015625 c 0,125,126
 352.219747156 281.864257812 352.219747156 281.864257812 375.063388769 266.072265625 c 0,127,128
 410.004974941 241.916015625 410.004974941 241.916015625 458.949439858 229.458007812 c 128,-1,129
 507.895016822 217 507.895016822 217 572 217 c 0,130,131
 697.953625746 217 697.953625746 217 768.936611231 266.072265625 c 0,132,133
 834 312.563476562 834 312.563476562 834 393 c 0,134,135
 834 430.690429688 834 430.690429688 810.30915736 468.565429688 c 0,136,137
 805.665254752 475.362304688 805.665254752 475.362304688 800.715539591 481.779296875 c 128,-1,138
 795.766936477 488.196289062 795.766936477 488.196289062 790.516968993 494.227539062 c 128,-1,139
 785.267001509 500.259765625 785.267001509 500.259765625 779.71455761 505.91796875 c 128,-1,140
 774.16211371 511.577148438 774.16211371 511.577148438 768.292736803 516.875976562 c 128,-1,141
 762.423359895 522.173828125 762.423359895 522.173828125 756.257066801 527.10546875 c 128,-1,142
 750.090773706 532.037109375 750.090773706 532.037109375 743.590866919 536.6328125 c 0,143,144
 722.439758775 551.588867188 722.439758775 551.588867188 701.354261324 564.815429688 c 128,-1,145
 680.268763873 578.041015625 680.268763873 578.041015625 659.261109618 589.541015625 c 0,146,147
 617.897459854 612.184570312 617.897459854 612.184570312 589.360144544 622.39453125 c 2,102,-1
EndSplineSet
EndChar

StartChar: nine
Encoding: 57 57 28
Width: 1024
GlyphClass: 2
Flags: W
LayerCount: 2
Fore
SplineSet
592.580066252 -0 m 1,0,-1
 572 0 l 1,1,-1
 348 0 l 1,2,-1
 297.124023438 0 l 1,3,-1
 321.748046875 41.8271484375 l 1,4,-1
 606.49315855 466.359375 l 1,5,6
 589.502651942 466 589.502651942 466 572 466 c 0,7,8
 344.573242188 466 344.573242188 466 228.287109375 578.23046875 c 128,-1,9
 112 690.4609375 112 690.4609375 112 881 c 128,-1,10
 112 1071.5390625 112 1071.5390625 228.287109375 1183.76953125 c 128,-1,11
 344.573242188 1296 344.573242188 1296 572 1296 c 128,-1,12
 799.426757812 1296 799.426757812 1296 915.712890625 1184.91796875 c 128,-1,13
 1032 1073.8359375 1032 1073.8359375 1032 885.24609375 c 0,14,15
 1032 800.330078125 1032 800.330078125 1019.41894531 735.428710938 c 128,-1,16
 1006.83789062 670.52734375 1006.83789062 670.52734375 980.297851562 624.047851562 c 2,17,-1
 602.533400727 15.490234375 l 1,18,-1
 592.580066252 -0 l 1,0,-1
401.887123283 742.62890625 m 0,19,20
 463.675016283 683 463.675016283 683 572 683 c 0,21,22
 708.11937215 683 708.11937215 683 755.933987258 729.65625 c 0,23,24
 802 777.109375 802 777.109375 802 911 c 0,25,26
 802 1019.09863281 802 1019.09863281 742.112876717 1079.37109375 c 0,27,28
 680.324983717 1139 680.324983717 1139 572 1139 c 0,29,30
 516.455510645 1139 516.455510645 1139 474.629929881 1124.10351562 c 128,-1,31
 432.804349117 1109.20800781 432.804349117 1109.20800781 401.887123283 1079.37109375 c 0,32,33
 381.312734918 1059.51464844 381.312734918 1059.51464844 367.574521514 1034.91210938 c 0,34,35
 354.385742188 1010.30957031 354.385742188 1010.30957031 348.192382812 979.201171875 c 128,-1,36
 342 948.09375 342 948.09375 342 911 c 0,37,38
 342 802.901367188 342 802.901367188 401.887123283 742.62890625 c 0,19,20
EndSplineSet
EndChar

StartChar: colon
Encoding: 58 58 29
Width: 1024
GlyphClass: 2
Flags: W
LayerCount: 2
Fore
SplineSet
384 1214 m 1,0,-1
 640 1214 l 1,1,-1
 670 1214 l 1,2,-1
 670 1184 l 1,3,-1
 670 864 l 1,4,-1
 670 834 l 1,5,-1
 640 834 l 1,6,-1
 384 834 l 1,7,-1
 354 834 l 1,8,-1
 354 864 l 1,9,-1
 354 1184 l 1,10,-1
 354 1214 l 1,11,-1
 384 1214 l 1,0,-1
384 446 m 1,12,-1
 640 446 l 1,13,-1
 670 446 l 1,14,-1
 670 416 l 1,15,-1
 670 96 l 1,16,-1
 670 66 l 1,17,-1
 640 66 l 1,18,-1
 384 66 l 1,19,-1
 354 66 l 1,20,-1
 354 96 l 1,21,-1
 354 416 l 1,22,-1
 354 446 l 1,23,-1
 384 446 l 1,12,-1
EndSplineSet
EndChar

StartChar: semicolon
Encoding: 59 59 30
Width: 1024
GlyphClass: 2
Flags: W
LayerCount: 2
Fore
SplineSet
384 1214 m 1,0,-1
 640 1214 l 1,1,-1
 670 1214 l 1,2,-1
 670 1184 l 1,3,-1
 670 864 l 1,4,-1
 670 834 l 1,5,-1
 640 834 l 1,6,-1
 384 834 l 1,7,-1
 354 834 l 1,8,-1
 354 864 l 1,9,-1
 354 1184 l 1,10,-1
 354 1214 l 1,11,-1
 384 1214 l 1,0,-1
384 446 m 1,12,-1
 640 446 l 1,13,-1
 670 446 l 1,14,-1
 670 416 l 1,15,-1
 670 160 l 2,16,17
 670 155.586496081 670 155.586496081 669.721021006 150.434043905 c 128,-1,18
 669.442042013 145.281591729 669.442042013 145.281591729 668.887217646 138.901111509 c 0,19,20
 668.247580801 131.545287792 668.247580801 131.545287792 666.368703873 120.056463027 c 128,-1,21
 664.489826945 108.567638263 664.489826945 108.567638263 660.981317356 89.945548904 c 0,22,23
 654.028887834 53.0441922139 654.028887834 53.0441922139 641.193802705 17.7477081074 c 0,24,25
 636.742015001 5.50529192227 636.742015001 5.50529192227 630.628385645 -7.75140757626 c 128,-1,26
 624.514756288 -21.0081070748 624.514756288 -21.0081070748 616.955931825 -34.9439189934 c 128,-1,27
 609.397107362 -48.8797309119 609.397107362 -48.8797309119 600.120268342 -64.1077496798 c 0,28,29
 585.948964278 -87.3700789935 585.948964278 -87.3700789935 569.207486251 -108.66523882 c 128,-1,30
 552.466008225 -129.960398646 552.466008225 -129.960398646 533.213203436 -149.213203436 c 2,31,-1
 405.213203436 -277.213203436 l 1,32,-1
 385.017633557 -297.408773314 l 1,33,-1
 363.854417258 -278.229608543 l 1,34,-1
 235.854417258 -162.229608543 l 1,35,-1
 212.504682086 -141.068911043 l 1,36,-1
 234.786796564 -118.786796564 l 1,37,-1
 362.786796564 9.2132034356 l 2,38,39
 418.239438717 64.6658455882 418.239438717 64.6658455882 448.933003362 105.91032308 c 0,40,41
 450.913783541 108.571996445 450.913783541 108.571996445 452.923169494 111.330328302 c 128,-1,42
 454.932555447 114.088660159 454.932555447 114.088660159 456.738476626 116.618318766 c 128,-1,43
 458.544397805 119.147977373 458.544397805 119.147977373 460.244870378 121.575557403 c 128,-1,44
 461.945342951 124.003137433 461.945342951 124.003137433 463.38326675 126.102363504 c 128,-1,45
 464.821190548 128.201589575 464.821190548 128.201589575 466.01961136 130 c 2,46,-1
 384 130 l 1,47,-1
 354 130 l 1,48,-1
 354 160 l 1,49,-1
 354 416 l 1,50,-1
 354 446 l 1,51,-1
 384 446 l 1,12,-1
EndSplineSet
EndChar

StartChar: less
Encoding: 60 60 31
Width: 1024
GlyphClass: 2
Flags: W
LayerCount: 2
Fore
SplineSet
861.229620274 1183.23164381 m 1,0,-1
 953.229620274 1040.23164381 l 1,1,-1
 969.46287793 1014.99951506 l 1,2,-1
 944.229135381 998.768766087 l 1,3,-1
 386.455819356 640 l 1,4,-1
 944.229135381 281.231233913 l 1,5,-1
 969.46287793 265.000484937 l 1,6,-1
 953.229620274 239.768356188 l 1,7,-1
 861.229620274 96.7683561876 l 1,8,-1
 844.999278308 71.5407594369 l 1,9,-1
 819.770379844 87.7690779085 l 1,10,-1
 79.7703798438 563.769077909 l 1,11,-1
 66 572.6267817 l 1,12,-1
 66 589 l 1,13,-1
 66 691 l 1,14,-1
 66 707.3732183 l 1,15,-1
 79.7703798438 716.230922091 l 1,16,-1
 819.770379844 1192.23092209 l 1,17,-1
 844.999278308 1208.45924056 l 1,18,-1
 861.229620274 1183.23164381 l 1,0,-1
EndSplineSet
EndChar

StartChar: equal
Encoding: 61 61 32
Width: 1024
GlyphClass: 2
Flags: W
LayerCount: 2
Fore
SplineSet
96 955 m 1,0,-1
 928 955 l 1,1,-1
 958 955 l 1,2,-1
 958 925 l 1,3,-1
 958 768 l 1,4,-1
 958 738 l 1,5,-1
 928 738 l 1,6,-1
 96 738 l 1,7,-1
 66 738 l 1,8,-1
 66 768 l 1,9,-1
 66 925 l 1,10,-1
 66 955 l 1,11,-1
 96 955 l 1,0,-1
96 542 m 1,12,-1
 928 542 l 1,13,-1
 958 542 l 1,14,-1
 958 512 l 1,15,-1
 958 355 l 1,16,-1
 958 325 l 1,17,-1
 928 325 l 1,18,-1
 96 325 l 1,19,-1
 66 325 l 1,20,-1
 66 355 l 1,21,-1
 66 512 l 1,22,-1
 66 542 l 1,23,-1
 96 542 l 1,12,-1
EndSplineSet
EndChar

StartChar: greater
Encoding: 62 62 33
Width: 1024
GlyphClass: 2
Flags: W
LayerCount: 2
Fore
SplineSet
204.229620156 1192.23092209 m 1,0,-1
 944.229620156 716.230922091 l 1,1,-1
 958 707.3732183 l 1,2,-1
 958 691 l 1,3,-1
 958 589 l 1,4,-1
 958 572.6267817 l 1,5,-1
 944.229620156 563.769077909 l 1,6,-1
 204.229620156 87.7690779085 l 1,7,-1
 179.000721692 71.5407594369 l 1,8,-1
 162.770379726 96.7683561876 l 1,9,-1
 70.7703797264 239.768356188 l 1,10,-1
 54.5371220696 265.000484937 l 1,11,-1
 79.7708646187 281.231233913 l 1,12,-1
 637.544180644 640 l 1,13,-1
 79.7708646187 998.768766087 l 1,14,-1
 54.5371220696 1014.99951506 l 1,15,-1
 70.7703797264 1040.23164381 l 1,16,-1
 162.770379726 1183.23164381 l 1,17,-1
 179.000721692 1208.45924056 l 1,18,-1
 204.229620156 1192.23092209 l 1,0,-1
EndSplineSet
EndChar

StartChar: question
Encoding: 63 63 34
Width: 1024
GlyphClass: 2
Flags: W
LayerCount: 2
Fore
SplineSet
155.350966935 1301.63758579 m 2,0,1
 259.661357513 1318 259.661357513 1318 427 1318 c 0,2,3
 655.969335253 1318 655.969335253 1318 779.966745205 1236.57680806 c 0,4,5
 910 1151.19016435 910 1151.19016435 910 964 c 0,6,7
 910 813.61530772 910 813.61530772 799.784040976 725.108552747 c 0,8,9
 701.869547461 646.480247348 701.869547461 646.480247348 542 639.615030358 c 1,10,-1
 542 512 l 1,11,-1
 542 482 l 1,12,-1
 512 482 l 1,13,-1
 342 482 l 1,14,-1
 312 482 l 1,15,-1
 312 512 l 1,16,-1
 312 805 l 1,17,-1
 312 835 l 1,18,-1
 342 835 l 2,19,20
 516.308270238 835 516.308270238 835 605.012055067 869.91531956 c 0,21,22
 645.213100628 885.739135366 645.213100628 885.739135366 662.606550314 908.318630663 c 128,-1,23
 680 930.89812596 680 930.89812596 680 964 c 0,24,25
 680 1031.573628 680 1031.573628 624.435142051 1059.74192405 c 0,26,27
 558.830170304 1093 558.830170304 1093 427 1093 c 2,28,-1
 160 1093 l 1,29,-1
 130 1093 l 1,30,-1
 130 1123 l 1,31,-1
 130 1272 l 1,32,-1
 130 1297.66096353 l 1,33,-1
 155.350966935 1301.63758579 l 2,0,1
384 286 m 1,34,-1
 640 286 l 1,35,-1
 670 286 l 1,36,-1
 670 256 l 1,37,-1
 670 0 l 1,38,-1
 670 -30 l 1,39,-1
 640 -30 l 1,40,-1
 384 -30 l 1,41,-1
 354 -30 l 1,42,-1
 354 0 l 1,43,-1
 354 256 l 1,44,-1
 354 286 l 1,45,-1
 384 286 l 1,34,-1
EndSplineSet
EndChar

StartChar: at
Encoding: 64 64 35
Width: 1024
GlyphClass: 2
Flags: W
LayerCount: 2
Fore
SplineSet
586 1326 m 0,0,1
 676.67863179 1326 676.67863179 1326 749.911278195 1304.98227434 c 128,-1,2
 823.1439246 1283.96454868 823.1439246 1283.96454868 877.967038588 1241.14251437 c 0,3,4
 905.70198992 1219.47889567 905.70198992 1219.47889567 926.752373656 1193.42708624 c 128,-1,5
 947.802757393 1167.37527682 947.802757393 1167.37527682 961.813871008 1137.55824068 c 128,-1,6
 975.824984623 1107.74120454 975.824984623 1107.74120454 982.912492311 1074.23049243 c 128,-1,7
 990 1040.71978033 990 1040.71978033 990 1004 c 2,8,-1
 990 512 l 2,9,10
 990 417.711740451 990 417.711740451 949.879573776 376.954482065 c 128,-1,11
 909.565005493 336 909.565005493 336 814 336 c 2,12,-1
 627 336 l 2,13,14
 599.946997303 336 599.946997303 336 574.810412763 339.633913352 c 128,-1,15
 549.673828224 343.267826705 549.673828224 343.267826705 526.448233602 350.602950798 c 128,-1,16
 503.22263898 357.938074892 503.22263898 357.938074892 482.258435288 368.878631434 c 128,-1,17
 461.294231595 379.819187975 461.294231595 379.819187975 442.499681275 394.566364341 c 128,-1,18
 423.705130955 409.313540707 423.705130955 409.313540707 407.516944336 427.637668616 c 0,19,20
 328 517.646431996 328 517.646431996 328 670 c 0,21,22
 328 731.909183842 328 731.909183842 348.504051728 782.740033236 c 128,-1,23
 369.008103456 833.570882631 369.008103456 833.570882631 409.812146963 870.691227766 c 0,24,25
 450.394586811 907.609975128 450.394586811 907.609975128 505.118945794 925.804987564 c 128,-1,26
 559.843304777 944 559.843304777 944 627 944 c 2,27,-1
 784 944 l 1,28,-1
 784 1004 l 2,29,30
 784 1017.36518549 784 1017.36518549 781.332087798 1028.66060071 c 128,-1,31
 778.664175596 1039.95601594 778.664175596 1039.95601594 772.947940965 1050.04824654 c 128,-1,32
 767.231706335 1060.14047714 767.231706335 1060.14047714 758.307152573 1068.92293466 c 128,-1,33
 749.382598811 1077.70539218 749.382598811 1077.70539218 736.84014895 1085.72433554 c 0,34,35
 723.975191236 1093.94947244 723.975191236 1093.94947244 708.336018648 1100.24859242 c 128,-1,36
 692.696846061 1106.5477124 692.696846061 1106.5477124 673.964805919 1110.98431981 c 128,-1,37
 655.232765777 1115.42092722 655.232765777 1115.42092722 633.080774305 1117.71046361 c 128,-1,38
 610.928782832 1120 610.928782832 1120 586 1120 c 0,39,40
 422.58782893 1120 422.58782893 1120 336.596315531 1010.47396714 c 0,41,42
 248 897.630238942 248 897.630238942 248 640 c 0,43,44
 248 595.533912153 248 595.533912153 251.042288085 555.444912589 c 128,-1,45
 254.08457617 515.355913024 254.08457617 515.355913024 260.028820177 480.338710659 c 128,-1,46
 265.973064184 445.321508293 265.973064184 445.321508293 274.811675855 414.859864497 c 0,47,48
 281.392949976 392.177973333 281.392949976 392.177973333 289.525190751 371.99482486 c 128,-1,49
 297.657431526 351.811676388 297.657431526 351.811676388 307.22019907 334.347288282 c 128,-1,50
 316.782966614 316.882900177 316.782966614 316.882900177 327.671514718 301.984963019 c 128,-1,51
 338.560062821 287.087025861 338.560062821 287.087025861 350.901753987 274.522961881 c 0,52,53
 401.475137663 223.038346068 401.475137663 223.038346068 468.333181063 199.842698358 c 0,54,55
 537.056252799 176 537.056252799 176 631 176 c 2,56,-1
 896 176 l 1,57,-1
 926 176 l 1,58,-1
 926 146 l 1,59,-1
 926 8 l 1,60,-1
 926 -17.6216259075 l 1,61,-1
 900.693941615 -21.6305064438 l 2,62,63
 797.361513541 -38 797.361513541 -38 631 -38 c 0,64,65
 516.551844768 -38 516.551844768 -38 425.193607835 -16.7176834416 c 0,66,67
 332.058037924 4.97867091259 332.058037924 4.97867091259 254.638243889 55.3545642919 c 0,68,69
 176.360464331 106.288735922 176.360464331 106.288735922 124.408846281 185.555122225 c 0,70,71
 73.0541213728 263.910784971 73.0541213728 263.910784971 45.3344085455 378.973743877 c 0,72,73
 18 492.437326518 18 492.437326518 18 640 c 0,74,75
 18 789.271440406 18 789.271440406 43.2051034394 903.465990682 c 0,76,77
 68.7331763335 1019.12379032 68.7331763335 1019.12379032 115.655183107 1098.73303777 c 0,78,79
 163.413884153 1179.76184516 163.413884153 1179.76184516 235.649346412 1230.97355348 c 0,80,81
 307.160051181 1281.67144119 307.160051181 1281.67144119 394.014440542 1304.0510998 c 0,82,83
 479.197077032 1326 479.197077032 1326 586 1326 c 0,0,1
627 738 m 2,84,85
 604.906977943 738 604.906977943 738 589.063342758 733.095430604 c 128,-1,86
 573.219707572 728.190861208 573.219707572 728.190861208 562.278367859 719.014253706 c 0,87,88
 551.912106663 710.319970122 551.912106663 710.319970122 546.956053331 698.807249821 c 128,-1,89
 542 687.294529519 542 687.294529519 542 670 c 0,90,91
 542 653.504708427 542 653.504708427 543.716830604 638.979232902 c 128,-1,92
 545.433661208 624.453757378 545.433661208 624.453757378 548.742477097 612.368493835 c 128,-1,93
 552.051292987 600.283230292 552.051292987 600.283230292 556.647868095 590.339210171 c 128,-1,94
 561.244443203 580.395190049 561.244443203 580.395190049 567.23739757 572.179042933 c 0,95,96
 575.009972075 561.523094015 575.009972075 561.523094015 583.738962079 554.918639196 c 128,-1,97
 592.467952083 548.314184377 592.467952083 548.314184377 603.045776648 545.157092189 c 128,-1,98
 613.623601213 542 613.623601213 542 627 542 c 2,99,-1
 784 542 l 1,100,-1
 784 738 l 1,101,-1
 627 738 l 2,84,85
EndSplineSet
EndChar

StartChar: A
Encoding: 65 65 36
Width: 1024
GlyphClass: 2
Flags: W
LayerCount: 2
Fore
SplineSet
444.114843951 1280 m 1,0,-1
 468.988267588 1280 l 1,1,-1
 695.293089187 1280 l 1,2,-1
 720.165429486 1280 l 1,3,-1
 727.21037173 1258.49707031 l 1,4,-1
 1120.91210938 36.7451171875 l 1,5,-1
 1132.28027344 0 l 1,6,-1
 1092.140625 0 l 1,7,-1
 915.140625 0 l 1,8,-1
 892.723632812 0 l 1,9,-1
 886.353699499 21.4970703125 l 1,10,-1
 797.998878727 291 l 1,11,-1
 366.28139471 291 l 1,12,-1
 277.926573938 21.4970703125 l 1,13,-1
 271.556640625 -0 l 1,14,-1
 249.140625 0 l 1,15,-1
 72.140625 0 l 1,16,-1
 32 0 l 1,17,-1
 43.3681640625 36.7451171875 l 1,18,-1
 437.069901708 1258.49707031 l 1,19,-1
 444.114843951 1280 l 1,0,-1
582.608680086 920.986328125 m 1,20,-1
 582.140678387 923.475585938 l 1,21,-1
 581.672676688 920.986328125 l 1,22,-1
 581.341175485 919.225585938 l 1,23,-1
 580.780006781 917.51171875 l 1,24,-1
 436.958317969 478 l 1,25,-1
 727.321955468 478 l 1,26,-1
 583.500266657 917.51171875 l 1,27,-1
 582.939097953 919.225585938 l 1,28,-1
 582.608680086 920.986328125 l 1,20,-1
EndSplineSet
EndChar

StartChar: B
Encoding: 66 66 37
Width: 1024
GlyphClass: 2
Flags: W
LayerCount: 2
Fore
SplineSet
128 1280 m 1,0,-1
 158 1280 l 1,1,-1
 420.279650437 1280 l 2,2,3
 554.641683248 1280 554.641683248 1280 658.87290545 1259.33203125 c 0,4,5
 763.104127653 1239.61914062 763.104127653 1239.61914062 835.043945312 1198.95019531 c 0,6,7
 901.4375 1157.0859375 901.4375 1157.0859375 934.71875 1089.34765625 c 128,-1,8
 968 1021.61035156 968 1021.61035156 968 931.861328125 c 0,9,10
 968 913.372070312 968 913.372070312 965.8515625 895.798828125 c 128,-1,11
 963.704101562 878.225585938 963.704101562 878.225585938 959.328125 861.381835938 c 128,-1,12
 954.953125 844.5390625 954.953125 844.5390625 948.375976562 828.767578125 c 0,13,14
 938.626953125 805.388671875 938.626953125 805.388671875 926.44140625 786.516601562 c 128,-1,15
 914.255859375 767.64453125 914.255859375 767.64453125 899.212890625 753.296875 c 0,16,17
 872.35546875 727.680664062 872.35546875 727.680664062 845.204101562 709.551757812 c 2,18,-1
 842.877929688 708.010742188 l 1,19,20
 856.954101562 701.211914062 856.954101562 701.211914062 874.946289062 691.782226562 c 0,21,22
 923.703125 666.23046875 923.703125 666.23046875 961.92578125 632.341796875 c 0,23,24
 975.4921875 620.3125 975.4921875 620.3125 987.944335938 605.263671875 c 128,-1,25
 1000.39648438 590.21484375 1000.39648438 590.21484375 1011.40917969 572.802734375 c 128,-1,26
 1022.42285156 555.389648438 1022.42285156 555.389648438 1032.59863281 534.95703125 c 0,27,28
 1048.31738281 503.392578125 1048.31738281 503.392578125 1056.15917969 468.4921875 c 128,-1,29
 1064 433.590820312 1064 433.590820312 1064 395.825195312 c 0,30,31
 1064 287.88671875 1064 287.88671875 1022.76074219 210.25390625 c 0,32,33
 980.779296875 131.223632812 980.779296875 131.223632812 898.180664062 85.00390625 c 0,34,35
 818.830078125 40.6025390625 818.830078125 40.6025390625 697.59848773 20.5830078125 c 0,36,37
 578.625307233 0 578.625307233 0 420.279650437 0 c 2,38,-1
 158 0 l 1,39,-1
 128 0 l 1,40,-1
 128 30 l 1,41,-1
 128 1250 l 1,42,-1
 128 1280 l 1,0,-1
420.279650437 1123 m 2,43,-1
 358 1123 l 1,44,-1
 358 798 l 1,45,-1
 420.279650437 798 l 2,46,47
 567.792937051 798 567.792937051 798 650.822292447 846.076171875 c 0,48,49
 689.948655489 868.731445312 689.948655489 868.731445312 707.713968379 896.58984375 c 128,-1,50
 725.47815231 924.447265625 725.47815231 924.447265625 725.47815231 961.05078125 c 0,51,52
 725.47815231 1032.69726562 725.47815231 1032.69726562 650.960025554 1075.39550781 c 0,53,54
 624.030945205 1090.82617188 624.030945205 1090.82617188 589.973612086 1101.33300781 c 128,-1,55
 555.916278968 1111.83984375 555.916278968 1111.83984375 513.079024754 1117.41992188 c 128,-1,56
 470.240641581 1123 470.240641581 1123 420.279650437 1123 c 2,43,-1
420.279650437 581 m 2,57,-1
 358 581 l 1,58,-1
 358 157 l 1,59,-1
 420.279650437 157 l 2,60,61
 529.970522686 157 529.970522686 157 605.003455154 166.903320312 c 0,62,63
 629.328025027 170.114257812 629.328025027 170.114257812 651.935446902 175 c 128,-1,64
 674.541739817 179.885742188 674.541739817 179.885742188 695.161063319 186.342773438 c 128,-1,65
 715.779257861 192.798828125 715.779257861 192.798828125 734.736752399 200.880859375 c 0,66,67
 786.446502419 222.923828125 786.446502419 222.923828125 810.972027154 262.875 c 0,68,69
 834 304.395507812 834 304.395507812 834 369 c 0,70,71
 834 382.325195312 834 382.325195312 833.055664062 394.67578125 c 128,-1,72
 832.110351562 407.02734375 832.110351562 407.02734375 830.298828125 418.05859375 c 128,-1,73
 828.486328125 429.090820312 828.486328125 429.090820312 825.79296875 439.200195312 c 128,-1,74
 823.099609375 449.309570312 823.099609375 449.309570312 819.65625 458.205078125 c 0,75,76
 815.897679171 467.100585938 815.897679171 467.100585938 810.972027154 475.125 c 0,77,78
 786.446502419 515.076171875 786.446502419 515.076171875 734.736752399 537.119140625 c 0,79,80
 715.779257861 545.201171875 715.779257861 545.201171875 695.161063319 551.657226562 c 128,-1,81
 674.541739817 558.114257812 674.541739817 558.114257812 651.935446902 563 c 128,-1,82
 629.328025027 567.885742188 629.328025027 567.885742188 605.003455154 571.096679688 c 0,83,84
 529.970522686 581 529.970522686 581 420.279650437 581 c 2,57,-1
EndSplineSet
EndChar

StartChar: C
Encoding: 67 67 38
Width: 1024
GlyphClass: 2
Flags: W
LayerCount: 2
Fore
SplineSet
267.680664062 1111.85644531 m 0,0,1
 436.636602609 1288 436.636602609 1288 752.405810259 1288 c 0,2,3
 787.498046875 1288 787.498046875 1288 818.389648438 1286.98339844 c 128,-1,4
 849.28125 1285.96582031 849.28125 1285.96582031 878.58203125 1283.92773438 c 0,5,6
 888.345703125 1283.24804688 888.345703125 1283.24804688 897.099609375 1282.58105469 c 128,-1,7
 905.853515625 1281.91308594 905.853515625 1281.91308594 913.868164062 1281.234375 c 128,-1,8
 921.883789062 1280.55566406 921.883789062 1280.55566406 928.986328125 1279.875 c 128,-1,9
 936.088867188 1279.19335938 936.088867188 1279.19335938 942.424804688 1278.49902344 c 128,-1,10
 948.759765625 1277.80371094 948.759765625 1277.80371094 954.290039062 1277.09179688 c 128,-1,11
 959.819335938 1276.38085938 959.819335938 1276.38085938 964.561523438 1275.65136719 c 2,12,-1
 990.561523438 1271.65136719 l 1,13,-1
 1016 1267.73730469 l 1,14,-1
 1016 1249.54296875 l 1,15,-1
 1016 1144.20800781 l 1,16,-1
 1016 1123 l 1,17,-1
 986 1123 l 1,18,-1
 752.405810259 1123 l 2,19,20
 689.205799797 1123 689.205799797 1123 636.012105297 1109.109375 c 128,-1,21
 582.818410796 1095.21875 582.818410796 1095.21875 538.882501312 1067.41015625 c 128,-1,22
 494.945449033 1039.6015625 494.945449033 1039.6015625 458.914254887 997.299804688 c 0,23,24
 404.276067082 933.151367188 404.276067082 933.151367188 376.477570536 844.069335938 c 0,25,26
 350 754.987304688 350 754.987304688 350 640 c 0,27,28
 350 374.607421875 350 374.607421875 451.992343537 264.705078125 c 0,29,30
 553.239439117 157 553.239439117 157 752.405810259 157 c 2,31,-1
 986 157 l 1,32,-1
 1016 157 l 1,33,-1
 1016 135.822265625 l 1,34,-1
 1016 30.6376953125 l 1,35,-1
 1016 12.962890625 l 1,36,-1
 991.366210938 8.484375 l 2,37,38
 945.5546875 0.154296875 945.5546875 0.154296875 886.666992188 -3.9228515625 c 128,-1,39
 827.778320312 -8 827.778320312 -8 752.405810259 -8 c 0,40,41
 671.989588062 -8 671.989588062 -8 601.472259064 0.7197265625 c 128,-1,42
 530.953787272 9.439453125 530.953787272 9.439453125 470.195930443 27.09765625 c 0,43,44
 408.848391221 44.1171875 408.848391221 44.1171875 355.279296875 71.5634765625 c 0,45,46
 309.141601562 99.009765625 309.141601562 99.009765625 269.787109375 136.577148438 c 0,47,48
 190.389648438 212.368164062 190.389648438 212.368164062 150.728515625 340.586914062 c 0,49,50
 112 465.788085938 112 465.788085938 112 640.796875 c 0,51,52
 112 937.728515625 112 937.728515625 267.680664062 1111.85644531 c 0,0,1
EndSplineSet
EndChar

StartChar: D
Encoding: 68 68 39
Width: 1024
GlyphClass: 2
Flags: W
LayerCount: 2
Fore
SplineSet
128 1280 m 1,0,-1
 158 1280 l 1,1,-1
 420.279650437 1280 l 2,2,3
 580.765815192 1280 580.765815192 1280 701.665001268 1247.03417969 c 0,4,5
 824.01953125 1213.42578125 824.01953125 1213.42578125 903.998046875 1138.55664062 c 0,6,7
 931.041992188 1113.24023438 931.041992188 1113.24023438 953.552734375 1082.09765625 c 128,-1,8
 976.063476562 1050.95507812 976.063476562 1050.95507812 993.744140625 1014.74511719 c 128,-1,9
 1011.42480469 978.53515625 1011.42480469 978.53515625 1024.703125 936.8125 c 0,10,11
 1064 813.333984375 1064 813.333984375 1064 640 c 128,-1,12
 1064 466.666015625 1064 466.666015625 1024.703125 343.1875 c 0,13,14
 984.473632812 216.778320312 984.473632812 216.778320312 903.998046875 141.443359375 c 0,15,16
 824.01953125 66.57421875 824.01953125 66.57421875 701.665001268 32.9658203125 c 0,17,18
 580.765815192 0 580.765815192 0 420.279650437 0 c 2,19,-1
 158 0 l 1,20,-1
 128 0 l 1,21,-1
 128 30 l 1,22,-1
 128 1250 l 1,23,-1
 128 1280 l 1,0,-1
420.279650437 1123 m 2,24,-1
 358 1123 l 1,25,-1
 358 157 l 1,26,-1
 420.279650437 157 l 2,27,28
 520.46355142 157 520.46355142 157 593.281464576 181.69140625 c 0,29,30
 664.007415048 205.672851562 664.007415048 205.672851562 717.28190348 259.142578125 c 0,31,32
 734.72772072 276.653320312 734.72772072 276.653320312 749.482097573 298.470703125 c 128,-1,33
 764.237603386 320.287109375 764.237603386 320.287109375 776.608745904 347.3203125 c 128,-1,34
 788.979888421 374.354492188 788.979888421 374.354492188 798.396542896 405.918945312 c 0,35,36
 826 502.51171875 826 502.51171875 826 640 c 128,-1,37
 826 777.48828125 826 777.48828125 798.396542896 874.081054688 c 0,38,39
 784.326315738 921.245117188 784.326315738 921.245117188 763.945202774 957.861328125 c 128,-1,40
 743.56408981 994.477539062 743.56408981 994.477539062 717.28190348 1020.85742188 c 0,41,42
 664.007415048 1074.32714844 664.007415048 1074.32714844 593.281464576 1098.30859375 c 0,43,44
 520.46355142 1123 520.46355142 1123 420.279650437 1123 c 2,24,-1
EndSplineSet
EndChar

StartChar: E
Encoding: 69 69 40
Width: 1024
GlyphClass: 2
Flags: W
LayerCount: 2
Fore
SplineSet
160 1280 m 1,0,-1
 190 1280 l 1,1,-1
 986 1280 l 1,2,-1
 1016 1280 l 1,3,-1
 1016 1250 l 1,4,-1
 1016 1143.37402344 l 1,5,-1
 1016 1123 l 1,6,-1
 986 1123 l 1,7,-1
 390 1123 l 1,8,-1
 390 798 l 1,9,-1
 922 798 l 1,10,-1
 952 798 l 1,11,-1
 952 768 l 1,12,-1
 952 611 l 1,13,-1
 952 581 l 1,14,-1
 922 581 l 1,15,-1
 390 581 l 1,16,-1
 390 157 l 1,17,-1
 986 157 l 1,18,-1
 1016 157 l 1,19,-1
 1016 136.625976562 l 1,20,-1
 1016 30 l 1,21,-1
 1016 0 l 1,22,-1
 986 0 l 1,23,-1
 190 0 l 1,24,-1
 160 0 l 1,25,-1
 160 30 l 1,26,-1
 160 1250 l 1,27,-1
 160 1280 l 1,0,-1
EndSplineSet
EndChar

StartChar: F
Encoding: 70 70 41
Width: 1024
GlyphClass: 2
Flags: W
LayerCount: 2
Fore
SplineSet
160 1280 m 1,0,-1
 190 1280 l 1,1,-1
 986 1280 l 1,2,-1
 1016 1280 l 1,3,-1
 1016 1250 l 1,4,-1
 1016 1143.37402344 l 1,5,-1
 1016 1123 l 1,6,-1
 986 1123 l 1,7,-1
 390 1123 l 1,8,-1
 390 798 l 1,9,-1
 954 798 l 1,10,-1
 984 798 l 1,11,-1
 984 768 l 1,12,-1
 984 611 l 1,13,-1
 984 581 l 1,14,-1
 954 581 l 1,15,-1
 390 581 l 1,16,-1
 390 30 l 1,17,-1
 390 0 l 1,18,-1
 360 0 l 1,19,-1
 190 0 l 1,20,-1
 160 0 l 1,21,-1
 160 30 l 1,22,-1
 160 1250 l 1,23,-1
 160 1280 l 1,0,-1
EndSplineSet
EndChar

StartChar: G
Encoding: 71 71 42
Width: 1024
GlyphClass: 2
Flags: W
LayerCount: 2
Fore
SplineSet
231.530273438 1113.59863281 m 0,0,1
 393.558962915 1288 393.558962915 1288 719.592777564 1288 c 0,2,3
 797.316545062 1288 797.316545062 1288 862.87109375 1283.94140625 c 0,4,5
 879.133789062 1282.92480469 879.133789062 1282.92480469 893.118164062 1281.92480469 c 128,-1,6
 907.1015625 1280.92382812 907.1015625 1280.92382812 919.231445312 1279.90429688 c 128,-1,7
 931.360351562 1278.88476562 931.360351562 1278.88476562 941.50390625 1277.84765625 c 128,-1,8
 951.646484375 1276.81054688 951.646484375 1276.81054688 959.90234375 1275.74511719 c 2,9,-1
 989.96484375 1271.73730469 l 1,10,-1
 1016 1268.265625 l 1,11,-1
 1016 1249.67773438 l 1,12,-1
 1016 1144.23046875 l 1,13,-1
 1016 1123 l 1,14,-1
 986 1123 l 1,15,-1
 719.592777564 1123 l 2,16,17
 618.756448389 1123 618.756448389 1123 545.025734279 1094.28222656 c 128,-1,18
 471.293902919 1065.56445312 471.293902919 1065.56445312 420.8109378 1007.79003906 c 0,19,20
 369.443110263 949.004882812 369.443110263 949.004882812 343.163143338 864.7109375 c 0,21,22
 318 780.416992188 318 780.416992188 318 670 c 0,23,24
 318 538.2265625 318 538.2265625 340.1219874 444.87890625 c 0,25,26
 362.578723018 354.680664062 362.578723018 354.680664062 405.664372389 303.862304688 c 0,27,28
 447.937780626 254.001953125 447.937780626 254.001953125 502.928851626 231.716796875 c 0,29,30
 558.984662379 209 558.984662379 209 636.076066078 209 c 0,31,32
 734.224290482 209 734.224290482 209 782.935296263 229.1015625 c 0,33,34
 818 244.508789062 818 244.508789062 818 280.25390625 c 2,35,-1
 818 581 l 1,36,-1
 573.152516327 581 l 1,37,-1
 538.8305801 581 l 1,38,-1
 538.8305801 611 l 1,39,-1
 538.8305801 768 l 1,40,-1
 538.8305801 798 l 1,41,-1
 573.152516327 798 l 1,42,-1
 1018 798 l 1,43,-1
 1048 798 l 1,44,-1
 1048 769.076171875 l 1,45,-1
 1048 275.450195312 l 2,46,47
 1048 123.01953125 1048 123.01953125 942.578125 55.62890625 c 0,48,49
 843.041992188 -8 843.041992188 -8 636.076066078 -8 c 0,50,51
 495.841014274 -8 495.841014274 -8 390.35357115 27.50390625 c 0,52,53
 288.33203125 62.013671875 288.33203125 62.013671875 218.4609375 137.944335938 c 128,-1,54
 148.756835938 213.694335938 148.756835938 213.694335938 113.963867188 341.508789062 c 0,55,56
 80 466.280273438 80 466.280273438 80 640.806640625 c 0,57,58
 80 941.42578125 80 941.42578125 231.530273438 1113.59863281 c 0,0,1
EndSplineSet
EndChar

StartChar: H
Encoding: 72 72 43
Width: 1024
GlyphClass: 2
Flags: W
LayerCount: 2
Fore
SplineSet
96 1280 m 1,0,-1
 126 1280 l 1,1,-1
 296 1280 l 1,2,-1
 326 1280 l 1,3,-1
 326 1250 l 1,4,-1
 326 798 l 1,5,-1
 818 798 l 1,6,-1
 818 1250 l 1,7,-1
 818 1280 l 1,8,-1
 848 1280 l 1,9,-1
 1018 1280 l 1,10,-1
 1048 1280 l 1,11,-1
 1048 1250 l 1,12,-1
 1048 30 l 1,13,-1
 1048 0 l 1,14,-1
 1018 0 l 1,15,-1
 848 0 l 1,16,-1
 818 0 l 1,17,-1
 818 30 l 1,18,-1
 818 581 l 1,19,-1
 326 581 l 1,20,-1
 326 30 l 1,21,-1
 326 0 l 1,22,-1
 296 0 l 1,23,-1
 126 0 l 1,24,-1
 96 0 l 1,25,-1
 96 30 l 1,26,-1
 96 1250 l 1,27,-1
 96 1280 l 1,0,-1
EndSplineSet
EndChar

StartChar: I
Encoding: 73 73 44
Width: 1024
GlyphClass: 2
Flags: W
LayerCount: 2
Fore
SplineSet
160 1280 m 1,0,-1
 190 1280 l 1,1,-1
 954 1280 l 1,2,-1
 984 1280 l 1,3,-1
 984 1250 l 1,4,-1
 984 1143.37402344 l 1,5,-1
 984 1123 l 1,6,-1
 954 1123 l 1,7,-1
 712.322959483 1123 l 1,8,-1
 712.322959483 157 l 1,9,-1
 954 157 l 1,10,-1
 984 157 l 1,11,-1
 984 136.625976562 l 1,12,-1
 984 30 l 1,13,-1
 984 0 l 1,14,-1
 954 0 l 1,15,-1
 190 0 l 1,16,-1
 160 0 l 1,17,-1
 160 30 l 1,18,-1
 160 136.625976562 l 1,19,-1
 160 157 l 1,20,-1
 190 157 l 1,21,-1
 431.677040517 157 l 1,22,-1
 431.677040517 1123 l 1,23,-1
 190 1123 l 1,24,-1
 160 1123 l 1,25,-1
 160 1143.37402344 l 1,26,-1
 160 1250 l 1,27,-1
 160 1280 l 1,0,-1
EndSplineSet
EndChar

StartChar: J
Encoding: 74 74 45
Width: 1024
GlyphClass: 2
Flags: W
LayerCount: 2
Fore
SplineSet
192 1280 m 1,0,-1
 222 1280 l 1,1,-1
 922 1280 l 1,2,-1
 952 1280 l 1,3,-1
 952 1250 l 1,4,-1
 952 531.092773438 l 2,5,6
 952 385.444335938 952 385.444335938 916.528320312 281.494140625 c 0,7,8
 880.0703125 174.65625 880.0703125 174.65625 807.196289062 111.396484375 c 0,9,10
 735.249023438 48.9404296875 735.249023438 48.9404296875 625.238809959 20.8369140625 c 0,11,12
 511.361056316 -8 511.361056316 -8 362 -8 c 0,13,14
 304.825195312 -8 304.825195312 -8 252.654296875 -3.908203125 c 0,15,16
 200.249023438 0.2021484375 200.249023438 0.2021484375 175.859375 4.443359375 c 2,17,-1
 152.859375 8.443359375 l 1,18,-1
 128 12.7666015625 l 1,19,-1
 128 30.5869140625 l 1,20,-1
 128 135.813476562 l 1,21,-1
 128 157 l 1,22,-1
 158 157 l 1,23,-1
 362 157 l 2,24,25
 541.793359834 157 541.793359834 157 633.54307885 238.125976562 c 0,26,27
 722 319.41015625 722 319.41015625 722 518.450195312 c 2,28,-1
 722 1123 l 1,29,-1
 222 1123 l 1,30,-1
 192 1123 l 1,31,-1
 192 1143.37402344 l 1,32,-1
 192 1250 l 1,33,-1
 192 1280 l 1,0,-1
EndSplineSet
EndChar

StartChar: K
Encoding: 75 75 46
Width: 1024
GlyphClass: 2
Flags: W
LayerCount: 2
Fore
SplineSet
799.305713438 1280 m 1,0,-1
 816.358012342 1280 l 1,1,-1
 1018 1280 l 1,2,-1
 1078.140625 1280 l 1,3,-1
 1041.96679688 1234.10644531 l 1,4,-1
 568.011434966 678.659179688 l 1,5,-1
 1074.46972656 45.2353515625 l 1,6,-1
 1108.05664062 0 l 1,7,-1
 1050 0 l 1,8,-1
 839.158239641 0 l 1,9,-1
 821.488063484 0 l 1,10,-1
 811.263586555 12.642578125 l 1,11,-1
 358 575.858398438 l 1,12,-1
 358 30 l 1,13,-1
 358 0 l 1,14,-1
 328 0 l 1,15,-1
 158 0 l 1,16,-1
 128 0 l 1,17,-1
 128 30 l 1,18,-1
 128 1250 l 1,19,-1
 128 1280 l 1,20,-1
 158 1280 l 1,21,-1
 328 1280 l 1,22,-1
 358 1280 l 1,23,-1
 358 1250 l 1,24,-1
 358 763.66796875 l 1,25,-1
 789.043384568 1268.05273438 l 1,26,-1
 799.305713438 1280 l 1,0,-1
EndSplineSet
EndChar

StartChar: L
Encoding: 76 76 47
Width: 1024
GlyphClass: 2
Flags: W
LayerCount: 2
Fore
SplineSet
160 1280 m 1,0,-1
 190 1280 l 1,1,-1
 360 1280 l 1,2,-1
 390 1280 l 1,3,-1
 390 1250 l 1,4,-1
 390 157 l 1,5,-1
 986 157 l 1,6,-1
 1016 157 l 1,7,-1
 1016 136.625976562 l 1,8,-1
 1016 30 l 1,9,-1
 1016 0 l 1,10,-1
 986 0 l 1,11,-1
 190 0 l 1,12,-1
 160 0 l 1,13,-1
 160 30 l 1,14,-1
 160 1250 l 1,15,-1
 160 1280 l 1,0,-1
EndSplineSet
EndChar

StartChar: M
Encoding: 77 77 48
Width: 1024
GlyphClass: 2
Flags: W
LayerCount: 2
Fore
SplineSet
64 1280 m 1,0,-1
 94 1280 l 1,1,-1
 251 1280 l 1,2,-1
 269.098632812 1280 l 1,3,-1
 277.538085938 1263.99023438 l 1,4,-1
 572 762.331054688 l 1,5,-1
 866.461914062 1263.99023438 l 1,6,-1
 874.901367188 1280 l 1,7,-1
 893 1280 l 1,8,-1
 1050 1280 l 1,9,-1
 1080 1280 l 1,10,-1
 1080 1250 l 1,11,-1
 1080 30 l 1,12,-1
 1080 0 l 1,13,-1
 1050 0 l 1,14,-1
 893 0 l 1,15,-1
 863 0 l 1,16,-1
 863 30 l 1,17,-1
 863 798 l 1,18,-1
 863 798.819335938 l 1,19,-1
 863.044921875 799.637695312 l 1,20,-1
 868.538085938 900.088867188 l 1,21,-1
 812.745106759 785.354492188 l 1,22,-1
 811.990852001 784.005859375 l 1,23,-1
 659.551995646 528.005859375 l 1,24,-1
 650.021258989 512 l 1,25,-1
 629.588012401 512 l 1,26,-1
 514.411987599 512 l 1,27,-1
 493.978741011 512 l 1,28,-1
 484.448004354 528.005859375 l 1,29,-1
 332.009147999 784.005859375 l 1,30,-1
 331.61217181 784.671875 l 1,31,-1
 275.461914062 900.088867188 l 1,32,-1
 280.955078125 799.637695312 l 1,33,-1
 281 798.819335938 l 1,34,-1
 281 798 l 1,35,-1
 281 30 l 1,36,-1
 281 0 l 1,37,-1
 251 0 l 1,38,-1
 94 0 l 1,39,-1
 64 0 l 1,40,-1
 64 30 l 1,41,-1
 64 1250 l 1,42,-1
 64 1280 l 1,0,-1
EndSplineSet
EndChar

StartChar: N
Encoding: 78 78 49
Width: 1024
GlyphClass: 2
Flags: W
LayerCount: 2
Fore
SplineSet
96 1280 m 1,0,-1
 126 1280 l 1,1,-1
 330 1280 l 1,2,-1
 350.399102327 1280 l 1,3,-1
 359.611138509 1262.47070312 l 1,4,-1
 763.338393147 494.203125 l 1,5,-1
 819.65234375 376.016601562 l 1,6,-1
 818 481.765625 l 1,7,-1
 818 1250 l 1,8,-1
 818 1280 l 1,9,-1
 848 1280 l 1,10,-1
 1018 1280 l 1,11,-1
 1048 1280 l 1,12,-1
 1048 1250 l 1,13,-1
 1048 30 l 1,14,-1
 1048 0 l 1,15,-1
 1018 0 l 1,16,-1
 813 0 l 1,17,-1
 792.424128546 0 l 1,18,-1
 783.223321077 17.5595703125 l 1,19,-1
 380.653746754 785.811523438 l 1,20,-1
 324.34765625 903.983398438 l 1,21,-1
 326 798.234375 l 1,22,-1
 326 30 l 1,23,-1
 326 0 l 1,24,-1
 296 0 l 1,25,-1
 126 0 l 1,26,-1
 96 0 l 1,27,-1
 96 30 l 1,28,-1
 96 1250 l 1,29,-1
 96 1280 l 1,0,-1
EndSplineSet
EndChar

StartChar: O
Encoding: 79 79 50
Width: 1024
GlyphClass: 2
Flags: W
LayerCount: 2
Fore
SplineSet
110.260742188 338.39453125 m 0,0,1
 80 464.119140625 80 464.119140625 80 640 c 0,2,3
 80 727.790039062 80 727.790039062 87.525390625 803.100585938 c 128,-1,4
 95.0498046875 878.411132812 95.0498046875 878.411132812 110.260742188 941.60546875 c 0,5,6
 141.220703125 1070.23730469 141.220703125 1070.23730469 202.69140625 1146.71289062 c 0,7,8
 233.536132812 1185.0859375 233.536132812 1185.0859375 270.173828125 1213.40527344 c 128,-1,9
 306.811523438 1241.72558594 306.811523438 1241.72558594 352.089637816 1259.44335938 c 0,10,11
 446.364419308 1296 446.364419308 1296 572 1296 c 128,-1,12
 697.635580692 1296 697.635580692 1296 791.910362184 1259.44335938 c 0,13,14
 879.138671875 1224.05761719 879.138671875 1224.05761719 941.30859375 1146.71289062 c 0,15,16
 953.828125 1131.13671875 953.828125 1131.13671875 965.047851562 1113.47460938 c 128,-1,17
 976.267578125 1095.8125 976.267578125 1095.8125 986.08203125 1076.32519531 c 128,-1,18
 995.896484375 1056.83886719 995.896484375 1056.83886719 1004.48535156 1035.25488281 c 128,-1,19
 1013.07421875 1013.67089844 1013.07421875 1013.67089844 1020.34667969 990.3515625 c 128,-1,20
 1027.61914062 967.033203125 1027.61914062 967.033203125 1033.73925781 941.60546875 c 0,21,22
 1064 815.880859375 1064 815.880859375 1064 640 c 0,23,24
 1064 552.209960938 1064 552.209960938 1056.47460938 476.899414062 c 128,-1,25
 1048.95019531 401.588867188 1048.95019531 401.588867188 1033.73925781 338.39453125 c 0,26,27
 1002.77929688 209.762695312 1002.77929688 209.762695312 941.30859375 133.287109375 c 0,28,29
 879.138671875 55.9423828125 879.138671875 55.9423828125 791.910362184 20.556640625 c 0,30,31
 744.451590247 2.1533203125 744.451590247 2.1533203125 689.425347704 -6.9228515625 c 128,-1,32
 634.399105161 -16 634.399105161 -16 572 -16 c 128,-1,33
 509.600894839 -16 509.600894839 -16 454.574652296 -6.9228515625 c 128,-1,34
 399.548409753 2.1533203125 399.548409753 2.1533203125 352.089637816 20.556640625 c 0,35,36
 264.861328125 55.9423828125 264.861328125 55.9423828125 202.69140625 133.287109375 c 0,37,38
 141.220703125 209.762695312 141.220703125 209.762695312 110.260742188 338.39453125 c 0,0,1
628.622028042 1073.80566406 m 128,-1,40
 602.736941593 1079 602.736941593 1079 572 1079 c 0,41,42
 511.609249272 1079 511.609249272 1079 467.673437934 1058.36328125 c 0,43,44
 456.981119069 1053.34082031 456.981119069 1053.34082031 446.893753035 1046.75390625 c 128,-1,45
 436.805274955 1040.16699219 436.805274955 1040.16699219 427.089332166 1031.81640625 c 128,-1,46
 417.372277331 1023.46582031 417.372277331 1023.46582031 408.107825073 1013.17871094 c 128,-1,47
 398.844484861 1002.89160156 398.844484861 1002.89160156 390.217234757 990.825195312 c 0,48,49
 378.879929419 974.969726562 378.879929419 974.969726562 369.110608439 954.87109375 c 128,-1,50
 359.340175413 934.7734375 359.340175413 934.7734375 351.00094513 909.662109375 c 128,-1,51
 342.662826894 884.549804688 342.662826894 884.549804688 336.314158314 855.475585938 c 0,52,53
 326.680506902 811.35546875 326.680506902 811.35546875 322.284179688 757.399414062 c 128,-1,54
 318 703.442382812 318 703.442382812 318 640 c 128,-1,55
 318 576.557617188 318 576.557617188 322.284179688 522.600585938 c 128,-1,56
 326.680506902 468.64453125 326.680506902 468.64453125 336.314158314 424.524414062 c 0,57,58
 355.163331975 338.202148438 355.163331975 338.202148438 390.217234757 289.174804688 c 0,59,60
 401.682425343 273.139648438 401.682425343 273.139648438 414.346401134 260.20703125 c 128,-1,61
 427.011488971 247.274414062 427.011488971 247.274414062 440.194790077 237.813476562 c 128,-1,62
 453.378091183 228.3515625 453.378091183 228.3515625 467.673437934 221.63671875 c 0,63,64
 489.492885509 211.388671875 489.492885509 211.388671875 515.377971958 206.194335938 c 128,-1,65
 541.263058407 201 541.263058407 201 572 201 c 0,66,67
 632.390750728 201 632.390750728 201 676.326562066 221.63671875 c 128,-1,68
 720.243468629 242.265625 720.243468629 242.265625 753.782765243 289.174804688 c 0,69,70
 788.836668025 338.202148438 788.836668025 338.202148438 807.685841686 424.524414062 c 0,71,72
 826 513.327148438 826 513.327148438 826 640 c 0,73,74
 826 703.442382812 826 703.442382812 821.715820312 757.399414062 c 128,-1,75
 817.319493098 811.35546875 817.319493098 811.35546875 807.685841686 855.475585938 c 0,76,77
 788.836668025 941.797851562 788.836668025 941.797851562 753.782765243 990.825195312 c 0,78,79
 736.688399608 1014.734375 736.688399608 1014.734375 717.295435627 1031.48144531 c 128,-1,80
 697.903583692 1048.22753906 697.903583692 1048.22753906 676.326562066 1058.36328125 c 0,81,39
 654.507114491 1068.61132812 654.507114491 1068.61132812 628.622028042 1073.80566406 c 128,-1,40
EndSplineSet
EndChar

StartChar: P
Encoding: 80 80 51
Width: 1024
GlyphClass: 2
Flags: W
LayerCount: 2
Fore
SplineSet
160 1280 m 1,0,-1
 190 1280 l 1,1,-1
 672.851566046 1280 l 2,2,3
 864.477539062 1280 864.477539062 1280 964.928710938 1171.02148438 c 0,4,5
 1064 1063.53808594 1064 1063.53808594 1064 881 c 0,6,7
 1064 789.798828125 1064 789.798828125 1031.54785156 715.9453125 c 128,-1,8
 999.095703125 642.092773438 999.095703125 642.092773438 934.633789062 588.319335938 c 0,9,10
 870.541015625 534.854492188 870.541015625 534.854492188 778.191011724 508.427734375 c 0,11,12
 676.938202167 482 676.938202167 482 551.148433954 482 c 2,13,-1
 390 482 l 1,14,-1
 390 30 l 1,15,-1
 390 0 l 1,16,-1
 360 0 l 1,17,-1
 190 0 l 1,18,-1
 160 0 l 1,19,-1
 160 30 l 1,20,-1
 160 1250 l 1,21,-1
 160 1280 l 1,0,-1
672.851566046 1123 m 2,22,-1
 390 1123 l 1,23,-1
 390 699 l 1,24,-1
 551.148433954 699 l 2,25,26
 568.650344523 699 568.650344523 699 585.128310472 699.953125 c 128,-1,27
 601.607419215 700.907226562 601.607419215 700.907226562 616.888878447 702.797851562 c 128,-1,28
 632.171480474 704.689453125 632.171480474 704.689453125 646.433566266 707.479492188 c 128,-1,29
 660.695652058 710.26953125 660.695652058 710.26953125 673.875510667 713.975585938 c 128,-1,30
 687.054226481 717.681640625 687.054226481 717.681640625 699.210140469 722.228515625 c 128,-1,31
 711.367197252 726.775390625 711.367197252 726.775390625 722.554020796 732.216796875 c 128,-1,32
 733.739701543 737.658203125 733.739701543 737.658203125 743.900294875 743.8828125 c 128,-1,33
 754.060888206 750.108398438 754.060888206 750.108398438 763.357528264 757.203125 c 0,34,35
 800.428666165 785.49609375 800.428666165 785.49609375 818.509765625 823.147460938 c 0,36,37
 834 860.799804688 834 860.799804688 834 911 c 0,38,39
 834 1013.28027344 834 1013.28027344 790.404065479 1070.33691406 c 0,40,41
 747.688661413 1123 747.688661413 1123 672.851566046 1123 c 2,22,-1
EndSplineSet
EndChar

StartChar: Q
Encoding: 81 81 52
Width: 1024
GlyphClass: 2
Flags: W
LayerCount: 2
Fore
SplineSet
156.227539062 1157.63378906 m 0,0,1
 267.234375 1296 267.234375 1296 572 1296 c 128,-1,2
 876.765625 1296 876.765625 1296 987.772460938 1157.63378906 c 0,3,4
 1096 1022.73242188 1096 1022.73242188 1096 692.448242188 c 0,5,6
 1096 390.458007812 1096 390.458007812 1006.82128906 255.772460938 c 0,7,8
 920.159179688 124.888671875 920.159179688 124.888671875 700.897840799 99.5654296875 c 1,9,-1
 700.897840799 -127 l 1,10,-1
 700.897840799 -157 l 1,11,-1
 667.272317112 -157 l 1,12,-1
 476.727682888 -157 l 1,13,-1
 443.102159201 -157 l 1,14,-1
 443.102159201 -127 l 1,15,-1
 443.102159201 99.5654296875 l 1,16,17
 223.840820312 124.888671875 223.840820312 124.888671875 137.178710938 255.772460938 c 0,18,19
 48 390.458007812 48 390.458007812 48 692.448242188 c 0,20,21
 48 1022.73242188 48 1022.73242188 156.227539062 1157.63378906 c 0,0,1
715.022312077 1057.89257812 m 128,-1,23
 658.649209183 1079 658.649209183 1079 572 1079 c 128,-1,24
 485.348601656 1079 485.348601656 1079 428.800365825 1057.87207031 c 128,-1,25
 372.252129995 1036.74414062 372.252129995 1036.74414062 341.599487895 995.829101562 c 0,26,27
 309.893859017 953.5078125 309.893859017 953.5078125 292.8359375 870.393554688 c 0,28,29
 277.517578125 787.280273438 277.517578125 787.280273438 278 667.133789062 c 0,30,31
 278.966796875 450.471679688 278.966796875 450.471679688 329.95314766 360.966796875 c 0,32,33
 350.627590739 325.901367188 350.627590739 325.901367188 384.05280613 303.938476562 c 128,-1,34
 417.478021522 281.975585938 417.478021522 281.975585938 466.640025782 271.57421875 c 1,35,-1
 466.640025782 667 l 1,36,-1
 466.640025782 697 l 1,37,-1
 500.265549468 697 l 1,38,-1
 643.734450532 697 l 1,39,-1
 677.359974218 697 l 1,40,-1
 677.359974218 667 l 1,41,-1
 677.359974218 271.571289062 l 1,42,43
 773.477307747 291.89453125 773.477307747 291.89453125 814.671858005 361.07421875 c 0,44,45
 866 450.474609375 866 450.474609375 866 667 c 0,46,47
 866 906.956054688 866 906.956054688 801.773317279 995.918945312 c 0,48,22
 771.394320391 1036.78417969 771.394320391 1036.78417969 715.022312077 1057.89257812 c 128,-1,23
EndSplineSet
EndChar

StartChar: R
Encoding: 82 82 53
Width: 1024
GlyphClass: 2
Flags: W
LayerCount: 2
Fore
SplineSet
128 1280 m 1,0,-1
 158 1280 l 1,1,-1
 634.913704768 1280 l 2,2,3
 674.829082366 1280 674.829082366 1280 711.099536339 1276.77832031 c 128,-1,4
 747.369990312 1273.55664062 747.369990312 1273.55664062 780.70841498 1266.9140625 c 128,-1,5
 814.04572226 1260.27246094 814.04572226 1260.27246094 843.564910586 1250.24414062 c 0,6,7
 870.153320312 1240.67480469 870.153320312 1240.67480469 893.081054688 1227.55175781 c 128,-1,8
 916.009765625 1214.4296875 916.009765625 1214.4296875 935.447265625 1197.91894531 c 0,9,10
 984.702148438 1156.08105469 984.702148438 1156.08105469 1008.35058594 1089.00976562 c 128,-1,11
 1032 1021.9375 1032 1021.9375 1032 931.305664062 c 0,12,13
 1032 853.671875 1032 853.671875 1007.73242188 792.098632812 c 128,-1,14
 983.463867188 730.524414062 983.463867188 730.524414062 935.341796875 686.553710938 c 128,-1,15
 887.220703125 642.58203125 887.220703125 642.58203125 811.80535688 617.934570312 c 1,16,-1
 1077.55175781 39.9521484375 l 1,17,-1
 1095.58984375 0 l 1,18,-1
 1050 0 l 1,19,-1
 865 0 l 1,20,-1
 844.591791276 0 l 1,21,-1
 835.658264488 18.138671875 l 1,22,-1
 543.665466556 611 l 1,23,-1
 358 611 l 1,24,-1
 358 30 l 1,25,-1
 358 0 l 1,26,-1
 328 0 l 1,27,-1
 158 0 l 1,28,-1
 128 0 l 1,29,-1
 128 30 l 1,30,-1
 128 1250 l 1,31,-1
 128 1280 l 1,0,-1
634.913704768 1123 m 2,32,-1
 358 1123 l 1,33,-1
 358 798 l 1,34,-1
 515.91622275 798 l 2,35,36
 659.927579772 798 659.927579772 798 731.985775577 838.637695312 c 0,37,38
 795.102622869 874.232421875 795.102622869 874.232421875 795.102622869 961.05078125 c 0,39,40
 795.102622869 1051.4453125 795.102622869 1051.4453125 756.112443543 1086.83007812 c 0,41,42
 716.255170184 1123 716.255170184 1123 634.913704768 1123 c 2,32,-1
EndSplineSet
EndChar

StartChar: S
Encoding: 83 83 54
Width: 1024
GlyphClass: 2
Flags: W
LayerCount: 2
Fore
SplineSet
264.342773438 1203.38964844 m 0,0,1
 418.531601908 1288 418.531601908 1288 731.016519401 1288 c 0,2,3
 808.792797673 1288 808.792797673 1288 871.962890625 1283.93554688 c 0,4,5
 934.184570312 1279.85546875 934.184570312 1279.85546875 962.319335938 1275.6875 c 2,6,-1
 990.2421875 1271.69824219 l 1,7,-1
 1016 1268.01855469 l 1,8,-1
 1016 1249.61425781 l 1,9,-1
 1016 1144.22070312 l 1,10,-1
 1016 1123 l 1,11,-1
 986 1123 l 1,12,-1
 731.016519401 1123 l 2,13,14
 632.618030878 1123 632.618030878 1123 558.476168574 1112.78710938 c 128,-1,15
 484.334306269 1102.57519531 484.334306269 1102.57519531 436.512631909 1083.265625 c 0,16,17
 391.95109459 1065.27246094 391.95109459 1065.27246094 371.569093204 1037.8671875 c 128,-1,18
 351.187091817 1010.46289062 351.187091817 1010.46289062 351.187091817 969 c 0,19,20
 351.187091817 948.755859375 351.187091817 948.755859375 356.37448602 931.624023438 c 128,-1,21
 361.562997473 914.4921875 361.562997473 914.4921875 371.932199625 899.587890625 c 0,22,23
 393.718584926 868.271484375 393.718584926 868.271484375 430.288429216 846.961914062 c 0,24,25
 450.203419882 835.356445312 450.203419882 835.356445312 473.622108204 824.651367188 c 128,-1,26
 497.040796527 813.946289062 497.040796527 813.946289062 523.916257984 804.216796875 c 0,27,28
 579.686052602 784.029296875 579.686052602 784.029296875 640.586261645 765.299804688 c 0,29,30
 702.632769731 746.217773438 702.632769731 746.217773438 764.673691564 726.1328125 c 0,31,32
 827.784179688 705.256835938 827.784179688 705.256835938 879.46875 675.499023438 c 0,33,34
 905.76171875 660.360351562 905.76171875 660.360351562 929.020507812 642.982421875 c 128,-1,35
 952.280273438 625.60546875 952.280273438 625.60546875 972.424804688 605.998046875 c 0,36,37
 1014.36523438 565.17578125 1014.36523438 565.17578125 1039.22949219 504.948242188 c 0,38,39
 1064 444.94921875 1064 444.94921875 1064 371 c 0,40,41
 1064 227.96484375 1064 227.96484375 1001.46191406 144.94921875 c 0,42,43
 969.62109375 102.682617188 969.62109375 102.682617188 919.500976562 73.1064453125 c 128,-1,44
 869.381835938 43.5302734375 869.381835938 43.5302734375 799.743068395 25.9716796875 c 0,45,46
 650.758827705 -8 650.758827705 -8 387.797157126 -8 c 0,47,48
 311.063476562 -8 311.063476562 -8 246.12890625 -3.94140625 c 128,-1,49
 181.010742188 0.1279296875 181.010742188 0.1279296875 150.900390625 4.28125 c 2,50,-1
 121.900390625 8.28125 l 1,51,-1
 96 11.853515625 l 1,52,-1
 96 30.3525390625 l 1,53,-1
 96 135.774414062 l 1,54,-1
 96 157 l 1,55,-1
 126 157 l 1,56,-1
 387.797157126 157 l 2,57,58
 647.117708233 157 647.117708233 157 744.026901802 194.439453125 c 0,59,60
 772.841910176 205.571289062 772.841910176 205.571289062 791.043038531 221.361328125 c 128,-1,61
 809.243049636 237.151367188 809.243049636 237.151367188 818.181053862 259.22265625 c 0,62,63
 826 281.29296875 826 281.29296875 826 311 c 0,64,65
 826 324.5625 826 324.5625 823.94140625 336.7734375 c 128,-1,66
 821.881835938 348.983398438 821.881835938 348.983398438 817.83805795 359.7421875 c 0,67,68
 813.268503289 370.501953125 813.268503289 370.501953125 806.372833029 380.412109375 c 0,69,70
 784.586447729 411.728515625 784.586447729 411.728515625 748.016603438 433.038085938 c 0,71,72
 728.101612773 444.643554688 728.101612773 444.643554688 704.68292445 455.348632812 c 128,-1,73
 681.264236128 466.053710938 681.264236128 466.053710938 654.388774671 475.783203125 c 0,74,75
 598.618980053 495.970703125 598.618980053 495.970703125 537.718771009 514.700195312 c 0,76,77
 475.672262924 533.782226562 475.672262924 533.782226562 413.631341091 553.8671875 c 0,78,79
 349.145875102 574.743164062 349.145875102 574.743164062 296.53125 604.500976562 c 0,80,81
 270.23828125 619.639648438 270.23828125 619.639648438 246.979492188 637.017578125 c 128,-1,82
 223.719726562 654.39453125 223.719726562 654.39453125 203.575195312 674.001953125 c 0,83,84
 161.634765625 714.82421875 161.634765625 714.82421875 136.770507812 775.051757812 c 0,85,86
 124.326171875 805.194335938 124.326171875 805.194335938 118.163085938 838.748046875 c 128,-1,87
 112 872.301757812 112 872.301757812 112 909 c 0,88,89
 112 1114.19921875 112 1114.19921875 264.342773438 1203.38964844 c 0,0,1
EndSplineSet
EndChar

StartChar: T
Encoding: 84 84 55
Width: 1024
GlyphClass: 2
Flags: W
LayerCount: 2
Fore
SplineSet
64 1280 m 1,0,-1
 94 1280 l 1,1,-1
 1050 1280 l 1,2,-1
 1080 1280 l 1,3,-1
 1080 1250 l 1,4,-1
 1080 1143.37402344 l 1,5,-1
 1080 1123 l 1,6,-1
 1050 1123 l 1,7,-1
 701.855322081 1123 l 1,8,-1
 701.855322081 30 l 1,9,-1
 701.855322081 0 l 1,10,-1
 667.980020668 0 l 1,11,-1
 476.019979332 0 l 1,12,-1
 442.144677919 0 l 1,13,-1
 442.144677919 30 l 1,14,-1
 442.144677919 1123 l 1,15,-1
 94 1123 l 1,16,-1
 64 1123 l 1,17,-1
 64 1143.37402344 l 1,18,-1
 64 1250 l 1,19,-1
 64 1280 l 1,0,-1
EndSplineSet
EndChar

StartChar: U
Encoding: 85 85 56
Width: 1024
GlyphClass: 2
Flags: W
LayerCount: 2
Fore
SplineSet
96 1280 m 1,0,-1
 126 1280 l 1,1,-1
 296 1280 l 1,2,-1
 326 1280 l 1,3,-1
 326 1250 l 1,4,-1
 326 584.087890625 l 2,5,6
 326 359.784179688 326 359.784179688 380.715504676 276.408203125 c 0,7,8
 432.337267154 201 432.337267154 201 572 201 c 128,-1,9
 711.662732846 201 711.662732846 201 763.284495324 276.408203125 c 0,10,11
 818 359.784179688 818 359.784179688 818 584.087890625 c 2,12,-1
 818 1250 l 1,13,-1
 818 1280 l 1,14,-1
 848 1280 l 1,15,-1
 1018 1280 l 1,16,-1
 1048 1280 l 1,17,-1
 1048 1250 l 1,18,-1
 1048 578.62890625 l 2,19,20
 1048 413.813476562 1048 413.813476562 1026.47265625 305.788085938 c 0,21,22
 1004.27539062 194.403320312 1004.27539062 194.403320312 951.109375 121.6796875 c 0,23,24
 896.298828125 46.705078125 896.298828125 46.705078125 809.612304688 15.439453125 c 0,25,26
 715.133528048 -16 715.133528048 -16 572 -16 c 128,-1,27
 428.866471952 -16 428.866471952 -16 334.387695312 15.439453125 c 0,28,29
 247.701171875 46.705078125 247.701171875 46.705078125 192.890625 121.6796875 c 0,30,31
 139.724609375 194.403320312 139.724609375 194.403320312 117.52734375 305.788085938 c 0,32,33
 96 413.813476562 96 413.813476562 96 578.62890625 c 2,34,-1
 96 1250 l 1,35,-1
 96 1280 l 1,0,-1
EndSplineSet
EndChar

StartChar: V
Encoding: 86 86 57
Width: 1024
GlyphClass: 2
Flags: W
LayerCount: 2
Fore
SplineSet
32 1280 m 1,0,-1
 72.140625 1280 l 1,1,-1
 249.140625 1280 l 1,2,-1
 271.572265625 1280 l 1,3,-1
 277.933073962 1258.48339844 l 1,4,-1
 580.782173455 332.483398438 l 1,5,-1
 581.341175485 330.772460938 l 1,6,-1
 581.672676688 329.013671875 l 1,7,-1
 582.140678387 326.524414062 l 1,8,-1
 582.608680086 329.013671875 l 1,9,-1
 582.939097953 330.772460938 l 1,10,-1
 583.498099982 332.483398438 l 1,11,-1
 886.347199476 1258.48339844 l 1,12,-1
 892.708007812 1280 l 1,13,-1
 915.140625 1280 l 1,14,-1
 1092.140625 1280 l 1,15,-1
 1132.28027344 1280 l 1,16,-1
 1120.91210938 1243.25488281 l 1,17,-1
 727.21037173 21.5029296875 l 1,18,-1
 720.165429486 0 l 1,19,-1
 695.293089187 0 l 1,20,-1
 582.140678387 0 l 1,21,-1
 468.988267588 0 l 1,22,-1
 444.114843951 0 l 1,23,-1
 437.069901708 21.5029296875 l 1,24,-1
 43.3681640625 1243.25488281 l 1,25,-1
 32 1280 l 1,0,-1
EndSplineSet
EndChar

StartChar: W
Encoding: 87 87 58
Width: 1024
GlyphClass: 2
Flags: W
LayerCount: 2
Fore
SplineSet
32 1280 m 1,0,-1
 64.333984375 1280 l 1,1,-1
 221.333984375 1280 l 1,2,-1
 249.158203125 1280 l 1,3,-1
 251.249023438 1252.25488281 l 1,4,-1
 323.570484412 354.10546875 l 1,5,-1
 486.302115417 748.43359375 l 1,6,-1
 494.376714209 768 l 1,7,-1
 517.594445127 768 l 1,8,-1
 631.073413722 768 l 1,9,-1
 654.29114464 768 l 1,10,-1
 662.366829895 748.43359375 l 1,11,-1
 825.0984609 354.10546875 l 1,12,-1
 897.418945312 1252.25488281 l 1,13,-1
 899.509765625 1280 l 1,14,-1
 927.333984375 1280 l 1,15,-1
 1084.33398438 1280 l 1,16,-1
 1116.66894531 1280 l 1,17,-1
 1114.25 1249.23046875 l 1,18,-1
 1018.25 27.755859375 l 1,19,-1
 1016.16894531 -0 l 1,20,-1
 988.333984375 0 l 1,21,-1
 774.590932828 0 l 1,22,-1
 751.361250809 0 l 1,23,-1
 743.2931708 19.5810546875 l 1,24,-1
 574.333929424 429.623046875 l 1,25,-1
 405.375774513 19.5810546875 l 1,26,-1
 397.307694503 0 l 1,27,-1
 374.07692602 0 l 1,28,-1
 160.333984375 0 l 1,29,-1
 132.5 0 l 1,30,-1
 130.41796875 27.755859375 l 1,31,-1
 34.41796875 1249.23046875 l 1,32,-1
 32 1280 l 1,0,-1
EndSplineSet
EndChar

StartChar: X
Encoding: 88 88 59
Width: 1024
GlyphClass: 2
Flags: W
LayerCount: 2
Fore
SplineSet
32 1280 m 1,0,-1
 84.7724609375 1280 l 1,1,-1
 283.296387919 1280 l 1,2,-1
 302.458384852 1280 l 1,3,-1
 312.016192611 1264.96386719 l 1,4,-1
 594.7724099 820.143554688 l 1,5,-1
 877.529705827 1264.96386719 l 1,6,-1
 887.087513585 1280 l 1,7,-1
 906.248431881 1280 l 1,8,-1
 1104.77246094 1280 l 1,9,-1
 1157.54589844 1280 l 1,10,-1
 1130.55078125 1236.68457031 l 1,11,-1
 742.683826477 640 l 1,12,-1
 1130.55078125 43.3154296875 l 1,13,-1
 1157.54589844 -0 l 1,14,-1
 1104.77246094 0 l 1,15,-1
 906.248431881 0 l 1,16,-1
 887.087513585 0 l 1,17,-1
 877.529705827 15.0361328125 l 1,18,-1
 594.7724099 459.856445312 l 1,19,-1
 312.016192611 15.0361328125 l 1,20,-1
 302.458384852 0 l 1,21,-1
 283.296387919 0 l 1,22,-1
 84.7724609375 0 l 1,23,-1
 32 0 l 1,24,-1
 58.9951171875 43.3154296875 l 1,25,-1
 446.86207196 640 l 1,26,-1
 58.9951171875 1236.68457031 l 1,27,-1
 32 1280 l 1,0,-1
EndSplineSet
EndChar

StartChar: Y
Encoding: 89 89 60
Width: 1024
GlyphClass: 2
Flags: W
LayerCount: 2
Fore
SplineSet
32 1280 m 1,0,-1
 81.1650390625 1280 l 1,1,-1
 272.165039062 1280 l 1,2,-1
 292.107784772 1280 l 1,3,-1
 301.266731091 1263.37890625 l 1,4,-1
 591.165039062 737.267578125 l 1,5,-1
 881.063347034 1263.37890625 l 1,6,-1
 890.222293353 1280 l 1,7,-1
 910.165039062 1280 l 1,8,-1
 1101.16503906 1280 l 1,9,-1
 1150.33007812 1280 l 1,10,-1
 1127.84375 1238.28125 l 1,11,-1
 718.338428821 511.619140625 l 1,12,-1
 718.338428821 30 l 1,13,-1
 718.338428821 0 l 1,14,-1
 685.162761927 0 l 1,15,-1
 497.167316198 0 l 1,16,-1
 463.991649304 0 l 1,17,-1
 463.991649304 30 l 1,18,-1
 463.991649304 511.619140625 l 1,19,-1
 54.4873046875 1238.28125 l 1,20,-1
 32 1280 l 1,0,-1
EndSplineSet
EndChar

StartChar: Z
Encoding: 90 90 61
Width: 1024
GlyphClass: 2
Flags: W
LayerCount: 2
Fore
SplineSet
1016 1280 m 1,0,-1
 1016 1250 l 1,1,-1
 1016 1093 l 1,2,-1
 1016 1084.28515625 l 1,3,-1
 1011.33007812 1076.92578125 l 1,4,-1
 371.433850473 157 l 1,5,-1
 1018 157 l 1,6,-1
 1048 157 l 1,7,-1
 1048 136.625976562 l 1,8,-1
 1048 30 l 1,9,-1
 1048 0 l 1,10,-1
 1018 0 l 1,11,-1
 126 0 l 1,12,-1
 96 0 l 1,13,-1
 96 30 l 1,14,-1
 96 187 l 1,15,-1
 96 195.71484375 l 1,16,-1
 100.669921875 203.07421875 l 1,17,-1
 735.771902623 1123 l 1,18,-1
 158 1123 l 1,19,-1
 128 1123 l 1,20,-1
 128 1143.37402344 l 1,21,-1
 128 1250 l 1,22,-1
 128 1280 l 1,23,-1
 158 1280 l 1,24,-1
 986 1280 l 1,25,-1
 1016 1280 l 1,0,-1
EndSplineSet
EndChar

StartChar: bracketleft
Encoding: 91 91 62
Width: 1024
GlyphClass: 2
Flags: W
LayerCount: 2
Fore
SplineSet
822 1250 m 1,0,-1
 542 1250 l 1,1,-1
 542 -69 l 1,2,-1
 822 -69 l 1,3,-1
 852 -69 l 1,4,-1
 852 -99 l 1,5,-1
 852 -256 l 1,6,-1
 852 -286 l 1,7,-1
 822 -286 l 1,8,-1
 342 -286 l 1,9,-1
 312 -286 l 1,10,-1
 312 -256 l 1,11,-1
 312 1437 l 1,12,-1
 312 1467 l 1,13,-1
 342 1467 l 1,14,-1
 822 1467 l 1,15,-1
 852 1467 l 1,16,-1
 852 1437 l 1,17,-1
 852 1280 l 1,18,-1
 852 1250 l 1,19,-1
 822 1250 l 1,0,-1
EndSplineSet
EndChar

StartChar: backslash
Encoding: 92 92 63
Width: 1024
GlyphClass: 2
Flags: W
LayerCount: 2
Fore
SplineSet
177 1467 m 1,0,-1
 354 1467 l 1,1,-1
 376.510103316 1467 l 1,2,-1
 382.803617768 1445.38758627 l 1,3,-1
 875.803617768 -247.612413727 l 1,4,-1
 886.982046612 -286 l 1,5,-1
 847 -286 l 1,6,-1
 669 -286 l 1,7,-1
 646.477126302 -286 l 1,8,-1
 640.191818773 -264.371899092 l 1,9,-1
 148.191818773 1428.62810091 l 1,10,-1
 137.040623054 1467 l 1,11,-1
 177 1467 l 1,0,-1
EndSplineSet
EndChar

StartChar: bracketright
Encoding: 93 93 64
Width: 1024
GlyphClass: 2
Flags: W
LayerCount: 2
Fore
SplineSet
172 1280 m 1,0,-1
 172 1437 l 1,1,-1
 172 1467 l 1,2,-1
 202 1467 l 1,3,-1
 682 1467 l 1,4,-1
 712 1467 l 1,5,-1
 712 1437 l 1,6,-1
 712 -256 l 1,7,-1
 712 -286 l 1,8,-1
 682 -286 l 1,9,-1
 202 -286 l 1,10,-1
 172 -286 l 1,11,-1
 172 -256 l 1,12,-1
 172 -99 l 1,13,-1
 172 -69 l 1,14,-1
 202 -69 l 1,15,-1
 482 -69 l 1,16,-1
 482 1250 l 1,17,-1
 202 1250 l 1,18,-1
 172 1250 l 1,19,-1
 172 1280 l 1,0,-1
EndSplineSet
EndChar

StartChar: asciicircum
Encoding: 94 94 65
Width: 1024
GlyphClass: 2
Flags: W
LayerCount: 2
Fore
SplineSet
410 1310 m 1,0,-1
 614 1310 l 1,1,-1
 631.884737381 1310 l 1,2,-1
 640.390262965 1294.26723592 l 1,3,-1
 986.390262965 654.267235915 l 1,4,-1
 1010.32223738 610 l 1,5,-1
 960 610 l 1,6,-1
 767 610 l 1,7,-1
 749.127469402 610 l 1,8,-1
 740.618309383 625.716919093 l 1,9,-1
 512 1047.98838466 l 1,10,-1
 283.381690617 625.716919093 l 1,11,-1
 274.872530598 610 l 1,12,-1
 257 610 l 1,13,-1
 64 610 l 1,14,-1
 13.6777626188 610 l 1,15,-1
 37.6097370354 654.267235915 l 1,16,-1
 383.609737035 1294.26723592 l 1,17,-1
 392.115262619 1310 l 1,18,-1
 410 1310 l 1,0,-1
EndSplineSet
EndChar

StartChar: underscore
Encoding: 95 95 66
Width: 1024
GlyphClass: 2
Flags: W
LayerCount: 2
Fore
SplineSet
85 -69 m 1,0,-1
 939 -69 l 1,1,-1
 969 -69 l 1,2,-1
 969 -99 l 1,3,-1
 969 -256 l 1,4,-1
 969 -286 l 1,5,-1
 939 -286 l 1,6,-1
 85 -286 l 1,7,-1
 55 -286 l 1,8,-1
 55 -256 l 1,9,-1
 55 -99 l 1,10,-1
 55 -69 l 1,11,-1
 85 -69 l 1,0,-1
EndSplineSet
EndChar

StartChar: grave
Encoding: 96 96 67
Width: 1024
GlyphClass: 2
Flags: W
LayerCount: 2
Fore
SplineSet
253.786796564 1162.21320344 m 1,0,-1
 373.786796564 1282.21320344 l 1,1,-1
 395.473979555 1303.90038643 l 1,2,-1
 416.676710861 1281.73933958 l 1,3,-1
 770.676710861 911.739339581 l 1,4,-1
 790.962786274 890.536379403 l 1,5,-1
 770.213203436 869.786796564 l 1,6,-1
 666.213203436 765.786796564 l 1,7,-1
 645.463620597 745.037213726 l 1,8,-1
 624.260660419 765.323289139 l 1,9,-1
 254.260660419 1119.32328914 l 1,10,-1
 232.099613574 1140.52602045 l 1,11,-1
 253.786796564 1162.21320344 l 1,0,-1
EndSplineSet
EndChar

StartChar: a
Encoding: 97 97 68
Width: 1024
GlyphClass: 2
Flags: W
LayerCount: 2
Fore
SplineSet
247.577148438 1015.3046875 m 2,0,1
 323.750976562 1032 323.750976562 1032 461.020426691 1032 c 0,2,3
 525.623789825 1032 525.623789825 1032 581.714470502 1029.1328125 c 128,-1,4
 637.806293974 1026.26464844 637.806293974 1026.26464844 687.799018739 1020.21191406 c 128,-1,5
 737.792886299 1014.15917969 737.792886299 1014.15917969 778.352539062 1004.86425781 c 0,6,7
 814.192382812 996.094726562 814.192382812 996.094726562 844.359375 983.865234375 c 128,-1,8
 874.526367188 971.635742188 874.526367188 971.635742188 898.204101562 955.995117188 c 0,9,10
 957.918945312 916.549804688 957.918945312 916.549804688 986.959960938 848.022460938 c 128,-1,11
 1016 779.49609375 1016 779.49609375 1016 685.09375 c 2,12,-1
 1076 269.885742188 l 2,13,14
 1076 122.272460938 1076 122.272460938 1011.21289062 61.13671875 c 128,-1,15
 946.426757812 0 946.426757812 0 730 0 c 2,16,-1
 542 0 l 2,17,18
 311.8671875 0 311.8671875 0 212.145507812 91.990234375 c 0,19,20
 178.6796875 122.861328125 178.6796875 122.861328125 156.302734375 161.509765625 c 128,-1,21
 133.92578125 200.157226562 133.92578125 200.157226562 122.962890625 245.115234375 c 128,-1,22
 112 290.073242188 112 290.073242188 112 341.501953125 c 0,23,24
 112 471.91015625 112 471.91015625 214.626953125 547.75390625 c 0,25,26
 313.73828125 621 313.73828125 621 503.148433954 621 c 2,27,-1
 786 621 l 1,28,-1
 786 706.416992188 l 2,29,30
 786 795.646484375 786 795.646484375 727.750000887 828.590820312 c 0,31,32
 656.712700011 867 656.712700011 867 461.020426691 867 c 2,33,-1
 254 867 l 1,34,-1
 224 867 l 1,35,-1
 224 888.138671875 l 1,36,-1
 224 993.12890625 l 1,37,-1
 224 1010.13671875 l 1,38,-1
 247.577148438 1015.3046875 l 2,0,1
846 403 m 1,39,-1
 542 403 l 2,40,41
 488.664981211 403 488.664981211 403 448.283931931 396.020507812 c 128,-1,42
 407.902882652 389.041015625 407.902882652 389.041015625 380.690133512 376.1796875 c 0,43,44
 356.204101562 364.251953125 356.204101562 364.251953125 349.1015625 350.5625 c 128,-1,45
 342 336.873046875 342 336.873046875 342 317.583007812 c 0,46,47
 342 241.654296875 342 241.654296875 389.004134513 199.249023438 c 0,48,49
 443.418047353 157 443.418047353 157 542 157 c 2,50,-1
 730 157 l 2,51,52
 778.405259847 157 778.405259847 157 805.590342709 160.984375 c 0,53,54
 831.2578125 164.969726562 831.2578125 164.969726562 834.759765625 169.604492188 c 0,55,56
 838.80078125 174.952148438 838.80078125 174.952148438 842.400390625 191.953125 c 128,-1,57
 846 208.954101562 846 208.954101562 846 235.583007812 c 2,58,-1
 846 403 l 1,39,-1
EndSplineSet
EndChar

StartChar: b
Encoding: 98 98 69
Width: 1024
GlyphClass: 2
Flags: W
LayerCount: 2
Fore
SplineSet
128 1280 m 1,0,-1
 158 1280 l 1,1,-1
 328 1280 l 1,2,-1
 358 1280 l 1,3,-1
 358 1250 l 1,4,-1
 358 992.745117188 l 1,5,6
 461.329846729 1024 461.329846729 1024 570.638220608 1024 c 0,7,8
 801.189453125 1024 801.189453125 1024 917.69140625 889.888671875 c 0,9,10
 1032 758.301757812 1032 758.301757812 1032 534.671875 c 0,11,12
 1092 290.204101562 1092 290.204101562 966.125 146.31640625 c 0,13,14
 835.994185808 0 835.994185808 0 558 0 c 2,15,-1
 474 0 l 2,16,17
 257.573242188 0 257.573242188 0 192.787109375 61.8193359375 c 128,-1,18
 128 123.638671875 128 123.638671875 128 272.900390625 c 2,19,-1
 128 1250 l 1,20,-1
 128 1280 l 1,0,-1
738.991401108 784.400390625 m 0,21,22
 677.497584083 867 677.497584083 867 570.638220608 867 c 0,23,24
 460.536746766 867 460.536746766 867 358 821.397460938 c 1,25,-1
 358 232.369140625 l 2,26,27
 358 194.360351562 358 194.360351562 373.65625 174.65625 c 0,28,29
 408.44928476 157 408.44928476 157 474 157 c 2,30,-1
 558 157 l 2,31,32
 698.98884398 157 698.98884398 157 780.470578873 254.803710938 c 0,33,34
 862 357.637695312 862 357.637695312 802 538.215820312 c 0,35,36
 802 696.163085938 802 696.163085938 738.991401108 784.400390625 c 0,21,22
EndSplineSet
EndChar

StartChar: c
Encoding: 99 99 70
Width: 1024
GlyphClass: 2
Flags: W
LayerCount: 2
Fore
SplineSet
266.661132812 891.33203125 m 0,0,1
 432.697134962 1032 432.697134962 1032 730.831752371 1032 c 0,2,3
 794.080078125 1032 794.080078125 1032 850.65625 1027.92285156 c 0,4,5
 907.455078125 1023.82910156 907.455078125 1023.82910156 933.739257812 1019.62304688 c 2,6,-1
 958.739257812 1015.62304688 l 1,7,-1
 984 1011.58203125 l 1,8,-1
 984 993.502929688 l 1,9,-1
 984 888.201171875 l 1,10,-1
 984 867 l 1,11,-1
 954 867 l 1,12,-1
 730.831752371 867 l 2,13,14
 637.599106223 867 637.599106223 867 566.290595357 843.22265625 c 128,-1,15
 494.98208449 819.444335938 494.98208449 819.444335938 443.052839686 772.162109375 c 0,16,17
 408.506384954 740.70703125 408.506384954 740.70703125 385.537635929 702.03515625 c 128,-1,18
 362.570046298 663.36328125 362.570046298 663.36328125 351.905273438 615.79296875 c 0,19,20
 342 568.22265625 342 568.22265625 342 512 c 0,21,22
 342 413.123046875 342 413.123046875 363.949724827 345.171875 c 0,23,24
 388.848864399 277.219726562 388.848864399 277.219726562 436.355022154 238.262695312 c 0,25,26
 535.44956296 157 535.44956296 157 730.831752371 157 c 2,27,-1
 954 157 l 1,28,-1
 984 157 l 1,29,-1
 984 135.829101562 l 1,30,-1
 984 30.677734375 l 1,31,-1
 984 13.1201171875 l 1,32,-1
 959.549804688 8.517578125 l 2,33,34
 871.798828125 -8 871.798828125 -8 730.831752371 -8 c 0,35,36
 610.804357916 -8 610.804357916 -8 513.411807094 9.1337890625 c 0,37,38
 414.173501467 25.625 414.173501467 25.625 334.200195312 63.7041015625 c 0,39,40
 298.143554688 83.0205078125 298.143554688 83.0205078125 267.775390625 107.9921875 c 128,-1,41
 237.407226562 132.963867188 237.407226562 132.963867188 213.072265625 163.357421875 c 0,42,43
 164.665039062 223.815429688 164.665039062 223.815429688 138.129882812 312.546875 c 0,44,45
 112 399.920898438 112 399.920898438 112 512.474609375 c 0,46,47
 112 750.260742188 112 750.260742188 266.661132812 891.33203125 c 0,0,1
EndSplineSet
EndChar

StartChar: d
Encoding: 100 100 71
Width: 1024
GlyphClass: 2
Flags: W
LayerCount: 2
Fore
SplineSet
1016 1280 m 1,0,-1
 1016 1250 l 1,1,-1
 1076 272.900390625 l 2,2,3
 1076 123.638671875 1076 123.638671875 1011.21289062 61.8193359375 c 128,-1,4
 946.426757812 0 946.426757812 0 730 0 c 2,5,-1
 646 0 l 2,6,7
 369.077536598 0 369.077536598 0 238.793945312 133.033203125 c 0,8,9
 112 264.887695312 112 264.887695312 112 489.328125 c 0,10,11
 112 733.012695312 112 733.012695312 225.459960938 876.583984375 c 0,12,13
 341.958007812 1024 341.958007812 1024 573.361779392 1024 c 0,14,15
 682.670153271 1024 682.670153271 1024 786 992.745117188 c 1,16,-1
 786 1250 l 1,17,-1
 786 1280 l 1,18,-1
 816 1280 l 1,19,-1
 986 1280 l 1,20,-1
 1016 1280 l 1,0,-1
786 821.397460938 m 1,21,22
 683.463253234 867 683.463253234 867 573.361779392 867 c 0,23,24
 467.975479105 867 467.975479105 867 406.24396065 771.43359375 c 0,25,26
 342 667.82421875 342 667.82421875 342 485.784179688 c 0,27,28
 342 329.40234375 342 329.40234375 421.938486831 241.8359375 c 0,29,30
 503.398022641 157 503.398022641 157 646 157 c 2,31,-1
 730 157 l 2,32,33
 795.55071524 157 795.55071524 157 830.34375 174.65625 c 0,34,35
 846 194.360351562 846 194.360351562 846 232.369140625 c 2,36,-1
 786 821.397460938 l 1,21,22
EndSplineSet
EndChar

StartChar: e
Encoding: 101 101 72
Width: 1024
GlyphClass: 2
Flags: W
LayerCount: 2
Fore
SplineSet
926.561523438 8.3486328125 m 2,0,1
 820.293945312 -8 820.293945312 -8 628.978723404 -8 c 0,2,3
 371.145911922 -8 371.145911922 -8 239.796875 133.772460938 c 0,4,5
 175.584960938 204.083984375 175.584960938 204.083984375 143.79296875 299.040039062 c 128,-1,6
 112 393.995117188 112 393.995117188 112 512.216796875 c 0,7,8
 112 751.666015625 112 751.666015625 227.171875 894.081054688 c 0,9,10
 345.177734375 1040 345.177734375 1040 572 1040 c 0,11,12
 795.889648438 1040 795.889648438 1040 913.551757812 934.331054688 c 0,13,14
 1032 827.956054688 1032 827.956054688 1032 648.440429688 c 2,15,-1
 1032 582.543945312 l 2,16,17
 1032 559.484375 1032 559.484375 1029.52050781 539.8203125 c 128,-1,18
 1027.04101562 520.155273438 1027.04101562 520.155273438 1021.65917969 502.34375 c 128,-1,19
 1016.27636719 484.53125 1016.27636719 484.53125 1007.19042969 469.717773438 c 128,-1,20
 998.103515625 454.904296875 998.103515625 454.904296875 985.458984375 443.64453125 c 0,21,22
 960.958007812 421.826171875 960.958007812 421.826171875 922.846679688 412.413085938 c 128,-1,23
 884.735351562 403 884.735351562 403 832 403 c 2,24,-1
 352.537109375 403 l 1,25,26
 353.912109375 393.637695312 353.912109375 393.637695312 355.956054688 381.571289062 c 0,27,28
 358.631850779 366.504882812 358.631850779 366.504882812 362.526880699 352.166992188 c 128,-1,29
 366.420775042 337.829101562 366.420775042 337.829101562 371.236758101 324.204101562 c 0,30,31
 380.34635869 298.428710938 380.34635869 298.428710938 401.948444454 265.40234375 c 0,32,33
 407.233420912 257.323242188 407.233420912 257.323242188 412.930611906 249.857421875 c 128,-1,34
 418.6278029 242.392578125 418.6278029 242.392578125 424.730394967 235.548828125 c 128,-1,35
 430.832987035 228.704101562 430.832987035 228.704101562 437.329624403 222.466796875 c 128,-1,36
 443.827397349 216.23046875 443.827397349 216.23046875 450.771452148 210.541992188 c 0,37,38
 477.812952874 188.390625 477.812952874 188.390625 524.055929087 172.790039062 c 0,39,40
 570.862151609 157 570.862151609 157 628.978723404 157 c 2,41,-1
 922 157 l 1,42,-1
 952 157 l 1,43,-1
 952 135.791992188 l 1,44,-1
 952 30.45703125 l 1,45,-1
 952 12.2626953125 l 1,46,-1
 926.561523438 8.3486328125 l 2,0,1
351.541992188 591 m 1,47,-1
 802 591 l 1,48,-1
 802 630 l 2,49,50
 802 661.095703125 802 661.095703125 796.010742188 687.095703125 c 128,-1,51
 790.020507812 713.094726562 790.020507812 713.094726562 777.22492486 733.821289062 c 0,52,53
 763.813757701 754.546875 763.813757701 754.546875 743.575500197 771.526367188 c 0,54,55
 728.440526792 784.224609375 728.440526792 784.224609375 710.607421875 793.737304688 c 128,-1,56
 692.774316958 803.25 692.774316958 803.25 671.543564949 809.818359375 c 128,-1,57
 650.312812941 816.387695312 650.312812941 816.387695312 625.407332996 819.693359375 c 128,-1,58
 600.502988629 823 600.502988629 823 572 823 c 0,59,60
 526.892601023 823 526.892601023 823 490.493943871 809.463867188 c 0,61,62
 481.287819217 806.041015625 481.287819217 806.041015625 473.121883311 802.155273438 c 128,-1,63
 464.955947406 798.270507812 464.955947406 798.270507812 457.9324022 793.98828125 c 128,-1,64
 450.907721416 789.705078125 450.907721416 789.705078125 444.932313999 785.080078125 c 128,-1,65
 438.956906582 780.455078125 438.956906582 780.455078125 433.838859979 775.369140625 c 0,66,67
 410.244971742 751.922851562 410.244971742 751.922851562 392.903571768 723.904296875 c 0,68,69
 384.287947277 709.984375 384.287947277 709.984375 378.108135957 696.255859375 c 128,-1,70
 371.928324638 682.526367188 371.928324638 682.526367188 368.108242815 668.9453125 c 0,71,72
 365.281791074 658.901367188 365.281791074 658.901367188 362.83462213 649.400390625 c 128,-1,73
 360.386317609 639.899414062 360.386317609 639.899414062 358.337736275 631.037109375 c 0,74,75
 356.49609375 622.17578125 356.49609375 622.17578125 355.060546875 613.883789062 c 0,76,77
 352.916015625 601.4921875 352.916015625 601.4921875 351.541992188 591 c 1,47,-1
EndSplineSet
EndChar

StartChar: f
Encoding: 102 102 73
Width: 1024
GlyphClass: 2
Flags: W
LayerCount: 2
Fore
SplineSet
1048 1267.4140625 m 1,0,-1
 1048 1242 l 1,1,-1
 1048 1093 l 1,2,-1
 1048 1063 l 1,3,-1
 1018 1063 l 1,4,-1
 810 1063 l 2,5,6
 682.256979125 1063 682.256979125 1063 643.924398534 1031.64648438 c 0,7,8
 612.607517854 1007.47851562 612.607517854 1007.47851562 607.380551931 931.02734375 c 1,9,-1
 1018 931.02734375 l 1,10,-1
 1048 931.02734375 l 1,11,-1
 1048 902.72265625 l 1,12,-1
 1048 754.595703125 l 1,13,-1
 1048 726.291015625 l 1,14,-1
 1018 726.291015625 l 1,15,-1
 606.494606472 726.291015625 l 1,16,-1
 606.494606472 30 l 1,17,-1
 606.494606472 0 l 1,18,-1
 572 0 l 1,19,-1
 376.530563324 0 l 1,20,-1
 342.035956852 0 l 1,21,-1
 342.035956852 30 l 1,22,-1
 342.035956852 727.901367188 l 1,23,-1
 126 727.901367188 l 1,24,-1
 96 727.901367188 l 1,25,-1
 96 756.271484375 l 1,26,-1
 96 904.741210938 l 1,27,-1
 96 933.110351562 l 1,28,-1
 126 933.110351562 l 1,29,-1
 342.427838937 933.110351562 l 1,30,31
 344.877944123 1017.82519531 344.877944123 1017.82519531 362.037663398 1074.27636719 c 0,32,33
 372.53314148 1110.78808594 372.53314148 1110.78808594 391.856633758 1141.99804688 c 128,-1,34
 411.180126036 1173.20800781 411.180126036 1173.20800781 439.111549734 1198.34667969 c 0,35,36
 495.414562681 1249.02148438 495.414562681 1249.02148438 587.779710441 1269.10449219 c 0,37,38
 674.686580791 1288 674.686580791 1288 810 1288 c 0,39,40
 821.615234375 1288 821.615234375 1288 833.028320312 1287.83691406 c 128,-1,41
 844.442382812 1287.67382812 844.442382812 1287.67382812 855.671875 1287.34765625 c 128,-1,42
 866.90234375 1287.02050781 866.90234375 1287.02050781 877.931640625 1286.53027344 c 128,-1,43
 888.961914062 1286.04003906 888.961914062 1286.04003906 899.807617188 1285.38574219 c 128,-1,44
 910.654296875 1284.73046875 910.654296875 1284.73046875 921.30078125 1283.91210938 c 0,45,46
 974.729492188 1279.80175781 974.729492188 1279.80175781 999.036132812 1275.57421875 c 2,47,-1
 1022.93164062 1271.59179688 l 1,48,-1
 1048 1267.4140625 l 1,0,-1
EndSplineSet
EndChar

StartChar: g
Encoding: 103 103 74
Width: 1024
GlyphClass: 2
Flags: W
LayerCount: 2
Fore
SplineSet
241.205078125 916.098632812 m 0,0,1
 371.572466893 1024 371.572466893 1024 646 1024 c 2,2,-1
 730 1024 l 2,3,4
 946.426757812 1024 946.426757812 1024 1011.21289062 962.318359375 c 128,-1,5
 1076 900.637695312 1076 900.637695312 1076 751.709960938 c 2,6,-1
 1076 134.772460938 l 2,7,8
 1076 -72.94140625 1076 -72.94140625 940.779296875 -167.6640625 c 0,9,10
 802.905187883 -264 802.905187883 -264 476.040853382 -264 c 0,11,12
 403.324338438 -264 403.324338438 -264 342.508789062 -259.896484375 c 0,13,14
 292.936523438 -255.765625 292.936523438 -255.765625 270.509765625 -251.493164062 c 2,15,-1
 248.633789062 -247.515625 l 1,16,-1
 224 -243.037109375 l 1,17,-1
 224 -218 l 1,18,-1
 224 -69 l 1,19,-1
 224 -39 l 1,20,-1
 254 -39 l 1,21,-1
 476.040853382 -39 l 2,22,23
 573.007115209 -39 573.007115209 -39 645.24583487 -27.208984375 c 128,-1,24
 717.483245503 -15.41796875 717.483245503 -15.41796875 764.024433124 6.7763671875 c 0,25,26
 792.998462679 18.9306640625 792.998462679 18.9306640625 812.082784396 35.9990234375 c 0,27,28
 830.932617188 53.068359375 830.932617188 53.068359375 838.465820312 77.265625 c 128,-1,29
 846 101.463867188 846 101.463867188 846 132.759765625 c 2,30,-1
 846 226 l 1,31,-1
 604.723558783 226 l 2,32,33
 345.075195312 226 345.075195312 226 228.904296875 331.712890625 c 0,34,35
 112 438.092773438 112 438.092773438 112 619.217773438 c 0,36,37
 112 806.748046875 112 806.748046875 241.205078125 916.098632812 c 0,0,1
730 867 m 2,38,-1
 646 867 l 2,39,40
 499.54401514 867 499.54401514 867 417.334643632 807.430664062 c 0,41,42
 342 749.840820312 342 749.840820312 342 648.54296875 c 0,43,44
 342 598.669921875 342 598.669921875 355.09375 561.549804688 c 0,45,46
 370.928693481 524.430664062 370.928693481 524.430664062 406.697704036 497.504882812 c 0,47,48
 477.466385061 443 477.466385061 443 604.723558783 443 c 2,49,-1
 846 443 l 1,50,-1
 846 792.74609375 l 2,51,52
 846 812.609375 846 812.609375 841.907226562 826.475585938 c 128,-1,53
 837.813476562 840.342773438 837.813476562 840.342773438 830.34375 849.60546875 c 0,54,55
 812.632921223 858.497070312 812.632921223 858.497070312 789.218476252 862.748046875 c 128,-1,56
 765.806463951 867 765.806463951 867 730 867 c 2,38,-1
EndSplineSet
EndChar

StartChar: h
Encoding: 104 104 75
Width: 1024
GlyphClass: 2
Flags: W
LayerCount: 2
Fore
SplineSet
128 1280 m 1,0,-1
 158 1280 l 1,1,-1
 328 1280 l 1,2,-1
 358 1280 l 1,3,-1
 358 1250 l 1,4,-1
 358 992.745117188 l 1,5,6
 461.935555234 1024 461.935555234 1024 572 1024 c 0,7,8
 801.147460938 1024 801.147460938 1024 907.590820312 937.4453125 c 0,9,10
 1016 849.291015625 1016 849.291015625 1016 650.54296875 c 2,11,-1
 1016 30 l 1,12,-1
 1016 0 l 1,13,-1
 986 0 l 1,14,-1
 816 0 l 1,15,-1
 786 0 l 1,16,-1
 786 30 l 1,17,-1
 786 687.618164062 l 2,18,19
 784.974609375 722.852539062 784.974609375 722.852539062 778.87109375 750.356445312 c 128,-1,20
 772.768554688 777.860351562 772.768554688 777.860351562 761.72394626 796.078125 c 0,21,22
 750.228454329 814.296875 750.228454329 814.296875 733.97827044 826.669921875 c 0,23,24
 708.305005127 846.21875 708.305005127 846.21875 668.145578861 856.609375 c 128,-1,25
 627.987303294 867 627.987303294 867 572 867 c 0,26,27
 461.136969508 867 461.136969508 867 358 825.250976562 c 1,28,-1
 358 30 l 1,29,-1
 358 0 l 1,30,-1
 328 0 l 1,31,-1
 158 0 l 1,32,-1
 128 0 l 1,33,-1
 128 30 l 1,34,-1
 128 1250 l 1,35,-1
 128 1280 l 1,0,-1
EndSplineSet
EndChar

StartChar: i
Encoding: 105 105 76
Width: 1024
GlyphClass: 2
Flags: W
LayerCount: 2
Fore
SplineSet
326 1374 m 1,0,-1
 356 1374 l 1,1,-1
 707.506419401 1374 l 1,2,-1
 742.855920114 1374 l 1,3,-1
 742.855920114 1344 l 1,4,-1
 742.855920114 1158 l 1,5,-1
 742.855920114 1128 l 1,6,-1
 707.506419401 1128 l 1,7,-1
 356 1128 l 1,8,-1
 326 1128 l 1,9,-1
 326 1158 l 1,10,-1
 326 1344 l 1,11,-1
 326 1374 l 1,0,-1
160 925 m 1,12,-1
 190 925 l 1,13,-1
 672.156918688 925 l 1,14,-1
 707.506419401 925 l 1,15,-1
 707.506419401 895 l 1,16,-1
 707.506419401 157 l 1,17,-1
 986 157 l 1,18,-1
 1016 157 l 1,19,-1
 1016 136.625976562 l 1,20,-1
 1016 30 l 1,21,-1
 1016 0 l 1,22,-1
 986 0 l 1,23,-1
 158 0 l 1,24,-1
 128 0 l 1,25,-1
 128 30 l 1,26,-1
 128 136.625976562 l 1,27,-1
 128 157 l 1,28,-1
 158 157 l 1,29,-1
 436.493580599 157 l 1,30,-1
 436.493580599 708 l 1,31,-1
 190 708 l 1,32,-1
 160 708 l 1,33,-1
 160 738 l 1,34,-1
 160 895 l 1,35,-1
 160 925 l 1,12,-1
EndSplineSet
EndChar

StartChar: j
Encoding: 106 106 77
Width: 1024
GlyphClass: 2
Flags: W
LayerCount: 2
Fore
SplineSet
563.436557232 1374 m 1,0,-1
 600.091393079 1374 l 1,1,-1
 920 1374 l 1,2,-1
 950 1374 l 1,3,-1
 950 1344 l 1,4,-1
 950 1158 l 1,5,-1
 950 1128 l 1,6,-1
 920 1128 l 1,7,-1
 600.091393079 1128 l 1,8,-1
 563.436557232 1128 l 1,9,-1
 563.436557232 1158 l 1,10,-1
 563.436557232 1344 l 1,11,-1
 563.436557232 1374 l 1,0,-1
192 985 m 1,12,-1
 222 985 l 1,13,-1
 890 985 l 1,14,-1
 920 985 l 1,15,-1
 920 955 l 1,16,-1
 920 150 l 2,17,18
 920 -72.3369140625 920 -72.3369140625 785.068359375 -169.817382812 c 0,19,20
 643.714465949 -264 643.714465949 -264 350 -264 c 0,21,22
 295.751953125 -264 295.751953125 -264 246.508789062 -259.896484375 c 0,23,24
 221.634765625 -257.823242188 221.634765625 -257.823242188 203.922851562 -255.772460938 c 128,-1,25
 186.209960938 -253.72265625 186.209960938 -253.72265625 174.509765625 -251.493164062 c 2,26,-1
 152.633789062 -247.515625 l 1,27,-1
 128 -243.037109375 l 1,28,-1
 128 -218 l 1,29,-1
 128 -69 l 1,30,-1
 128 -39 l 1,31,-1
 158 -39 l 1,32,-1
 350 -39 l 2,33,34
 519.732347355 -39 519.732347355 -39 607.229063263 6.7763671875 c 0,35,36
 633.639158856 20.59375 633.639158856 20.59375 651.034694397 39.998046875 c 128,-1,37
 668.43142313 59.40234375 668.43142313 59.40234375 677.635700595 86.912109375 c 128,-1,38
 686.841171251 114.421875 686.841171251 114.421875 686.841171251 150 c 2,39,-1
 686.841171251 768 l 1,40,-1
 222 768 l 1,41,-1
 192 768 l 1,42,-1
 192 798 l 1,43,-1
 192 955 l 1,44,-1
 192 985 l 1,12,-1
EndSplineSet
EndChar

StartChar: k
Encoding: 107 107 78
Width: 1024
GlyphClass: 2
Flags: W
LayerCount: 2
Fore
SplineSet
128 1280 m 1,0,-1
 158 1280 l 1,1,-1
 328 1280 l 1,2,-1
 358 1280 l 1,3,-1
 358 1250 l 1,4,-1
 358 697.606445312 l 1,5,-1
 723.793265188 1015.38378906 l 1,6,-1
 733.771110272 1024 l 1,7,-1
 747.768134171 1024 l 1,8,-1
 986 1024 l 1,9,-1
 1059.33105469 1024 l 1,10,-1
 1007.02734375 975.447265625 l 1,11,-1
 587.912306966 617.760742188 l 1,12,-1
 1074.04101562 45.291015625 l 1,13,-1
 1109.828125 -0 l 1,14,-1
 1050 0 l 1,15,-1
 852.596151304 0 l 1,16,-1
 835.461230323 0 l 1,17,-1
 825.207428333 12.0498046875 l 1,18,-1
 358 563.690429688 l 1,19,-1
 358 30 l 1,20,-1
 358 0 l 1,21,-1
 328 0 l 1,22,-1
 158 0 l 1,23,-1
 128 0 l 1,24,-1
 128 30 l 1,25,-1
 128 1250 l 1,26,-1
 128 1280 l 1,0,-1
EndSplineSet
EndChar

StartChar: l
Encoding: 108 108 79
Width: 1024
GlyphClass: 2
Flags: W
LayerCount: 2
Fore
SplineSet
160 1280 m 1,0,-1
 190 1280 l 1,1,-1
 672.156918688 1280 l 1,2,-1
 707.506419401 1280 l 1,3,-1
 707.506419401 1250 l 1,4,-1
 707.506419401 157 l 1,5,-1
 986 157 l 1,6,-1
 1016 157 l 1,7,-1
 1016 136.625976562 l 1,8,-1
 1016 30 l 1,9,-1
 1016 0 l 1,10,-1
 986 0 l 1,11,-1
 158 0 l 1,12,-1
 128 0 l 1,13,-1
 128 30 l 1,14,-1
 128 136.625976562 l 1,15,-1
 128 157 l 1,16,-1
 158 157 l 1,17,-1
 436.493580599 157 l 1,18,-1
 436.493580599 1063 l 1,19,-1
 190 1063 l 1,20,-1
 160 1063 l 1,21,-1
 160 1093 l 1,22,-1
 160 1250 l 1,23,-1
 160 1280 l 1,0,-1
EndSplineSet
EndChar

StartChar: m
Encoding: 109 109 80
Width: 1024
GlyphClass: 2
Flags: W
LayerCount: 2
Fore
SplineSet
260.036132812 1020.68066406 m 0,0,1
 307.469726562 1032 307.469726562 1032 363.102307957 1032 c 0,2,3
 412.800418613 1032 412.800418613 1032 455.09161522 1024.40136719 c 0,4,5
 498.446928555 1016.61035156 498.446928555 1016.61035156 526.173509893 1004.33300781 c 0,6,7
 539.005765184 998.650390625 539.005765184 998.650390625 549.997594757 993.030273438 c 128,-1,8
 560.988321618 987.41015625 560.988321618 987.41015625 570.342624413 981.696289062 c 0,9,10
 576.787973917 977.759765625 576.787973917 977.759765625 582.996240419 973.497070312 c 0,11,12
 585.926145232 975.356445312 585.926145232 975.356445312 589.206712345 977.38671875 c 128,-1,13
 592.488382169 979.41796875 592.488382169 979.41796875 596.315894253 981.7421875 c 0,14,15
 607.376091947 988.458007812 607.376091947 988.458007812 619.070348831 994.3359375 c 128,-1,16
 630.764605715 1000.21386719 630.764605715 1000.21386719 643.057635017 1005.23925781 c 0,17,18
 667.905036277 1015.39550781 667.905036277 1015.39550781 704.2360765 1023.57519531 c 0,19,20
 722.934757686 1027.78515625 722.934757686 1027.78515625 742.13076182 1029.89257812 c 128,-1,21
 761.325663242 1032 761.325663242 1032 780.897692043 1032 c 0,22,23
 922.36328125 1032 922.36328125 1032 1001.13671875 958.208007812 c 128,-1,24
 1080 884.33203125 1080 884.33203125 1080 754.610351562 c 2,25,-1
 1080 30 l 1,26,-1
 1080 0 l 1,27,-1
 1050 0 l 1,28,-1
 893 0 l 1,29,-1
 863 0 l 1,30,-1
 863 30 l 1,31,-1
 863 744.666992188 l 2,32,33
 863 768.008789062 863 768.008789062 857.471679688 784.702148438 c 128,-1,34
 851.943359375 801.39453125 851.943359375 801.39453125 841.650390625 812.653320312 c 0,35,36
 834.9921875 819.936523438 834.9921875 819.936523438 826.44078526 824.561523438 c 128,-1,37
 817.791115199 829.186523438 817.791115199 829.186523438 806.493834503 831.592773438 c 128,-1,38
 795.195451096 834 795.195451096 834 780.897692043 834 c 0,39,40
 755.463648193 834 755.463648193 834 732.201946262 845.3125 c 0,41,42
 707.897079126 857.131835938 707.897079126 857.131835938 698.708183076 867 c 2,43,-1
 695.080261798 863.786132812 l 1,44,-1
 695.080261798 30 l 1,45,-1
 695.080261798 0 l 1,46,-1
 661.204960386 0 l 1,47,-1
 482.795039614 0 l 1,48,-1
 448.919738202 0 l 1,49,-1
 448.919738202 30 l 1,50,-1
 448.919738202 744.666992188 l 2,51,52
 448.919738202 788.623046875 448.919738202 788.623046875 425.028387928 812.53125 c 0,53,54
 403.574030367 834 403.574030367 834 363.102307957 834 c 0,55,56
 337.668264107 834 337.668264107 834 314.406562177 845.3125 c 0,57,58
 292.350585938 857.131835938 292.350585938 857.131835938 284.212890625 867 c 2,59,-1
 281 863.786132812 l 1,60,-1
 281 30 l 1,61,-1
 281 0 l 1,62,-1
 251 0 l 1,63,-1
 94 0 l 1,64,-1
 64 0 l 1,65,-1
 64 30 l 1,66,-1
 64 911.26171875 l 1,67,-1
 64 922.961914062 l 1,68,-1
 72.787109375 931.234375 l 2,69,70
 77.54296875 935.712890625 77.54296875 935.712890625 85.8525390625 942.4921875 c 2,71,-1
 123.643554688 966.780273438 l 2,72,73
 151.974609375 983.388671875 151.974609375 983.388671875 182.450195312 995.973632812 c 0,74,75
 213.416992188 1009.55566406 213.416992188 1009.55566406 260.036132812 1020.68066406 c 0,0,1
EndSplineSet
EndChar

StartChar: n
Encoding: 110 110 81
Width: 1024
GlyphClass: 2
Flags: W
LayerCount: 2
Fore
SplineSet
1016 0 m 1,0,-1
 986 0 l 1,1,-1
 816 0 l 1,2,-1
 786 0 l 1,3,-1
 786 30 l 1,4,-1
 786 641.715820312 l 2,5,6
 786 742.267578125 786 742.267578125 735.538619494 782.369140625 c 0,7,8
 681.565041013 823 681.565041013 823 572 823 c 0,9,10
 506.07525243 823 506.07525243 823 446.558752563 853.209960938 c 0,11,12
 439.842117288 856.620117188 439.842117288 856.620117188 433.426965384 860.110351562 c 128,-1,13
 427.012964181 863.6015625 427.012964181 863.6015625 421.195025522 867 c 0,14,15
 415.377086863 865.833007812 415.377086863 865.833007812 409.910111671 864.657226562 c 128,-1,16
 404.441985779 863.48046875 404.441985779 863.48046875 399.559566133 862.34765625 c 128,-1,17
 394.678297187 861.213867188 394.678297187 861.213867188 390.198622504 860.090820312 c 128,-1,18
 385.71894782 858.967773438 385.71894782 858.967773438 381.813472383 857.897460938 c 128,-1,19
 377.907996946 856.827148438 377.907996946 856.827148438 374.458198667 855.788085938 c 0,20,21
 371.423828125 854.748046875 371.423828125 854.748046875 368.973632812 853.772460938 c 128,-1,22
 366.5234375 852.795898438 366.5234375 852.795898438 364.5 851.869140625 c 2,23,-1
 358 848.893554688 l 1,24,-1
 358 30 l 1,25,-1
 358 0 l 1,26,-1
 328 0 l 1,27,-1
 158 0 l 1,28,-1
 128 0 l 1,29,-1
 128 30 l 1,30,-1
 128 911.603515625 l 1,31,-1
 128 926.7265625 l 1,32,-1
 141.359375 935.114257812 l 2,33,34
 147.873046875 939.205078125 147.873046875 939.205078125 159.901367188 946.1015625 c 0,35,36
 172.740234375 953.461914062 172.740234375 953.461914062 212.157226562 971.047851562 c 128,-1,37
 251.745117188 988.7109375 251.745117188 988.7109375 294.91015625 1002.42578125 c 0,38,39
 338.657226562 1017.18359375 338.657226562 1017.18359375 411.7420259 1028.57910156 c 0,40,41
 491.261142007 1040 491.261142007 1040 572 1040 c 0,42,43
 688.064194009 1040 688.064194009 1040 777.3125 1016.36914062 c 0,44,45
 854.125976562 994.092773438 854.125976562 994.092773438 908.043945312 948.453125 c 0,46,47
 1016 857.071289062 1016 857.071289062 1016 650.26953125 c 2,48,-1
 1016 30 l 1,49,-1
 1016 0 l 1,0,-1
EndSplineSet
EndChar

StartChar: o
Encoding: 111 111 82
Width: 1024
GlyphClass: 2
Flags: W
LayerCount: 2
Fore
SplineSet
83.3447265625 422.572265625 m 128,-1,1
 80 464.974609375 80 464.974609375 80 512 c 0,2,3
 80 653.688476562 80 653.688476562 110.659179688 754.6640625 c 0,4,5
 142.185546875 858.4921875 142.185546875 858.4921875 204.754882812 920.590820312 c 128,-1,6
 267.178710938 982.544921875 267.178710938 982.544921875 354.399356618 1010.75195312 c 0,7,8
 401.391069385 1025.49023438 401.391069385 1025.49023438 455.768989317 1032.74511719 c 128,-1,9
 510.14690925 1040 510.14690925 1040 572 1040 c 0,10,11
 696.345607745 1040 696.345607745 1040 789.600643382 1010.75195312 c 0,12,13
 876.821289062 982.544921875 876.821289062 982.544921875 939.245117188 920.590820312 c 128,-1,14
 1001.81445312 858.4921875 1001.81445312 858.4921875 1033.34082031 754.6640625 c 0,15,16
 1048.78417969 703.80078125 1048.78417969 703.80078125 1056.39257812 643.221679688 c 128,-1,17
 1064 582.642578125 1064 582.642578125 1064 512 c 0,18,19
 1064 370.311523438 1064 370.311523438 1033.34082031 269.3359375 c 0,20,21
 1001.81445312 165.5078125 1001.81445312 165.5078125 939.245117188 103.409179688 c 128,-1,22
 876.821289062 41.455078125 876.821289062 41.455078125 789.600643382 13.248046875 c 0,23,24
 696.345607745 -16 696.345607745 -16 572 -16 c 128,-1,25
 447.654392255 -16 447.654392255 -16 354.399356618 13.248046875 c 0,26,27
 267.178710938 41.455078125 267.178710938 41.455078125 204.754882812 103.409179688 c 0,28,29
 142.181640625 166.319335938 142.181640625 166.319335938 110.659179688 269.3359375 c 0,30,31
 100.34375 303.311523438 100.34375 303.311523438 93.5166015625 341.740234375 c 128,-1,0
 86.689453125 380.168945312 86.689453125 380.168945312 83.3447265625 422.572265625 c 128,-1,1
767.164010474 755.506835938 m 0,32,33
 701.126291967 823 701.126291967 823 572 823 c 128,-1,34
 442.873708033 823 442.873708033 823 376.835989526 755.506835938 c 0,35,36
 310 684.961914062 310 684.961914062 310 512 c 128,-1,37
 310 339.038085938 310 339.038085938 376.835989526 268.493164062 c 0,38,39
 442.873708033 201 442.873708033 201 572 201 c 0,40,41
 638.285704686 201 638.285704686 201 686.152597374 217.809570312 c 128,-1,42
 734.019490063 234.619140625 734.019490063 234.619140625 767.164010474 268.493164062 c 128,-1,43
 800.275169517 302.3359375 800.275169517 302.3359375 818.231370526 363.522460938 c 0,44,45
 834 424.708984375 834 424.708984375 834 512 c 0,46,47
 834 684.961914062 834 684.961914062 767.164010474 755.506835938 c 0,32,33
EndSplineSet
EndChar

StartChar: p
Encoding: 112 112 83
Width: 1024
GlyphClass: 2
Flags: W
LayerCount: 2
Fore
SplineSet
192.787109375 962.180664062 m 128,-1,1
 257.573242188 1024 257.573242188 1024 474 1024 c 2,2,-1
 602 1024 l 2,3,4
 730.993144133 1024 730.993144133 1024 835.394219157 996.670898438 c 0,5,6
 916.813476562 970.366210938 916.813476562 970.366210938 975.095703125 917.399414062 c 128,-1,7
 1033.52832031 864.294921875 1033.52832031 864.294921875 1062.76367188 791.916992188 c 128,-1,8
 1092 719.5390625 1092 719.5390625 1092 630.263671875 c 0,9,10
 1092 442.97265625 1092 442.97265625 962.794921875 333.762695312 c 0,11,12
 831.579198642 226 831.579198642 226 540.296867907 226 c 2,13,-1
 358 226 l 1,14,-1
 358 -226 l 1,15,-1
 358 -256 l 1,16,-1
 328 -256 l 1,17,-1
 158 -256 l 1,18,-1
 128 -256 l 1,19,-1
 128 -226 l 1,20,-1
 128 751.099609375 l 2,21,0
 128 900.361328125 128 900.361328125 192.787109375 962.180664062 c 128,-1,1
602 867 m 2,22,-1
 474 867 l 2,23,24
 408.44928476 867 408.44928476 867 373.65625 849.60546875 c 0,25,26
 358 830.192382812 358 830.192382812 358 792.74609375 c 2,27,-1
 358 443 l 1,28,-1
 540.296867907 443 l 2,29,30
 695.747890394 443 695.747890394 443 783.006399299 502.569335938 c 0,31,32
 862 560.159179688 862 560.159179688 862 661.45703125 c 0,33,34
 862 711.330078125 862 711.330078125 848.90625 748.450195312 c 0,35,36
 832.41665762 785.569335938 832.41665762 785.569335938 797.841989813 812.495117188 c 128,-1,37
 763.114560153 839.540039062 763.114560153 839.540039062 714.809449885 853.26953125 c 128,-1,38
 666.504339618 867 666.504339618 867 602 867 c 2,22,-1
EndSplineSet
EndChar

StartChar: q
Encoding: 113 113 84
Width: 1024
GlyphClass: 2
Flags: W
LayerCount: 2
Fore
SplineSet
241.205078125 916.098632812 m 0,0,1
 371.572466893 1024 371.572466893 1024 646 1024 c 2,2,-1
 730 1024 l 2,3,4
 946.426757812 1024 946.426757812 1024 1011.21289062 962.180664062 c 128,-1,5
 1076 900.361328125 1076 900.361328125 1076 751.099609375 c 2,6,-1
 1076 -226 l 1,7,-1
 1076 -256 l 1,8,-1
 1046 -256 l 1,9,-1
 876 -256 l 1,10,-1
 846 -256 l 1,11,-1
 846 -226 l 1,12,-1
 846 226 l 1,13,-1
 604.723558783 226 l 2,14,15
 345.075195312 226 345.075195312 226 228.904296875 331.712890625 c 0,16,17
 112 438.092773438 112 438.092773438 112 619.217773438 c 0,18,19
 112 806.748046875 112 806.748046875 241.205078125 916.098632812 c 0,0,1
730 867 m 2,20,-1
 646 867 l 2,21,22
 499.54401514 867 499.54401514 867 417.334643632 807.430664062 c 0,23,24
 342 749.840820312 342 749.840820312 342 648.54296875 c 0,25,26
 342 598.669921875 342 598.669921875 355.09375 561.549804688 c 0,27,28
 370.928693481 524.430664062 370.928693481 524.430664062 406.697704036 497.504882812 c 0,29,30
 477.466385061 443 477.466385061 443 604.723558783 443 c 2,31,-1
 846 443 l 1,32,-1
 846 792.74609375 l 2,33,34
 846 812.609375 846 812.609375 841.907226562 826.475585938 c 128,-1,35
 837.813476562 840.342773438 837.813476562 840.342773438 830.34375 849.60546875 c 0,36,37
 812.632921223 858.497070312 812.632921223 858.497070312 789.218476252 862.748046875 c 128,-1,38
 765.806463951 867 765.806463951 867 730 867 c 2,20,-1
EndSplineSet
EndChar

StartChar: r
Encoding: 114 114 85
Width: 1024
GlyphClass: 2
Flags: W
LayerCount: 2
Fore
SplineSet
1048 598 m 1,0,-1
 1018 598 l 1,1,-1
 848 598 l 1,2,-1
 818 598 l 1,3,-1
 818 628 l 2,4,5
 818 736.159179688 818 736.159179688 767.538619494 779.294921875 c 0,6,7
 713.565041013 823 713.565041013 823 604 823 c 0,8,9
 538.07525243 823 538.07525243 823 478.558752563 813.344726562 c 0,10,11
 458.772467903 810.135742188 458.772467903 810.135742188 442.018277461 806.772460938 c 128,-1,12
 425.262936319 803.409179688 425.262936319 803.409179688 413.705306593 800.453125 c 0,13,14
 402.694335938 797.497070312 402.694335938 797.497070312 396.5 794.857421875 c 2,15,-1
 390 792.087890625 l 1,16,-1
 390 30 l 1,17,-1
 390 0 l 1,18,-1
 360 0 l 1,19,-1
 190 0 l 1,20,-1
 160 0 l 1,21,-1
 160 30 l 1,22,-1
 160 911.603515625 l 1,23,-1
 160 926.7265625 l 1,24,-1
 173.359375 935.114257812 l 2,25,26
 179.873046875 939.205078125 179.873046875 939.205078125 191.901367188 946.1015625 c 0,27,28
 204.740234375 953.461914062 204.740234375 953.461914062 244.157226562 971.047851562 c 128,-1,29
 283.745117188 988.7109375 283.745117188 988.7109375 326.91015625 1002.42578125 c 0,30,31
 370.657226562 1017.18359375 370.657226562 1017.18359375 443.7420259 1028.57910156 c 0,32,33
 523.261142007 1040 523.261142007 1040 604 1040 c 0,34,35
 720.064194009 1040 720.064194009 1040 809.3125 1016.36914062 c 0,36,37
 886.125976562 992.737304688 886.125976562 992.737304688 940.043945312 944.321289062 c 0,38,39
 1048 847.380859375 1048 847.380859375 1048 628 c 2,40,-1
 1048 598 l 1,0,-1
EndSplineSet
EndChar

StartChar: s
Encoding: 115 115 86
Width: 1024
GlyphClass: 2
Flags: W
LayerCount: 2
Fore
SplineSet
284.421875 958.719726562 m 0,0,1
 421.434977256 1032 421.434977256 1032 718.040987914 1032 c 0,2,3
 751.058259163 1032 751.058259163 1032 778.05859375 1030.9765625 c 0,4,5
 804.536132812 1029.953125 804.536132812 1029.953125 829.916015625 1027.90234375 c 0,6,7
 880.786132812 1023.79199219 880.786132812 1023.79199219 905.25390625 1019.53710938 c 2,8,-1
 927.366210938 1015.515625 l 1,9,-1
 952 1011.03710938 l 1,10,-1
 952 993.362304688 l 1,11,-1
 952 888.177734375 l 1,12,-1
 952 867 l 1,13,-1
 922 867 l 1,14,-1
 718.040987914 867 l 2,15,16
 687.494985303 867 687.494985303 867 659.206324102 867 c 0,17,18
 630.917662901 866.118164062 630.917662901 866.118164062 605.592419863 864.396484375 c 128,-1,19
 580.268345827 862.674804688 580.268345827 862.674804688 557.436582452 860.161132812 c 128,-1,20
 534.605988078 857.647460938 534.605988078 857.647460938 514.590348709 854.35546875 c 128,-1,21
 494.574709341 851.063476562 494.574709341 851.063476562 477.315574915 847.0703125 c 128,-1,22
 460.056440489 843.077148438 460.056440489 843.077148438 445.489515937 838.369140625 c 0,23,24
 404.895947599 825.249023438 404.895947599 825.249023438 388.202148438 807.00390625 c 0,25,26
 374 788.7578125 374 788.7578125 374 761.774414062 c 0,27,28
 374 753.5078125 374 753.5078125 375.293945312 746.318359375 c 128,-1,29
 376.587890625 739.12890625 376.587890625 739.12890625 379.310546875 732.587890625 c 128,-1,30
 382.033203125 726.046875 382.033203125 726.046875 386.159179688 720.16015625 c 128,-1,31
 390.388642111 714.2734375 390.388642111 714.2734375 397.277566466 708.606445312 c 0,32,33
 407.522693404 700.177734375 407.522693404 700.177734375 419.95852868 692.873046875 c 128,-1,34
 432.393194955 685.569335938 432.393194955 685.569335938 447.749195349 679.139648438 c 128,-1,35
 463.104026742 672.708984375 463.104026742 672.708984375 480.916098759 667.49609375 c 0,36,37
 539.181458963 650.443359375 539.181458963 650.443359375 609.970329537 635.766601562 c 0,38,39
 646.785685841 628.133789062 646.785685841 628.133789062 683.590521134 619.358398438 c 128,-1,40
 720.396525429 610.583007812 720.396525429 610.583007812 756.703125 600.666015625 c 0,41,42
 820.158203125 580.193359375 820.158203125 580.193359375 872.856445312 550.125 c 0,43,44
 929.602539062 517.747070312 929.602539062 517.747070312 964.635742188 460.053710938 c 0,45,46
 982.422851562 430.760742188 982.422851562 430.760742188 991.211914062 396.140625 c 128,-1,47
 1000 361.51953125 1000 361.51953125 1000 322.33203125 c 0,48,49
 1000 142.110351562 1000 142.110351562 854.064453125 64.57421875 c 0,50,51
 710.221538566 -8 710.221538566 -8 402.017866527 -8 c 0,52,53
 380.30859375 -8 380.30859375 -8 361.232421875 -7.546875 c 128,-1,54
 342.155273438 -7.0947265625 342.155273438 -7.0947265625 323.640625 -6.1865234375 c 128,-1,55
 305.126953125 -5.27734375 305.126953125 -5.27734375 287.220703125 -3.9130859375 c 0,56,57
 260.157226562 -1.8515625 260.157226562 -1.8515625 240.869140625 0.189453125 c 128,-1,58
 221.58203125 2.2314453125 221.58203125 2.2314453125 208.963867188 4.42578125 c 2,59,-1
 185.068359375 8.408203125 l 1,60,-1
 160 12.5859375 l 1,61,-1
 160 30.5400390625 l 1,62,-1
 160 135.805664062 l 1,63,-1
 160 157 l 1,64,-1
 190 157 l 1,65,-1
 402.017866527 157 l 2,66,67
 498.978337042 157 498.978337042 157 572.427854457 164.513671875 c 128,-1,68
 645.878540873 172.02734375 645.878540873 172.02734375 693.35635756 186.241210938 c 0,69,70
 722.940272144 195.098632812 722.940272144 195.098632812 740.78040019 206.5625 c 0,71,72
 757.899414062 218.02734375 757.899414062 218.02734375 763.950195312 231.280273438 c 128,-1,73
 770 244.533203125 770 244.533203125 770 262 c 0,74,75
 770 290.0234375 770 290.0234375 752.256485442 310.639648438 c 0,76,77
 740.513867906 322.250976562 740.513867906 322.250976562 725.023432368 331.349609375 c 128,-1,78
 709.532996831 340.448242188 709.532996831 340.448242188 689.595680546 347.194335938 c 0,79,80
 643.807070661 362.688476562 643.807070661 362.688476562 584.301400133 377.795898438 c 0,81,82
 524.495296284 392.98046875 524.495296284 392.98046875 462.319626905 404.740234375 c 0,83,84
 395.780075867 417.326171875 395.780075867 417.326171875 341.345703125 439.856445312 c 0,85,86
 287.444335938 462.579101562 287.444335938 462.579101562 245.359375 491.87890625 c 0,87,88
 222.516601562 507.782226562 222.516601562 507.782226562 204.073242188 529.395507812 c 128,-1,89
 185.629882812 551.0078125 185.629882812 551.0078125 171.837890625 577.748046875 c 0,90,91
 144 631.71875 144 631.71875 144 701 c 0,92,93
 144 880.645507812 144 880.645507812 284.421875 958.719726562 c 0,0,1
EndSplineSet
EndChar

StartChar: t
Encoding: 116 116 87
Width: 1024
GlyphClass: 2
Flags: W
LayerCount: 2
Fore
SplineSet
984 14.8544921875 m 1,0,-1
 961.611328125 8.9814453125 l 2,1,2
 896.869140625 -8 896.869140625 -8 792.856825749 -8 c 0,3,4
 578.127484219 -8 578.127484219 -8 463.987119347 68.953125 c 0,5,6
 346.472807991 148.180664062 346.472807991 148.180664062 346.472807991 327.975585938 c 2,7,-1
 346.472807991 732.673828125 l 1,8,-1
 94 732.673828125 l 1,9,-1
 64 732.673828125 l 1,10,-1
 64 761.307617188 l 1,11,-1
 64 911.161132812 l 1,12,-1
 64 939.794921875 l 1,13,-1
 94 939.794921875 l 1,14,-1
 346.472807991 939.794921875 l 1,15,-1
 346.472807991 1250 l 1,16,-1
 346.472807991 1280 l 1,17,-1
 380.634850166 1280 l 1,18,-1
 574.219755827 1280 l 1,19,-1
 608.381798002 1280 l 1,20,-1
 608.381798002 1250 l 1,21,-1
 608.381798002 925 l 1,22,-1
 1018 925 l 1,23,-1
 1048 925 l 1,24,-1
 1048 895 l 1,25,-1
 1048 738 l 1,26,-1
 1048 708 l 1,27,-1
 1018 708 l 1,28,-1
 608.381798002 708 l 1,29,-1
 608.381798002 284 l 2,30,31
 608.381798002 247.025390625 608.381798002 247.025390625 619.166416655 223.647460938 c 128,-1,32
 629.951035308 200.26953125 629.951035308 200.26953125 650.24475626 187.176757812 c 0,33,34
 672.565736421 172.775390625 672.565736421 172.775390625 708.21013544 164.887695312 c 128,-1,35
 743.855646504 157 743.855646504 157 792.856825749 157 c 2,36,-1
 954 157 l 1,37,-1
 984 157 l 1,38,-1
 984 135.904296875 l 1,39,-1
 984 31.1298828125 l 1,40,-1
 984 14.8544921875 l 1,0,-1
EndSplineSet
EndChar

StartChar: u
Encoding: 117 117 88
Width: 1024
GlyphClass: 2
Flags: W
LayerCount: 2
Fore
SplineSet
128 1024 m 1,0,-1
 158 1024 l 1,1,-1
 328 1024 l 1,2,-1
 358 1024 l 1,3,-1
 358 994 l 1,4,-1
 358 382.284179688 l 2,5,6
 358 281.732421875 358 281.732421875 408.461380506 241.630859375 c 0,7,8
 434.807805256 221.796875 434.807805256 221.796875 475.226138998 211.3984375 c 128,-1,9
 515.64447274 201 515.64447274 201 572 201 c 0,10,11
 637.92474757 201 637.92474757 201 697.441247437 210.655273438 c 0,12,13
 756.534289742 220.241210938 756.534289742 220.241210938 779.5 229.142578125 c 2,14,-1
 786 231.912109375 l 1,15,-1
 786 994 l 1,16,-1
 786 1024 l 1,17,-1
 816 1024 l 1,18,-1
 986 1024 l 1,19,-1
 1016 1024 l 1,20,-1
 1016 994 l 1,21,-1
 1016 112.396484375 l 1,22,-1
 1016 97.2734375 l 1,23,-1
 1002.640625 88.8857421875 l 2,24,25
 1000.35644531 87.451171875 1000.35644531 87.451171875 997.517578125 85.7431640625 c 128,-1,26
 994.677734375 84.0361328125 994.677734375 84.0361328125 991.389648438 82.115234375 c 128,-1,27
 988.1015625 80.193359375 988.1015625 80.193359375 984.098632812 77.8984375 c 0,28,29
 971.259765625 70.5380859375 971.259765625 70.5380859375 931.842773438 52.9521484375 c 128,-1,30
 892.254882812 35.2890625 892.254882812 35.2890625 849.08984375 21.57421875 c 0,31,32
 805.342773438 6.81640625 805.342773438 6.81640625 732.2579741 -4.5791015625 c 0,33,34
 692.507046295 -10.2880859375 692.507046295 -10.2880859375 652.432771822 -13.14453125 c 128,-1,35
 612.358497348 -16 612.358497348 -16 572 -16 c 0,36,37
 342.5078125 -16 342.5078125 -16 235.956054688 74.3134765625 c 0,38,39
 128 165.817382812 128 165.817382812 128 372.897460938 c 2,40,-1
 128 994 l 1,41,-1
 128 1024 l 1,0,-1
EndSplineSet
EndChar

StartChar: v
Encoding: 118 118 89
Width: 1024
GlyphClass: 2
Flags: W
LayerCount: 2
Fore
SplineSet
64 1024 m 1,0,-1
 105.802734375 1024 l 1,1,-1
 284.802734375 1024 l 1,2,-1
 306.344726562 1024 l 1,3,-1
 313.655993544 1003.58886719 l 1,4,-1
 567.437957437 333.588867188 l 1,5,-1
 567.906210075 332.3515625 l 1,6,-1
 568.25273896 331.08203125 l 1,7,-1
 583.802674351 274.080078125 l 1,8,-1
 599.353706353 331.08203125 l 1,9,-1
 599.699138627 332.3515625 l 1,10,-1
 600.168487876 333.588867188 l 1,11,-1
 853.950451768 1003.58886719 l 1,12,-1
 861.26171875 1024 l 1,13,-1
 882.802734375 1024 l 1,14,-1
 1061.80273438 1024 l 1,15,-1
 1103.60644531 1024 l 1,16,-1
 1090.22460938 986.630859375 l 1,17,-1
 730.257185732 20.396484375 l 1,18,-1
 722.518406179 0 l 1,19,-1
 698.341436816 0 l 1,20,-1
 469.263911886 0 l 1,21,-1
 445.088039133 0 l 1,22,-1
 437.349259581 20.396484375 l 1,23,-1
 77.3818359375 986.630859375 l 1,24,-1
 64 1024 l 1,0,-1
EndSplineSet
EndChar

StartChar: w
Encoding: 119 119 90
Width: 1024
GlyphClass: 2
Flags: W
LayerCount: 2
Fore
SplineSet
32 1024 m 1,0,-1
 65.7861328125 1024 l 1,1,-1
 223.786132812 1024 l 1,2,-1
 250.416992188 1024 l 1,3,-1
 253.575195312 997.556640625 l 1,4,-1
 339.172109237 332.44921875 l 1,5,-1
 339.43163177 333.17578125 l 1,6,-1
 487.318212751 747.17578125 l 1,7,-1
 494.75749675 768 l 1,8,-1
 519.077689964 768 l 1,9,-1
 632.494466355 768 l 1,10,-1
 656.815745438 768 l 1,11,-1
 664.253943568 747.17578125 l 1,12,-1
 812.140524549 333.17578125 l 1,13,-1
 812.400047082 332.44921875 l 1,14,-1
 897.998046875 997.556640625 l 1,15,-1
 901.155273438 1024 l 1,16,-1
 927.786132812 1024 l 1,17,-1
 1085.78613281 1024 l 1,18,-1
 1119.57324219 1024 l 1,19,-1
 1115.57617188 992.354492188 l 1,20,-1
 993.576171875 26.451171875 l 1,21,-1
 990.424804688 0 l 1,22,-1
 963.786132812 0 l 1,23,-1
 839.313293893 0 l 1,24,-1
 747.023171927 0 l 1,25,-1
 721.90052201 0 l 1,26,-1
 714.962909184 21.7158203125 l 1,27,-1
 575.78607816 457.360351562 l 1,28,-1
 436.610333003 21.7158203125 l 1,29,-1
 429.672720178 0 l 1,30,-1
 404.548984392 0 l 1,31,-1
 313.370791607 0 l 1,32,-1
 187.786132812 0 l 1,33,-1
 161.1484375 0 l 1,34,-1
 157.997070312 26.451171875 l 1,35,-1
 35.9970703125 992.354492188 l 1,36,-1
 32 1024 l 1,0,-1
EndSplineSet
EndChar

StartChar: x
Encoding: 120 120 91
Width: 1024
GlyphClass: 2
Flags: W
LayerCount: 2
Fore
SplineSet
64 1024 m 1,0,-1
 120.389648438 1024 l 1,1,-1
 327.202621431 1024 l 1,2,-1
 345.63725847 1024 l 1,3,-1
 355.493767922 1010.04199219 l 1,4,-1
 598.389591799 666.102539062 l 1,5,-1
 841.285415676 1010.04199219 l 1,6,-1
 851.143014967 1024 l 1,7,-1
 869.576562167 1024 l 1,8,-1
 1076.38964844 1024 l 1,9,-1
 1132.78027344 1024 l 1,10,-1
 1101.26855469 979.82421875 l 1,11,-1
 753.709173963 512 l 1,12,-1
 1101.26855469 44.17578125 l 1,13,-1
 1132.78027344 -0 l 1,14,-1
 1076.38964844 0 l 1,15,-1
 869.576562167 0 l 1,16,-1
 851.143014967 0 l 1,17,-1
 841.285415676 13.9580078125 l 1,18,-1
 598.389591799 357.897460938 l 1,19,-1
 355.493767922 13.9580078125 l 1,20,-1
 345.63725847 0 l 1,21,-1
 327.202621431 0 l 1,22,-1
 120.389648438 0 l 1,23,-1
 64 0 l 1,24,-1
 95.5107421875 44.17578125 l 1,25,-1
 443.071099475 512 l 1,26,-1
 95.5107421875 979.82421875 l 1,27,-1
 64 1024 l 1,0,-1
EndSplineSet
EndChar

StartChar: y
Encoding: 121 121 92
Width: 1024
GlyphClass: 2
Flags: W
LayerCount: 2
Fore
SplineSet
128 1024 m 1,0,-1
 158 1024 l 1,1,-1
 328 1024 l 1,2,-1
 358 1024 l 1,3,-1
 358 994 l 1,4,-1
 358 559.6484375 l 2,5,6
 358 532.290039062 358 532.290039062 368.810546875 512.3203125 c 0,7,8
 380.66622459 492.350585938 380.66622459 492.350585938 408.116170538 476.596679688 c 0,9,10
 466.659178294 443 466.659178294 443 572 443 c 2,11,-1
 786 443 l 1,12,-1
 786 994 l 1,13,-1
 786 1024 l 1,14,-1
 816 1024 l 1,15,-1
 986 1024 l 1,16,-1
 1016 1024 l 1,17,-1
 1016 994 l 1,18,-1
 1016 134.3203125 l 2,19,20
 1016 -77.1162109375 1016 -77.1162109375 881.068359375 -169.817382812 c 0,21,22
 747.219374108 -264 747.219374108 -264 458.881597718 -264 c 0,23,24
 394.960218661 -264 394.960218661 -264 342.508789062 -259.896484375 c 0,25,26
 292.936523438 -255.765625 292.936523438 -255.765625 270.509765625 -251.493164062 c 2,27,-1
 248.633789062 -247.515625 l 1,28,-1
 224 -243.037109375 l 1,29,-1
 224 -218 l 1,30,-1
 224 -69 l 1,31,-1
 224 -39 l 1,32,-1
 254 -39 l 1,33,-1
 458.881597718 -39 l 2,34,35
 544.119692292 -39 544.119692292 -39 607.621065888 -27.208984375 c 128,-1,36
 671.121288784 -15.41796875 671.121288784 -15.41796875 712.03327278 6.7763671875 c 0,37,38
 737.502864212 18.9306640625 737.502864212 18.9306640625 754.278917952 35.9990234375 c 128,-1,39
 770.932617188 53.068359375 770.932617188 53.068359375 778.465820312 77.265625 c 128,-1,40
 786 101.463867188 786 101.463867188 786 132.759765625 c 2,41,-1
 786 226 l 1,42,-1
 572 226 l 2,43,44
 353.416992188 226 353.416992188 226 242.176757812 312.270507812 c 0,45,46
 128 400.817382812 128 400.817382812 128 553.217773438 c 2,47,-1
 128 994 l 1,48,-1
 128 1024 l 1,0,-1
EndSplineSet
EndChar

StartChar: z
Encoding: 122 122 93
Width: 1024
GlyphClass: 2
Flags: W
LayerCount: 2
Fore
SplineSet
160 1024 m 1,0,-1
 190 1024 l 1,1,-1
 954 1024 l 1,2,-1
 984 1024 l 1,3,-1
 984 994 l 1,4,-1
 984 837 l 1,5,-1
 984 826.90234375 l 1,6,-1
 977.89453125 818.860351562 l 1,7,-1
 422.872745966 157 l 1,8,-1
 986 157 l 1,9,-1
 1016 157 l 1,10,-1
 1016 136.625976562 l 1,11,-1
 1016 30 l 1,12,-1
 1016 0 l 1,13,-1
 986 0 l 1,14,-1
 158 0 l 1,15,-1
 128 0 l 1,16,-1
 128 30 l 1,17,-1
 128 187 l 1,18,-1
 128 197.09765625 l 1,19,-1
 134.10546875 205.139648438 l 1,20,-1
 683.42111994 867 l 1,21,-1
 190 867 l 1,22,-1
 160 867 l 1,23,-1
 160 887.374023438 l 1,24,-1
 160 994 l 1,25,-1
 160 1024 l 1,0,-1
EndSplineSet
EndChar

StartChar: braceleft
Encoding: 123 123 94
Width: 1024
GlyphClass: 2
Flags: W
LayerCount: 2
Fore
SplineSet
822 1250 m 1,0,-1
 704 1250 l 2,1,2
 627.426406871 1250 627.426406871 1250 584.713203436 1207.28679656 c 0,3,4
 542.278589947 1164.85218308 542.278589947 1164.85218308 542.000225056 1088.56669005 c 2,5,-1
 557.978151152 670.144750402 l 1,6,-1
 559.044393969 642.222516652 l 1,7,-1
 531.268105227 639.178539804 l 1,8,-1
 412 626.108062519 l 1,9,-1
 412 554.891937481 l 1,10,-1
 531.268105227 541.821460196 l 1,11,-1
 559.044393969 538.777483348 l 1,12,-1
 557.978151152 510.855249598 l 1,13,-1
 541.980492114 91.916553524 l 2,14,15
 540.664080303 53.3018070732 540.664080303 53.3018070732 550.854165613 24.4890376841 c 128,-1,16
 561.044250924 -4.3237317051 561.044250924 -4.3237317051 582.611463201 -25.6855419606 c 0,17,18
 626.342406414 -69 626.342406414 -69 704 -69 c 2,19,-1
 822 -69 l 1,20,-1
 852 -69 l 1,21,-1
 852 -99 l 1,22,-1
 852 -256 l 1,23,-1
 852 -286 l 1,24,-1
 822 -286 l 1,25,-1
 704 -286 l 2,26,27
 523.895216591 -286 523.895216591 -286 418.180054114 -184.099302149 c 0,28,29
 312 -81.7504871005 312 -81.7504871005 312 93 c 2,30,-1
 312 94.4287330499 l 1,31,-1
 312.135777254 95.8509997848 l 1,32,-1
 348.999643623 482 l 1,33,-1
 64 482 l 1,34,-1
 34 482 l 1,35,-1
 34 512 l 1,36,-1
 34 669 l 1,37,-1
 34 699 l 1,38,-1
 64 699 l 1,39,-1
 348.999643623 699 l 1,40,-1
 312.134287611 1085.16464756 l 2,41,42
 295.73764621 1257.87593697 295.73764621 1257.87593697 409.049534548 1363.44945245 c 0,43,44
 520.19017459 1467 520.19017459 1467 704 1467 c 2,45,-1
 822 1467 l 1,46,-1
 852 1467 l 1,47,-1
 852 1437 l 1,48,-1
 852 1280 l 1,49,-1
 852 1250 l 1,50,-1
 822 1250 l 1,0,-1
EndSplineSet
EndChar

StartChar: bar
Encoding: 124 124 95
Width: 1024
GlyphClass: 2
Flags: W
LayerCount: 2
Fore
SplineSet
597 -286 m 1,0,-1
 427 -286 l 1,1,-1
 397 -286 l 1,2,-1
 397 -256 l 1,3,-1
 397 1437 l 1,4,-1
 397 1467 l 1,5,-1
 427 1467 l 1,6,-1
 597 1467 l 1,7,-1
 627 1467 l 1,8,-1
 627 1437 l 1,9,-1
 627 -256 l 1,10,-1
 627 -286 l 1,11,-1
 597 -286 l 1,0,-1
EndSplineSet
EndChar

StartChar: braceright
Encoding: 125 125 96
Width: 1024
GlyphClass: 2
Flags: W
LayerCount: 2
Fore
SplineSet
172 1280 m 1,0,-1
 172 1437 l 1,1,-1
 172 1467 l 1,2,-1
 202 1467 l 1,3,-1
 320 1467 l 2,4,5
 503.80982541 1467 503.80982541 1467 614.950465452 1363.44945245 c 0,6,7
 728.26234999 1257.87594051 728.26234999 1257.87594051 711.864222746 1085.14900022 c 2,8,-1
 675.000356377 699 l 1,9,-1
 960 699 l 1,10,-1
 990 699 l 1,11,-1
 990 669 l 1,12,-1
 990 512 l 1,13,-1
 990 482 l 1,14,-1
 960 482 l 1,15,-1
 675.000356377 482 l 1,16,-1
 711.864222746 95.8509997848 l 1,17,-1
 712 94.4287330499 l 1,18,-1
 712 93 l 2,19,20
 712 6.84670047013 712 6.84670047013 685.474395782 -63.0203881027 c 128,-1,21
 658.948791564 -132.887476676 658.948791564 -132.887476676 605.819945886 -184.099302149 c 0,22,23
 500.104783409 -286 500.104783409 -286 320 -286 c 2,24,-1
 202 -286 l 1,25,-1
 172 -286 l 1,26,-1
 172 -256 l 1,27,-1
 172 -99 l 1,28,-1
 172 -69 l 1,29,-1
 202 -69 l 1,30,-1
 320 -69 l 2,31,32
 360.007075637 -69 360.007075637 -69 389.812757752 -58.1241523181 c 128,-1,33
 419.618439867 -47.2483046363 419.618439867 -47.2483046363 441.388536799 -25.6855419606 c 0,34,35
 484.570575422 17.0852391513 484.570575422 17.0852391513 482.019507886 91.916553524 c 2,36,-1
 466.021848848 510.855249598 l 1,37,-1
 464.955606031 538.777483348 l 1,38,-1
 492.731894773 541.821460196 l 1,39,-1
 612 554.891937481 l 1,40,-1
 612 626.108062519 l 1,41,-1
 492.731894773 639.178539804 l 1,42,-1
 464.955606031 642.222516652 l 1,43,-1
 466.021848848 670.144750402 l 1,44,-1
 481.999774944 1088.56669005 l 2,45,46
 481.855008195 1128.2398067 481.855008195 1128.2398067 471.183780759 1157.15042325 c 128,-1,47
 460.512553323 1186.06103981 460.512553323 1186.06103981 439.286796564 1207.28679656 c 0,48,49
 396.573593129 1250 396.573593129 1250 320 1250 c 2,50,-1
 202 1250 l 1,51,-1
 172 1250 l 1,52,-1
 172 1280 l 1,0,-1
EndSplineSet
EndChar

StartChar: asciitilde
Encoding: 126 126 97
Width: 1024
GlyphClass: 2
Flags: W
LayerCount: 2
Fore
SplineSet
34 379 m 2,0,1
 34 587.223227551 34 587.223227551 59.6847090823 705.37288933 c 0,2,3
 68.5084347661 745.962027475 68.5084347661 745.962027475 80.8896375911 779.209666038 c 128,-1,4
 93.2708404161 812.4573046 93.2708404161 812.4573046 110.418675166 839.986071296 c 128,-1,5
 127.566509917 867.514837991 127.566509917 867.514837991 149.094067203 887.490859616 c 0,6,7
 213.225276742 947 213.225276742 947 325 947 c 0,8,9
 394.548196881 947 394.548196881 947 446.729417998 927.015702551 c 0,10,11
 500.78743309 906.312632941 500.78743309 906.312632941 530.722298848 871.588188662 c 0,12,13
 558.43110079 839.445978409 558.43110079 839.445978409 577.6854942 798.18656396 c 128,-1,14
 596.931483765 756.94515775 596.931483765 756.94515775 604.101882556 713.371195864 c 0,15,16
 606.231379402 700.430407339 606.231379402 700.430407339 608.524194802 687.710906129 c 128,-1,17
 610.817010202 674.991404918 610.817010202 674.991404918 613.270354735 662.506730688 c 128,-1,18
 615.723699268 650.022056457 615.723699268 650.022056457 618.339785093 637.759154153 c 0,19,20
 626.105159969 601.35895942 626.105159969 601.35895942 634.288856317 573.438113058 c 0,21,22
 640.452362876 552.409678913 640.452362876 552.409678913 653.848403082 540.044103339 c 0,23,24
 664.729515032 530 664.729515032 530 683 530 c 0,25,26
 709.784551593 530 709.784551593 530 727.396781191 545.026702494 c 128,-1,27
 745.009010789 560.053404989 745.009010789 560.053404989 756.974973155 596.791008744 c 0,28,29
 784 679.762582392 784 679.762582392 784 901 c 2,30,-1
 784 931 l 1,31,-1
 814 931 l 1,32,-1
 960 931 l 1,33,-1
 990 931 l 1,34,-1
 990 901 l 2,35,36
 990 692.776772449 990 692.776772449 964.315290918 574.62711067 c 0,37,38
 950.991692148 513.33855633 950.991692148 513.33855633 928.957254465 467.884067725 c 128,-1,39
 906.922816782 422.429579119 906.922816782 422.429579119 874.79875868 392.910174377 c 0,40,41
 810.69062774 334 810.69062774 334 699 334 c 0,42,43
 681.858477091 334 681.858477091 334 665.786070566 335.209537151 c 128,-1,44
 649.71366404 336.419074302 649.71366404 336.419074302 634.470902477 338.875183705 c 128,-1,45
 619.228140914 341.331293108 619.228140914 341.331293108 604.890944755 345.114210186 c 128,-1,46
 590.553748596 348.897127264 590.553748596 348.897127264 577.270582002 353.984297449 c 0,47,48
 523.21256691 374.687367059 523.21256691 374.687367059 493.277701152 409.411811338 c 0,49,50
 479.388332014 425.523479538 479.388332014 425.523479538 467.641876214 443.903192131 c 128,-1,51
 455.895420414 462.282904724 455.895420414 462.282904724 446.3145058 482.81343604 c 0,52,53
 427.068516235 524.05484225 427.068516235 524.05484225 419.898117444 567.628804136 c 0,54,55
 413.512824356 606.431739056 413.512824356 606.431739056 405.660214907 643.240845847 c 0,56,57
 397.894840031 679.64104058 397.894840031 679.64104058 389.711143683 707.561886942 c 0,58,59
 383.547637124 728.590321087 383.547637124 728.590321087 370.151596918 740.955896661 c 0,60,61
 364.617557697 746.064240558 364.617557697 746.064240558 357.828753671 748.532120279 c 128,-1,62
 351.039949646 751 351.039949646 751 341 751 c 0,63,64
 327.753853252 751 327.753853252 751 317.265692141 747.643500201 c 128,-1,65
 306.77753103 744.287000403 306.77753103 744.287000403 297.486047146 736.569015074 c 128,-1,66
 288.194563262 728.851029746 288.194563262 728.851029746 280.687014012 715.781530647 c 128,-1,67
 273.179464763 702.712031548 273.179464763 702.712031548 267.040540541 683.756756757 c 0,68,69
 258.500756653 657.388301245 258.500756653 657.388301245 252.510574748 614.953393706 c 128,-1,70
 246.520392844 572.518486166 246.520392844 572.518486166 243.260196422 512.561849589 c 128,-1,71
 240 452.605213012 240 452.605213012 240 379 c 2,72,-1
 240 349 l 1,73,-1
 210 349 l 1,74,-1
 64 349 l 1,75,-1
 34 349 l 1,76,-1
 34 379 l 2,0,1
EndSplineSet
EndChar

StartChar: cent
Encoding: 162 162 100
Width: 1024
GlyphClass: 2
Flags: W
LayerCount: 2
Fore
SplineSet
512 1310 m 1,0,-1
 682 1310 l 1,1,-1
 712 1310 l 1,2,-1
 712 1280 l 1,3,-1
 712 1060.68344171 l 1,4,5
 718.223413956 1060.54670039 718.223413956 1060.54670039 724.103199493 1060.37037898 c 128,-1,6
 729.982985031 1060.19405756 729.982985031 1060.19405756 735.689652886 1059.97158547 c 128,-1,7
 741.396320742 1059.74911339 741.396320742 1059.74911339 746.892841764 1059.48309104 c 128,-1,8
 752.389362787 1059.2170687 752.389362787 1059.2170687 757.885345406 1058.8967573 c 128,-1,9
 763.381328026 1058.57644591 763.381328026 1058.57644591 768.798038885 1058.20889198 c 128,-1,10
 774.214749745 1057.84133804 774.214749745 1057.84133804 779.800894967 1057.41163457 c 0,11,12
 826.969442476 1053.78328476 826.969442476 1053.78328476 849.748544599 1049.44440816 c 2,13,-1
 869.883484054 1045.41742027 l 1,14,-1
 894 1040.59411708 l 1,15,-1
 894 1016 l 1,16,-1
 894 867 l 1,17,-1
 894 837 l 1,18,-1
 864 837 l 1,19,-1
 691 837 l 1,20,-1
 691 443 l 1,21,-1
 864 443 l 1,22,-1
 894 443 l 1,23,-1
 894 413 l 1,24,-1
 894 264 l 1,25,-1
 894 240.083446164 l 1,26,-1
 870.684744045 234.754244803 l 2,27,28
 807.25199804 220.25533143 807.25199804 220.25533143 712 218.296018501 c 1,29,-1
 712 0 l 1,30,-1
 712 -30 l 1,31,-1
 682 -30 l 1,32,-1
 512 -30 l 1,33,-1
 482 -30 l 1,34,-1
 482 0 l 1,35,-1
 482 227.492673323 l 1,36,37
 456.148159543 231.104252892 456.148159543 231.104252892 431.97131723 236.000338913 c 128,-1,38
 407.794474916 240.896424934 407.794474916 240.896424934 385.025009061 247.156110758 c 128,-1,39
 362.255543206 253.415796582 362.255543206 253.415796582 341.128578703 261.010116446 c 128,-1,40
 320.001614199 268.604436309 320.001614199 268.604436309 300.307551902 277.621933861 c 128,-1,41
 280.613489605 286.639431413 280.613489605 286.639431413 262.525563699 297.041060572 c 128,-1,42
 244.437637792 307.442689732 244.437637792 307.442689732 227.80813984 319.327074464 c 128,-1,43
 211.178641888 331.211459197 211.178641888 331.211459197 196.122783534 344.530103125 c 0,44,45
 138.770184956 395.265094175 138.770184956 395.265094175 110.385092478 469.77746123 c 128,-1,46
 82 544.289828285 82 544.289828285 82 640 c 0,47,48
 82 722.148384156 82 722.148384156 111.434944236 791.833167874 c 128,-1,49
 140.869888471 861.517951591 140.869888471 861.517951591 198.904273358 916.313208019 c 0,50,51
 305.460801211 1016.92239478 305.460801211 1016.92239478 482 1048.52997885 c 1,52,-1
 482 1280 l 1,53,-1
 482 1310 l 1,54,-1
 512 1310 l 1,0,-1
503 822.928512698 m 1,55,56
 474.162061579 816.525709492 474.162061579 816.525709492 449.443553239 807.333481123 c 128,-1,57
 424.725044899 798.141252754 424.725044899 798.141252754 404.648325575 786.585744634 c 128,-1,58
 384.57160625 775.030236514 384.57160625 775.030236514 368.121919686 760.80682332 c 0,59,60
 339.39151045 735.964740145 339.39151045 735.964740145 325.695755225 706.411191122 c 128,-1,61
 312 676.857642098 312 676.857642098 312 640 c 0,62,63
 312 595.047922472 312 595.047922472 325.287218799 563.074310428 c 128,-1,64
 338.574437598 531.100698384 338.574437598 531.100698384 365.134419136 509.105713673 c 0,65,66
 413.322452997 469.199998132 413.322452997 469.199998132 503 453.558387158 c 1,67,-1
 503 822.928512698 l 1,55,56
EndSplineSet
EndChar

StartChar: sterling
Encoding: 163 163 101
Width: 1024
GlyphClass: 2
Flags: W
LayerCount: 2
Fore
SplineSet
618 1318 m 0,0,1
 647.160550591 1318 647.160550591 1318 675.739495758 1313.80119595 c 128,-1,2
 704.318440924 1309.6023919 704.318440924 1309.6023919 732.146020662 1301.22710091 c 0,3,4
 759.675275704 1292.94159697 759.675275704 1292.94159697 783.247526308 1282.64611624 c 128,-1,5
 806.819776912 1272.35063551 806.819776912 1272.35063551 826.560052178 1259.83919344 c 0,6,7
 863.592722619 1236.36778259 863.592722619 1236.36778259 892.497133708 1212.71871898 c 0,8,9
 921.986906505 1188.59072305 921.986906505 1188.59072305 936.624113702 1171.70163782 c 2,10,-1
 950.577300841 1155.75513824 l 1,11,-1
 967.685882292 1136.20247372 l 1,12,-1
 950.777698071 1116.4762588 l 1,13,-1
 854.777698071 1004.4762588 l 1,14,-1
 830.439088915 976.081214781 l 1,15,-1
 808 1006 l 2,16,17
 805.635570245 1009.15257301 805.635570245 1009.15257301 799.829327516 1015.85208385 c 0,18,19
 794.767831101 1021.69227202 794.767831101 1021.69227202 774.93274256 1038.75967379 c 0,20,21
 765.087146275 1047.23146594 765.087146275 1047.23146594 754.957333423 1054.62964582 c 128,-1,22
 744.827520572 1062.02782569 744.827520572 1062.02782569 734.401591593 1068.37404333 c 0,23,24
 730.613688715 1070.67972334 730.613688715 1070.67972334 726.2838333 1072.95926534 c 128,-1,25
 721.953977886 1075.23880733 721.953977886 1075.23880733 716.948770857 1077.54422248 c 128,-1,26
 711.943563827 1079.84963763 711.943563827 1079.84963763 706.439700287 1082.08833293 c 128,-1,27
 700.935836747 1084.32702822 700.935836747 1084.32702822 694.732721634 1086.56134295 c 128,-1,28
 688.52960652 1088.79565767 688.52960652 1088.79565767 681.871130921 1090.92267071 c 0,29,30
 650.324708796 1101 650.324708796 1101 618 1101 c 0,31,32
 573.521401883 1101 573.521401883 1101 540.250253264 1088.77634889 c 128,-1,33
 506.979104646 1076.55269777 506.979104646 1076.55269777 482.713203436 1052.28679656 c 128,-1,34
 458.44689656 1028.02048969 458.44689656 1028.02048969 446.22344828 994.749775868 c 128,-1,35
 434 961.479062046 434 961.479062046 434 917 c 2,36,-1
 434 749 l 1,37,-1
 832 749 l 1,38,-1
 862 749 l 1,39,-1
 862 719 l 1,40,-1
 862 561 l 1,41,-1
 862 531 l 1,42,-1
 832 531 l 1,43,-1
 434 531 l 1,44,-1
 434 187 l 1,45,-1
 928 187 l 1,46,-1
 958 187 l 1,47,-1
 958 157 l 1,48,-1
 958 0 l 1,49,-1
 958 -30 l 1,50,-1
 928 -30 l 1,51,-1
 64 -30 l 1,52,-1
 34 -30 l 1,53,-1
 34 0 l 1,54,-1
 34 157 l 1,55,-1
 34 187 l 1,56,-1
 64 187 l 1,57,-1
 204 187 l 1,58,-1
 204 531 l 1,59,-1
 64 531 l 1,60,-1
 34 531 l 1,61,-1
 34 561 l 1,62,-1
 34 719 l 1,63,-1
 34 749 l 1,64,-1
 64 749 l 1,65,-1
 204 749 l 1,66,-1
 204 917 l 2,67,68
 204 1101.73121633 204 1101.73121633 316.156557625 1210.07662879 c 0,69,70
 427.876228324 1318 427.876228324 1318 618 1318 c 0,0,1
EndSplineSet
EndChar

StartChar: currency
Encoding: 164 164 102
Width: 1024
GlyphClass: 2
Flags: W
LayerCount: 2
Fore
SplineSet
221.560317308 1263.70573714 m 1,0,-1
 361.070199724 1036.66024223 l 1,1,2
 428.399547575 1062 428.399547575 1062 512 1062 c 0,3,4
 553.078553727 1062 553.078553727 1062 591.069278963 1055.59589054 c 128,-1,5
 629.060004199 1049.19178109 629.060004199 1049.19178109 662.880368386 1036.57979425 c 1,6,-1
 802.439682692 1263.70573714 l 1,7,-1
 818.394701671 1289.67174842 l 1,8,-1
 844.106264766 1273.30984463 l 1,9,-1
 976.106264766 1189.30984463 l 1,10,-1
 1001.84370733 1172.93147209 l 1,11,-1
 985.036483576 1147.47200889 l 1,12,-1
 827.533930739 908.888260214 l 1,13,14
 865.304179361 853.878751339 865.304179361 853.878751339 883.65208968 786.884003843 c 128,-1,15
 902 719.889256347 902 719.889256347 902 640 c 0,16,17
 902 479.565934486 902 479.565934486 827.533930739 371.111739786 c 1,18,-1
 985.036483576 132.527991111 l 1,19,-1
 1001.84370733 107.068527909 l 1,20,-1
 976.106264766 90.690155368 l 1,21,-1
 844.106264766 6.69015536804 l 1,22,-1
 818.394701671 -9.67174841959 l 1,23,-1
 802.439682692 16.2942628592 l 1,24,-1
 662.880368386 243.420205751 l 1,25,26
 628.04842777 230.430990907 628.04842777 230.430990907 590.794178551 224.215495453 c 128,-1,27
 553.539929332 218 553.539929332 218 512 218 c 0,28,29
 429.286576868 218 429.286576868 218 361.119631614 243.420205751 c 1,30,-1
 221.560317308 16.2942628592 l 1,31,-1
 205.605298329 -9.67174841959 l 1,32,-1
 179.893735234 6.69015536804 l 1,33,-1
 47.8937352342 90.690155368 l 1,34,-1
 22.1562926699 107.068527909 l 1,35,-1
 38.9635164241 132.527991111 l 1,36,-1
 196.466069261 371.111739786 l 1,37,38
 122 479.565934486 122 479.565934486 122 640 c 128,-1,39
 122 800.434065514 122 800.434065514 196.466069261 908.888260214 c 1,40,-1
 38.9635164241 1147.47200889 l 1,41,-1
 22.1562926699 1172.93147209 l 1,42,-1
 47.8937352342 1189.30984463 l 1,43,-1
 179.893735234 1273.30984463 l 1,44,-1
 205.605298329 1289.67174842 l 1,45,-1
 221.560317308 1263.70573714 l 1,0,-1
512 856 m 128,-1,47
 470.864054493 856 470.864054493 856 440.271838166 842.404124386 c 128,-1,48
 409.679621838 828.808248771 409.679621838 828.808248771 386.632593332 800.898085809 c 0,49,50
 363.172908087 772.488191751 363.172908087 772.488191751 351.086454043 732.573120917 c 128,-1,51
 339 692.658050083 339 692.658050083 339 640 c 0,52,53
 339 536.785421712 339 536.785421712 386.632593332 479.101914191 c 0,54,55
 432.133416413 424 432.133416413 424 512 424 c 128,-1,56
 591.866583587 424 591.866583587 424 637.367406668 479.101914191 c 0,57,58
 685 536.785421712 685 536.785421712 685 640 c 0,59,60
 685 666.558216211 685 666.558216211 681.893252857 689.975071522 c 128,-1,61
 678.786505715 713.391926833 678.786505715 713.391926833 672.67740482 733.340891247 c 128,-1,62
 666.568303925 753.289855661 666.568303925 753.289855661 657.780143333 770.055236599 c 128,-1,63
 648.991982741 786.820617537 648.991982741 786.820617537 637.367406668 800.898085809 c 0,64,65
 614.320202971 828.80846093 614.320202971 828.80846093 583.728126278 842.404230465 c 128,-1,46
 553.136049586 856 553.136049586 856 512 856 c 128,-1,47
EndSplineSet
EndChar

StartChar: yen
Encoding: 165 165 103
Width: 1024
GlyphClass: 2
Flags: W
LayerCount: 2
Fore
SplineSet
32 1310 m 1,0,-1
 223 1310 l 1,1,-1
 241.569643991 1310 l 1,2,-1
 249.851308314 1293.3793588 l 1,3,-1
 512 767.267797628 l 1,4,-1
 774.148691686 1293.3793588 l 1,5,-1
 782.430356009 1310 l 1,6,-1
 801 1310 l 1,7,-1
 992 1310 l 1,8,-1
 1041.1470779 1310 l 1,9,-1
 1018.68269265 1266.28745418 l 1,10,-1
 727.147077901 699 l 1,11,-1
 960 699 l 1,12,-1
 990 699 l 1,13,-1
 990 669 l 1,14,-1
 990 512 l 1,15,-1
 990 482 l 1,16,-1
 960 482 l 1,17,-1
 627 482 l 1,18,-1
 627 385 l 1,19,-1
 960 385 l 1,20,-1
 990 385 l 1,21,-1
 990 355 l 1,22,-1
 990 198 l 1,23,-1
 990 168 l 1,24,-1
 960 168 l 1,25,-1
 627 168 l 1,26,-1
 627 0 l 1,27,-1
 627 -30 l 1,28,-1
 597 -30 l 1,29,-1
 427 -30 l 1,30,-1
 397 -30 l 1,31,-1
 397 0 l 1,32,-1
 397 168 l 1,33,-1
 64 168 l 1,34,-1
 34 168 l 1,35,-1
 34 198 l 1,36,-1
 34 355 l 1,37,-1
 34 385 l 1,38,-1
 64 385 l 1,39,-1
 397 385 l 1,40,-1
 397 482 l 1,41,-1
 64 482 l 1,42,-1
 34 482 l 1,43,-1
 34 512 l 1,44,-1
 34 669 l 1,45,-1
 34 699 l 1,46,-1
 64 699 l 1,47,-1
 296.852922099 699 l 1,48,-1
 5.31730734621 1266.28745418 l 1,49,-1
 -17.1470779011 1310 l 1,50,-1
 32 1310 l 1,0,-1
EndSplineSet
EndChar

StartChar: brokenbar
Encoding: 166 166 104
Width: 1024
GlyphClass: 2
Flags: W
LayerCount: 2
Fore
SplineSet
427 1467 m 1,0,-1
 597 1467 l 1,1,-1
 627 1467 l 1,2,-1
 627 1437 l 1,3,-1
 627 733 l 1,4,-1
 627 703 l 1,5,-1
 597 703 l 1,6,-1
 427 703 l 1,7,-1
 397 703 l 1,8,-1
 397 733 l 1,9,-1
 397 1437 l 1,10,-1
 397 1467 l 1,11,-1
 427 1467 l 1,0,-1
427 478 m 1,12,-1
 597 478 l 1,13,-1
 627 478 l 1,14,-1
 627 448 l 1,15,-1
 627 -256 l 1,16,-1
 627 -286 l 1,17,-1
 597 -286 l 1,18,-1
 427 -286 l 1,19,-1
 397 -286 l 1,20,-1
 397 -256 l 1,21,-1
 397 448 l 1,22,-1
 397 478 l 1,23,-1
 427 478 l 1,12,-1
EndSplineSet
EndChar

StartChar: section
Encoding: 167 167 105
Width: 1024
GlyphClass: 2
Flags: W
LayerCount: 2
Fore
SplineSet
661 1318 m 0,0,1
 718.186261102 1318 718.186261102 1318 769.868818384 1313.9063321 c 0,2,3
 821.762682676 1309.795927 821.762682676 1309.795927 846.140235243 1305.55635264 c 2,4,-1
 869.140235243 1301.55635264 l 1,5,-1
 894 1297.2329153 l 1,6,-1
 894 1272 l 1,7,-1
 894 1142 l 1,8,-1
 894 1112 l 1,9,-1
 864 1112 l 1,10,-1
 661 1112 l 2,11,12
 507.119934951 1112 507.119934951 1112 429.980562627 1073.19935763 c 0,13,14
 363 1039.50853571 363 1039.50853571 363 960 c 0,15,16
 363 951.734405269 363 951.734405269 365.026279215 944.901937704 c 128,-1,17
 367.05255843 938.069470139 367.05255843 938.069470139 371.733146977 931.534437464 c 128,-1,18
 376.413735525 924.999404788 376.413735525 924.999404788 384.134419136 918.605713673 c 0,19,20
 411.598947706 895.861650951 411.598947706 895.861650951 456.980202236 881.624394628 c 0,21,22
 507.162607085 865.880895067 507.162607085 865.880895067 567.831704058 850.590309651 c 0,23,24
 631.114884122 834.640890286 631.114884122 834.640890286 694.829823077 809.977042948 c 0,25,26
 760.091511557 784.714453859 760.091511557 784.714453859 813.975274907 747.735400579 c 0,27,28
 871.282894515 708.406642025 871.282894515 708.406642025 906.747366043 638.585963704 c 0,29,30
 942 569.182340601 942 569.182340601 942 477 c 0,31,32
 941.269918896 308.596088981 941.269918896 308.596088981 842.25552192 204.276381077 c 1,33,34
 847.825595351 194.757225645 847.825595351 194.757225645 852.546639341 182.911252729 c 128,-1,35
 857.267683331 171.065279813 857.267683331 171.065279813 863.960498942 150.986832981 c 0,36,37
 878 108.868329805 878 108.868329805 878 64 c 0,38,39
 878 -34.2790400996 878 -34.2790400996 841.664095022 -104.748673996 c 0,40,41
 804.650249426 -176.533101819 804.650249426 -176.533101819 732.578613721 -218.435215601 c 0,42,43
 663.711295644 -258.474354017 663.711295644 -258.474354017 571.753262157 -276.443165158 c 0,44,45
 541.595274489 -282.336105278 541.595274489 -282.336105278 508.261831514 -286.243407603 c 128,-1,46
 474.928388539 -290.150709928 474.928388539 -290.150709928 438.717720042 -292.075354964 c 128,-1,47
 402.507051545 -294 402.507051545 -294 363 -294 c 0,48,49
 334.43295806 -294 334.43295806 -294 307.219217658 -292.977890628 c 128,-1,50
 280.005477256 -291.955781256 280.005477256 -291.955781256 254.131181616 -289.906332096 c 0,51,52
 202.237317324 -285.795927004 202.237317324 -285.795927004 177.859764757 -281.556352645 c 2,53,-1
 154.859764757 -277.556352645 l 1,54,-1
 130 -273.232915295 l 1,55,-1
 130 -248 l 1,56,-1
 130 -118 l 1,57,-1
 130 -88 l 1,58,-1
 160 -88 l 1,59,-1
 363 -88 l 2,60,61
 516.880065049 -88 516.880065049 -88 594.019437373 -49.1993576336 c 0,62,63
 661 -15.5085357133 661 -15.5085357133 661 64 c 0,64,65
 661 67.0674215978 661 67.0674215978 660.730178667 69.8874199113 c 128,-1,66
 660.460357334 72.7074182249 660.460357334 72.7074182249 659.886229075 75.4623796769 c 128,-1,67
 659.312100815 78.2173411288 659.312100815 78.2173411288 658.416321469 80.7957323629 c 128,-1,68
 657.520542122 83.3741235969 657.520542122 83.3741235969 656.268730954 85.9144721467 c 128,-1,69
 655.016919785 88.4548206965 655.016919785 88.4548206965 653.391620785 90.8923760207 c 128,-1,70
 651.766321784 93.3299313448 651.766321784 93.3299313448 649.733266067 95.756438162 c 128,-1,71
 647.70021035 98.1829449792 647.70021035 98.1829449792 645.241830056 100.580435563 c 128,-1,72
 642.783449761 102.977926147 642.783449761 102.977926147 639.865580864 105.394286327 c 0,73,74
 612.401052294 128.138349049 612.401052294 128.138349049 567.019797764 142.375605372 c 0,75,76
 516.837392915 158.119104933 516.837392915 158.119104933 456.168295942 173.409690349 c 0,77,78
 392.885115878 189.359109714 392.885115878 189.359109714 329.170176923 214.022957052 c 0,79,80
 263.908488443 239.285546141 263.908488443 239.285546141 210.024725093 276.264599421 c 0,81,82
 181.280546367 295.990996586 181.280546367 295.990996586 158.038228264 323.433353928 c 128,-1,83
 134.795910161 350.875711271 134.795910161 350.875711271 117.252633957 385.414036296 c 0,84,85
 82 454.817659399 82 454.817659399 82 547 c 0,86,87
 82 715.272522274 82 715.272522274 181.74447808 819.723618923 c 1,88,89
 172.584742664 835.377442202 172.584742664 835.377442202 160.039501058 873.013167019 c 0,90,91
 146 915.131670195 146 915.131670195 146 960 c 0,92,93
 146 976.11116151 146 976.11116151 146.979012772 991.486369528 c 128,-1,94
 147.958025544 1006.86157755 147.958025544 1006.86157755 149.932137807 1021.64745253 c 128,-1,95
 151.906250071 1036.43332752 151.906250071 1036.43332752 154.911702914 1050.51476437 c 128,-1,96
 157.917155758 1064.59620122 157.917155758 1064.59620122 161.940865836 1077.98310469 c 128,-1,97
 165.964575914 1091.37000815 165.964575914 1091.37000815 171.073899053 1104.09310322 c 128,-1,98
 176.183222191 1116.81619829 176.183222191 1116.81619829 182.335904978 1128.748674 c 0,99,100
 219.349750574 1200.53310182 219.349750574 1200.53310182 291.421386279 1242.4352156 c 0,101,102
 360.288704356 1282.47435402 360.288704356 1282.47435402 452.246737843 1300.44316516 c 0,103,104
 497.418411347 1309.269814 497.418411347 1309.269814 549.546659073 1313.634907 c 128,-1,105
 601.6749068 1318 601.6749068 1318 661 1318 c 0,0,1
360.903105162 692.364390581 m 1,106,107
 299 642.352993797 299 642.352993797 299 547 c 0,108,109
 299 510.73316687 299 510.73316687 313.761611586 484.002681025 c 0,110,111
 328.972919623 456.457879985 328.972919623 456.457879985 351.437145812 440.412004136 c 0,112,113
 363.68404596 431.664218316 363.68404596 431.664218316 380.067767521 423.070544625 c 128,-1,114
 396.451489082 414.476870933 396.451489082 414.476870933 416.696855369 406.332183347 c 0,115,116
 430.623842324 400.729372503 430.623842324 400.729372503 444.108973014 395.933323439 c 128,-1,117
 457.594103704 391.137274375 457.594103704 391.137274375 470.505284685 387.185349938 c 128,-1,118
 483.416465665 383.2334255 483.416465665 383.2334255 495.862656009 380.082491236 c 0,119,120
 535.803941268 369.970773449 535.803941268 369.970773449 588.741633837 354.845718429 c 0,121,122
 599.342305048 351.816955226 599.342305048 351.816955226 609.398694063 348.816724404 c 128,-1,123
 619.455083079 345.816493583 619.455083079 345.816493583 628.766204409 342.906926542 c 128,-1,124
 638.07732574 339.997359502 638.07732574 339.997359502 646.669258612 337.176455149 c 128,-1,125
 655.261191484 334.355550796 655.261191484 334.355550796 663.096894838 331.635609419 c 1,126,127
 725 381.647006203 725 381.647006203 725 477 c 0,128,129
 725 495.567780583 725 495.567780583 721.279619426 511.154212221 c 128,-1,130
 717.559238852 526.740643858 717.559238852 526.740643858 710.238388414 539.997318975 c 0,131,132
 702.48736029 554.032964498 702.48736029 554.032964498 693.111674051 564.820075315 c 128,-1,133
 683.735987811 575.607186133 683.735987811 575.607186133 672.562854188 583.587995864 c 0,134,135
 660.31595404 592.335781684 660.31595404 592.335781684 643.932232479 600.929455375 c 128,-1,136
 627.548510918 609.523129067 627.548510918 609.523129067 607.303144631 617.667816653 c 0,137,138
 565.678129252 634.413512495 565.678129252 634.413512495 528.137343991 643.917508764 c 0,139,140
 488.196058733 654.029226551 488.196058733 654.029226551 435.258366163 669.154281571 c 0,141,142
 392.914777094 681.252449876 392.914777094 681.252449876 360.903105162 692.364390581 c 1,106,107
EndSplineSet
EndChar

StartChar: copyright
Encoding: 169 169 107
Width: 1024
GlyphClass: 2
Flags: W
LayerCount: 2
Fore
SplineSet
512 1326 m 128,-1,1
 749.184475201 1326 749.184475201 1326 886.685679931 1158.53744327 c 0,2,3
 1022 993.738290809 1022 993.738290809 1022 712 c 128,-1,4
 1022 430.261709191 1022 430.261709191 886.685679931 265.462556734 c 0,5,6
 749.184475201 98 749.184475201 98 512 98 c 128,-1,7
 274.815524799 98 274.815524799 98 137.314320069 265.462556734 c 0,8,9
 2 430.261709191 2 430.261709191 2 712 c 128,-1,10
 2 993.738290809 2 993.738290809 137.314320069 1158.53744327 c 0,11,0
 274.815524799 1326 274.815524799 1326 512 1326 c 128,-1,1
512 1138 m 0,12,13
 462.760377109 1138 462.760377109 1138 421.45691614 1125.87661235 c 128,-1,14
 380.153455171 1113.7532247 380.153455171 1113.7532247 346.052742122 1089.40993757 c 128,-1,15
 311.952029073 1065.06665044 311.952029073 1065.06665044 283.952797508 1027.93723467 c 0,16,17
 198 913.956351013 198 913.956351013 198 712 c 128,-1,18
 198 510.043648987 198 510.043648987 283.952797508 396.062765334 c 0,19,20
 366.950948416 286 366.950948416 286 512 286 c 128,-1,21
 657.049051584 286 657.049051584 286 740.047202492 396.062765334 c 0,22,23
 826 510.043648987 826 510.043648987 826 712 c 128,-1,24
 826 913.956351013 826 913.956351013 740.047202492 1027.93723467 c 0,25,26
 657.049051584 1138 657.049051584 1138 512 1138 c 0,12,13
572 1006 m 0,27,28
 611.584451348 1006 611.584451348 1006 648.068000769 997.155503171 c 0,29,30
 684.76295721 988.259756155 684.76295721 988.259756155 703.117647059 978.470588235 c 2,31,-1
 718.117647059 970.470588235 l 1,32,-1
 734 962 l 1,33,-1
 734 944 l 1,34,-1
 734 840 l 1,35,-1
 734 810 l 1,36,-1
 704 810 l 1,37,-1
 572 810 l 1,38,-1
 571.262740616 810 l 2,39,40
 557.710309395 810.666513011 557.710309395 810.666513011 546.816517976 809.420744843 c 128,-1,41
 535.922726557 808.174976676 535.922726557 808.174976676 526.900267964 805.064584891 c 128,-1,42
 517.877809371 801.954193106 517.877809371 801.954193106 510.504919725 797.329908156 c 128,-1,43
 503.132030078 792.705623207 503.132030078 792.705623207 496.713203436 786.286796564 c 0,44,45
 483.39104747 772.964640599 483.39104747 772.964640599 476.695523735 754.950655632 c 128,-1,46
 470 736.936670665 470 736.936670665 470 712 c 0,47,48
 470 665.6781903 470 665.6781903 496.408024309 640.014053999 c 0,49,50
 509.653543396 627.141648126 509.653543396 627.141648126 528.034174277 620.570824063 c 128,-1,51
 546.414805158 614 546.414805158 614 572 614 c 2,52,-1
 704 614 l 1,53,-1
 734 614 l 1,54,-1
 734 584 l 1,55,-1
 734 480 l 1,56,-1
 734 463.582027009 l 1,57,-1
 720.171610893 454.73185798 l 2,58,59
 662.778082799 418 662.778082799 418 572 418 c 0,60,61
 505.034051572 418 505.034051572 418 450.233982924 437.851596 c 128,-1,62
 395.433914276 457.703192 395.433914276 457.703192 354.935655684 497.638974778 c 128,-1,63
 314.409952808 537.60182067 314.409952808 537.60182067 294.204976404 591.760508639 c 128,-1,64
 274 645.919196608 274 645.919196608 274 712 c 0,65,66
 274 846.549475867 274 846.549475867 354.935655684 926.361025222 c 128,-1,67
 435.696306163 1006 435.696306163 1006 572 1006 c 0,27,28
EndSplineSet
EndChar

StartChar: ordfeminine
Encoding: 170 170 108
Width: 1024
GlyphClass: 2
Flags: W
LayerCount: 2
Fore
SplineSet
408 1314 m 0,0,1
 637.748330569 1314 637.748330569 1314 730.625405269 1254.79765414 c 0,2,3
 830 1191.45361422 830 1191.45361422 830 1034 c 2,4,-1
 830 648 l 2,5,6
 830 640.743739314 830 640.743739314 829.526253264 633.69376098 c 128,-1,7
 829.052506529 626.643782646 829.052506529 626.643782646 828.105050261 619.77970642 c 128,-1,8
 827.157593992 612.915630194 827.157593992 612.915630194 825.720402679 606.280723187 c 128,-1,9
 824.283211366 599.64581618 824.283211366 599.64581618 822.372919571 593.246216529 c 128,-1,10
 820.462627776 586.846616877 820.462627776 586.846616877 818.045506136 580.69730542 c 128,-1,11
 815.628384496 574.547993964 815.628384496 574.547993964 812.738771423 568.683395109 c 128,-1,12
 809.849158351 562.818796255 809.849158351 562.818796255 806.435620634 557.225604571 c 128,-1,13
 803.022082917 551.632412887 803.022082917 551.632412887 799.136662818 546.373339053 c 128,-1,14
 795.25124272 541.114265219 795.25124272 541.114265219 790.824803176 536.14771753 c 128,-1,15
 786.398363633 531.181169842 786.398363633 531.181169842 781.499544267 526.596377358 c 0,16,17
 757.422276909 504.062524574 757.422276909 504.062524574 725.083927192 493.031262287 c 128,-1,18
 692.745577474 482 692.745577474 482 654 482 c 2,19,-1
 469 482 l 2,20,21
 339.835062762 482 339.835062762 482 263.105738685 556.472579251 c 0,22,23
 186 631.310502092 186 631.310502092 186 759 c 0,24,25
 186 868.319953654 186 868.319953654 265.133922517 932.325332161 c 0,26,27
 341.386239118 994 341.386239118 994 469 994 c 2,28,-1
 624 994 l 1,29,-1
 624 1034 l 2,30,31
 624 1058.51314059 624 1058.51314059 615.45278086 1072.703044 c 128,-1,32
 606.905561719 1086.89294741 606.905561719 1086.89294741 587.799532078 1095.82099865 c 0,33,34
 540.336469182 1118 540.336469182 1118 408 1118 c 2,35,-1
 256 1118 l 1,36,-1
 226 1118 l 1,37,-1
 226 1148 l 1,38,-1
 226 1276 l 1,39,-1
 226 1302.14609897 l 1,40,-1
 251.900878086 1305.71863388 l 2,41,42
 282.299069082 1309.91148781 282.299069082 1309.91148781 321.158546796 1311.9557439 c 128,-1,43
 360.01802451 1314 360.01802451 1314 408 1314 c 0,0,1
469 798 m 2,44,45
 447.666032471 798 447.666032471 798 432.125986308 794.333366179 c 128,-1,46
 416.585940146 790.666732359 416.585940146 790.666732359 406.834130255 784.336610148 c 0,47,48
 398.199133992 778.731437136 398.199133992 778.731437136 395.099566996 773.238800362 c 128,-1,49
 392 767.746163588 392 767.746163588 392 759 c 0,50,51
 392 719.12451432 392 719.12451432 412.075741703 698.344360628 c 0,52,53
 431.730462987 678 431.730462987 678 469 678 c 2,54,-1
 624 678 l 1,55,-1
 624 798 l 1,56,-1
 469 798 l 2,44,45
224 422 m 1,57,-1
 800 422 l 1,58,-1
 830 422 l 1,59,-1
 830 392 l 1,60,-1
 830 256 l 1,61,-1
 830 226 l 1,62,-1
 800 226 l 1,63,-1
 224 226 l 1,64,-1
 194 226 l 1,65,-1
 194 256 l 1,66,-1
 194 392 l 1,67,-1
 194 422 l 1,68,-1
 224 422 l 1,57,-1
EndSplineSet
EndChar

StartChar: guillemotleft
Encoding: 171 171 109
Width: 1024
GlyphClass: 2
Flags: W
LayerCount: 2
Fore
SplineSet
406.066260761 1127.33525735 m 1,0,-1
 529.066260761 1049.33525735 l 1,1,-1
 554.424468791 1033.2544425 l 1,2,-1
 538.320699472 1007.91080554 l 1,3,-1
 304.544041783 640 l 1,4,-1
 538.320699472 272.089194456 l 1,5,-1
 554.424468791 246.745557495 l 1,6,-1
 529.066260761 230.664742647 l 1,7,-1
 406.066260761 152.664742647 l 1,8,-1
 380.770995896 136.623842976 l 1,9,-1
 364.690155368 161.893735234 l 1,10,-1
 70.690155368 623.893735234 l 1,11,-1
 60.4407141534 640 l 1,12,-1
 70.690155368 656.106264766 l 1,13,-1
 364.690155368 1118.10626477 l 1,14,-1
 380.770995896 1143.37615702 l 1,15,-1
 406.066260761 1127.33525735 l 1,0,-1
821.066260761 1127.33525735 m 1,16,-1
 944.066260761 1049.33525735 l 1,17,-1
 969.424468791 1033.2544425 l 1,18,-1
 953.320699472 1007.91080554 l 1,19,-1
 719.544041783 640 l 1,20,-1
 953.320699472 272.089194456 l 1,21,-1
 969.424468791 246.745557495 l 1,22,-1
 944.066260761 230.664742647 l 1,23,-1
 821.066260761 152.664742647 l 1,24,-1
 795.770995896 136.623842976 l 1,25,-1
 779.690155368 161.893735234 l 1,26,-1
 485.690155368 623.893735234 l 1,27,-1
 475.440714153 640 l 1,28,-1
 485.690155368 656.106264766 l 1,29,-1
 779.690155368 1118.10626477 l 1,30,-1
 795.770995896 1143.37615702 l 1,31,-1
 821.066260761 1127.33525735 l 1,16,-1
EndSplineSet
EndChar

StartChar: logicalnot
Encoding: 172 172 110
Width: 1024
GlyphClass: 2
Flags: W
LayerCount: 2
Fore
SplineSet
128 749 m 1,0,-1
 896 749 l 1,1,-1
 926 749 l 1,2,-1
 926 719 l 1,3,-1
 926 256 l 1,4,-1
 926 226 l 1,5,-1
 896 226 l 1,6,-1
 739 226 l 1,7,-1
 709 226 l 1,8,-1
 709 256 l 1,9,-1
 709 531 l 1,10,-1
 128 531 l 1,11,-1
 98 531 l 1,12,-1
 98 561 l 1,13,-1
 98 719 l 1,14,-1
 98 749 l 1,15,-1
 128 749 l 1,0,-1
EndSplineSet
EndChar

StartChar: registered
Encoding: 174 174 112
Width: 1024
GlyphClass: 2
Flags: W
LayerCount: 2
Fore
SplineSet
454 875 m 1,0,-1
 454 799 l 1,1,-1
 497 799 l 2,2,3
 521.737280929 799 521.737280929 799 540.72921802 802.061736302 c 128,-1,4
 559.721155111 805.123472605 559.721155111 805.123472605 571.975434979 810.484720047 c 0,5,6
 586.906157299 817.258704548 586.906157299 817.258704548 586 821 c 0,7,8
 586 848.809000212 586 848.809000212 573.829327516 862.852083847 c 0,9,10
 563.301133517 875 563.301133517 875 543 875 c 2,11,-1
 454 875 l 1,0,-1
512 1138 m 0,12,13
 462.760377109 1138 462.760377109 1138 421.45691614 1125.87661235 c 128,-1,14
 380.153455171 1113.7532247 380.153455171 1113.7532247 346.052742122 1089.40993757 c 0,15,16
 325.27602531 1074.57817782 325.27602531 1074.57817782 306.764277266 1055 c 1,17,-1
 543 1055 l 2,18,19
 652.268384262 1055 652.268384262 1055 717.021240447 991.403444818 c 0,20,21
 782 927.585020257 782 927.585020257 782 821 c 128,-1,22
 782 714.268981815 782 714.268981815 683.879012006 660.047630415 c 1,23,-1
 768.325569332 440.167915114 l 1,24,25
 826 546.568135269 826 546.568135269 826 712 c 0,26,27
 826 913.956351013 826 913.956351013 740.047202492 1027.93723467 c 0,28,29
 657.049051584 1138 657.049051584 1138 512 1138 c 0,12,13
512 1326 m 128,-1,31
 749.184475201 1326 749.184475201 1326 886.685679931 1158.53744327 c 0,32,33
 1022 993.738290809 1022 993.738290809 1022 712 c 128,-1,34
 1022 430.261709191 1022 430.261709191 886.685679931 265.462556734 c 0,35,36
 749.184475201 98 749.184475201 98 512 98 c 128,-1,37
 274.815524799 98 274.815524799 98 137.314320069 265.462556734 c 0,38,39
 2 430.261709191 2 430.261709191 2 712 c 128,-1,40
 2 993.738290809 2 993.738290809 137.314320069 1158.53744327 c 0,41,30
 274.815524799 1326 274.815524799 1326 512 1326 c 128,-1,31
717.127100101 369 m 1,42,-1
 616 369 l 1,43,-1
 595.460975776 369 l 1,44,-1
 588.031470136 388.148210413 l 1,45,-1
 498.460975776 619 l 1,46,-1
 454 619 l 1,47,-1
 454 399 l 1,48,-1
 454 369 l 1,49,-1
 424 369 l 1,50,-1
 306.872899899 369 l 1,51,52
 386.039687473 286 386.039687473 286 512 286 c 128,-1,53
 637.960312527 286 637.960312527 286 717.127100101 369 c 1,42,-1
258 435.943527954 m 1,54,-1
 258 988.056472046 l 1,55,56
 198 880.734206013 198 880.734206013 198 712 c 128,-1,57
 198 543.265793987 198 543.265793987 258 435.943527954 c 1,54,-1
EndSplineSet
EndChar

StartChar: degree
Encoding: 176 176 114
Width: 1024
GlyphClass: 2
Flags: W
LayerCount: 2
Fore
SplineSet
218 1024 m 0,0,1
 218 1064.30782204 218 1064.30782204 227.633572982 1101.2107421 c 128,-1,2
 237.267145964 1138.11366216 237.267145964 1138.11366216 256.384958988 1171.02142052 c 128,-1,3
 275.502772012 1203.92917888 275.502772012 1203.92917888 303.786796564 1232.21320344 c 0,4,5
 389.573593129 1318 389.573593129 1318 512 1318 c 128,-1,6
 634.426406871 1318 634.426406871 1318 720.213203436 1232.21320344 c 128,-1,7
 806 1146.42640687 806 1146.42640687 806 1024 c 128,-1,8
 806 901.573593129 806 901.573593129 720.213203436 815.786796564 c 128,-1,9
 634.426406871 730 634.426406871 730 512 730 c 128,-1,10
 389.573593129 730 389.573593129 730 303.786796564 815.786796564 c 128,-1,11
 218 901.573593129 218 901.573593129 218 1024 c 0,0,1
512 1122 m 0,12,13
 491.078592441 1122 491.078592441 1122 474.300001022 1115.04750137 c 128,-1,14
 457.521409602 1108.09500273 457.521409602 1108.09500273 442.713203436 1093.28679656 c 0,15,16
 432.805161332 1083.37875446 432.805161332 1083.37875446 426.47577671 1072.70408409 c 128,-1,17
 420.146392088 1062.02941372 420.146392088 1062.02941372 417.073196044 1050.01333162 c 128,-1,18
 414 1037.99724951 414 1037.99724951 414 1024 c 0,19,20
 414 983.426406871 414 983.426406871 442.713203436 954.713203436 c 128,-1,21
 471.426406871 926 471.426406871 926 512 926 c 128,-1,22
 552.573593129 926 552.573593129 926 581.286796564 954.713203436 c 128,-1,23
 610 983.426406871 610 983.426406871 610 1024 c 128,-1,24
 610 1064.57359313 610 1064.57359313 581.286796564 1093.28679656 c 128,-1,25
 552.573593129 1122 552.573593129 1122 512 1122 c 0,12,13
EndSplineSet
EndChar

StartChar: plusminus
Encoding: 177 177 115
Width: 1024
GlyphClass: 2
Flags: W
LayerCount: 2
Fore
SplineSet
434 1243 m 1,0,-1
 590 1243 l 1,1,-1
 620 1243 l 1,2,-1
 620 1213 l 1,3,-1
 620 906 l 1,4,-1
 928 906 l 1,5,-1
 958 906 l 1,6,-1
 958 876 l 1,7,-1
 958 719 l 1,8,-1
 958 689 l 1,9,-1
 928 689 l 1,10,-1
 620 689 l 1,11,-1
 620 381 l 1,12,-1
 620 351 l 1,13,-1
 590 351 l 1,14,-1
 434 351 l 1,15,-1
 404 351 l 1,16,-1
 404 381 l 1,17,-1
 404 689 l 1,18,-1
 96 689 l 1,19,-1
 66 689 l 1,20,-1
 66 719 l 1,21,-1
 66 876 l 1,22,-1
 66 906 l 1,23,-1
 96 906 l 1,24,-1
 404 906 l 1,25,-1
 404 1213 l 1,26,-1
 404 1243 l 1,27,-1
 434 1243 l 1,0,-1
128 286 m 1,28,-1
 896 286 l 1,29,-1
 926 286 l 1,30,-1
 926 256 l 1,31,-1
 926 99 l 1,32,-1
 926 69 l 1,33,-1
 896 69 l 1,34,-1
 128 69 l 1,35,-1
 98 69 l 1,36,-1
 98 99 l 1,37,-1
 98 256 l 1,38,-1
 98 286 l 1,39,-1
 128 286 l 1,28,-1
EndSplineSet
EndChar

StartChar: acute
Encoding: 180 180 118
Width: 1024
GlyphClass: 2
Flags: W
LayerCount: 2
Fore
SplineSet
769.739339581 1119.32328914 m 1,0,-1
 399.739339581 765.323289139 l 1,1,-1
 378.536379403 745.037213726 l 1,2,-1
 357.786796564 765.786796564 l 1,3,-1
 253.786796564 869.786796564 l 1,4,-1
 233.037213726 890.536379403 l 1,5,-1
 253.323289139 911.739339581 l 1,6,-1
 607.323289139 1281.73933958 l 1,7,-1
 628.526020445 1303.90038643 l 1,8,-1
 650.213203436 1282.21320344 l 1,9,-1
 770.213203436 1162.21320344 l 1,10,-1
 791.900386426 1140.52602045 l 1,11,-1
 769.739339581 1119.32328914 l 1,0,-1
EndSplineSet
EndChar

